%TF.GenerationSoftware,KiCad,Pcbnew,(5.1.6)-1*%
%TF.CreationDate,2021-02-15T17:49:45+00:00*%
%TF.ProjectId,p3module,70336d6f-6475-46c6-952e-6b696361645f,rev?*%
%TF.SameCoordinates,Original*%
%TF.FileFunction,Soldermask,Top*%
%TF.FilePolarity,Negative*%
%FSLAX46Y46*%
G04 Gerber Fmt 4.6, Leading zero omitted, Abs format (unit mm)*
G04 Created by KiCad (PCBNEW (5.1.6)-1) date 2021-02-15 17:49:45*
%MOMM*%
%LPD*%
G01*
G04 APERTURE LIST*
%ADD10O,1.800000X1.800000*%
%ADD11R,1.800000X1.800000*%
%ADD12C,4.100000*%
%ADD13C,1.900000*%
%ADD14C,3.300000*%
%ADD15R,1.900000X1.900000*%
G04 APERTURE END LIST*
D10*
%TO.C,J2*%
X62540000Y-103140000D03*
X60000000Y-103140000D03*
X62540000Y-105680000D03*
X60000000Y-105680000D03*
X62540000Y-108220000D03*
X60000000Y-108220000D03*
X62540000Y-110760000D03*
X60000000Y-110760000D03*
X62540000Y-113300000D03*
X60000000Y-113300000D03*
X62540000Y-115840000D03*
X60000000Y-115840000D03*
X62540000Y-118380000D03*
X60000000Y-118380000D03*
X62540000Y-120920000D03*
X60000000Y-120920000D03*
X62540000Y-123460000D03*
X60000000Y-123460000D03*
X62540000Y-126000000D03*
D11*
X60000000Y-126000000D03*
%TD*%
D12*
%TO.C,RV4*%
X61900000Y-73000000D03*
X53100000Y-73000000D03*
D13*
X60000000Y-80000000D03*
X57500000Y-80000000D03*
X55000000Y-80000000D03*
%TD*%
D12*
%TO.C,RV3*%
X46900000Y-73000000D03*
X38100000Y-73000000D03*
D13*
X45000000Y-80000000D03*
X42500000Y-80000000D03*
X40000000Y-80000000D03*
%TD*%
D12*
%TO.C,RV2*%
X61900000Y-52000000D03*
X53100000Y-52000000D03*
D13*
X60000000Y-59000000D03*
X57500000Y-59000000D03*
X55000000Y-59000000D03*
%TD*%
D12*
%TO.C,RV1*%
X46900000Y-52000000D03*
X38100000Y-52000000D03*
D13*
X45000000Y-59000000D03*
X42500000Y-59000000D03*
X40000000Y-59000000D03*
%TD*%
D10*
%TO.C,J3*%
X38100000Y-119380000D03*
X38100000Y-116840000D03*
X38100000Y-114300000D03*
X38100000Y-111760000D03*
X38100000Y-109220000D03*
X38100000Y-106680000D03*
X38100000Y-104140000D03*
D11*
X38100000Y-101600000D03*
%TD*%
D10*
%TO.C,J1*%
X38100000Y-142240000D03*
X38100000Y-139700000D03*
X38100000Y-137160000D03*
X38100000Y-134620000D03*
X38100000Y-132080000D03*
X38100000Y-129540000D03*
X38100000Y-127000000D03*
D11*
X38100000Y-124460000D03*
%TD*%
D14*
%TO.C,H2*%
X61000000Y-141000000D03*
%TD*%
%TO.C,H1*%
X50000000Y-63000000D03*
%TD*%
D13*
%TO.C,D4*%
X61540000Y-93000000D03*
D15*
X59000000Y-93000000D03*
%TD*%
D13*
%TO.C,D3*%
X54540000Y-93000000D03*
D15*
X52000000Y-93000000D03*
%TD*%
D13*
%TO.C,D2*%
X47540000Y-93000000D03*
D15*
X45000000Y-93000000D03*
%TD*%
D13*
%TO.C,D1*%
X40540000Y-93000000D03*
D15*
X38000000Y-93000000D03*
%TD*%
M02*
