%TF.GenerationSoftware,KiCad,Pcbnew,(5.1.6)-1*%
%TF.CreationDate,2021-02-15T17:49:45+00:00*%
%TF.ProjectId,p3module,70336d6f-6475-46c6-952e-6b696361645f,rev?*%
%TF.SameCoordinates,Original*%
%TF.FileFunction,Legend,Top*%
%TF.FilePolarity,Positive*%
%FSLAX46Y46*%
G04 Gerber Fmt 4.6, Leading zero omitted, Abs format (unit mm)*
G04 Created by KiCad (PCBNEW (5.1.6)-1) date 2021-02-15 17:49:45*
%MOMM*%
%LPD*%
G01*
G04 APERTURE LIST*
%ADD10C,0.150000*%
%ADD11C,0.120000*%
G04 APERTURE END LIST*
D10*
X41500000Y-82357142D02*
X43357142Y-82357142D01*
X42357142Y-83500000D01*
X42785714Y-83500000D01*
X43071428Y-83642857D01*
X43214285Y-83785714D01*
X43357142Y-84071428D01*
X43357142Y-84785714D01*
X43214285Y-85071428D01*
X43071428Y-85214285D01*
X42785714Y-85357142D01*
X41928571Y-85357142D01*
X41642857Y-85214285D01*
X41500000Y-85071428D01*
X58071428Y-83357142D02*
X58071428Y-85357142D01*
X57357142Y-82214285D02*
X56642857Y-84357142D01*
X58500000Y-84357142D01*
X56642857Y-61642857D02*
X56785714Y-61500000D01*
X57071428Y-61357142D01*
X57785714Y-61357142D01*
X58071428Y-61500000D01*
X58214285Y-61642857D01*
X58357142Y-61928571D01*
X58357142Y-62214285D01*
X58214285Y-62642857D01*
X56500000Y-64357142D01*
X58357142Y-64357142D01*
X43357142Y-64357142D02*
X41642857Y-64357142D01*
X42500000Y-64357142D02*
X42500000Y-61357142D01*
X42214285Y-61785714D01*
X41928571Y-62071428D01*
X41642857Y-62214285D01*
X41423214Y-123548809D02*
X41727976Y-123548809D01*
X41880357Y-123625000D01*
X42032738Y-123777380D01*
X42108928Y-124082142D01*
X42108928Y-124615476D01*
X42032738Y-124920238D01*
X41880357Y-125072619D01*
X41727976Y-125148809D01*
X41423214Y-125148809D01*
X41270833Y-125072619D01*
X41118452Y-124920238D01*
X41042261Y-124615476D01*
X41042261Y-124082142D01*
X41118452Y-123777380D01*
X41270833Y-123625000D01*
X41423214Y-123548809D01*
X42794642Y-123548809D02*
X42794642Y-124844047D01*
X42870833Y-124996428D01*
X42947023Y-125072619D01*
X43099404Y-125148809D01*
X43404166Y-125148809D01*
X43556547Y-125072619D01*
X43632738Y-124996428D01*
X43708928Y-124844047D01*
X43708928Y-123548809D01*
X44242261Y-123548809D02*
X45156547Y-123548809D01*
X44699404Y-125148809D02*
X44699404Y-123548809D01*
X45689880Y-125148809D02*
X45689880Y-123548809D01*
X46299404Y-123548809D01*
X46451785Y-123625000D01*
X46527976Y-123701190D01*
X46604166Y-123853571D01*
X46604166Y-124082142D01*
X46527976Y-124234523D01*
X46451785Y-124310714D01*
X46299404Y-124386904D01*
X45689880Y-124386904D01*
X47289880Y-123548809D02*
X47289880Y-124844047D01*
X47366071Y-124996428D01*
X47442261Y-125072619D01*
X47594642Y-125148809D01*
X47899404Y-125148809D01*
X48051785Y-125072619D01*
X48127976Y-124996428D01*
X48204166Y-124844047D01*
X48204166Y-123548809D01*
X48737500Y-123548809D02*
X49651785Y-123548809D01*
X49194642Y-125148809D02*
X49194642Y-123548809D01*
X51708928Y-123548809D02*
X51861309Y-123548809D01*
X52013690Y-123625000D01*
X52089880Y-123701190D01*
X52166071Y-123853571D01*
X52242261Y-124158333D01*
X52242261Y-124539285D01*
X52166071Y-124844047D01*
X52089880Y-124996428D01*
X52013690Y-125072619D01*
X51861309Y-125148809D01*
X51708928Y-125148809D01*
X51556547Y-125072619D01*
X51480357Y-124996428D01*
X51404166Y-124844047D01*
X51327976Y-124539285D01*
X51327976Y-124158333D01*
X51404166Y-123853571D01*
X51480357Y-123701190D01*
X51556547Y-123625000D01*
X51708928Y-123548809D01*
X41423214Y-126098809D02*
X41727976Y-126098809D01*
X41880357Y-126175000D01*
X42032738Y-126327380D01*
X42108928Y-126632142D01*
X42108928Y-127165476D01*
X42032738Y-127470238D01*
X41880357Y-127622619D01*
X41727976Y-127698809D01*
X41423214Y-127698809D01*
X41270833Y-127622619D01*
X41118452Y-127470238D01*
X41042261Y-127165476D01*
X41042261Y-126632142D01*
X41118452Y-126327380D01*
X41270833Y-126175000D01*
X41423214Y-126098809D01*
X42794642Y-126098809D02*
X42794642Y-127394047D01*
X42870833Y-127546428D01*
X42947023Y-127622619D01*
X43099404Y-127698809D01*
X43404166Y-127698809D01*
X43556547Y-127622619D01*
X43632738Y-127546428D01*
X43708928Y-127394047D01*
X43708928Y-126098809D01*
X44242261Y-126098809D02*
X45156547Y-126098809D01*
X44699404Y-127698809D02*
X44699404Y-126098809D01*
X45689880Y-127698809D02*
X45689880Y-126098809D01*
X46299404Y-126098809D01*
X46451785Y-126175000D01*
X46527976Y-126251190D01*
X46604166Y-126403571D01*
X46604166Y-126632142D01*
X46527976Y-126784523D01*
X46451785Y-126860714D01*
X46299404Y-126936904D01*
X45689880Y-126936904D01*
X47289880Y-126098809D02*
X47289880Y-127394047D01*
X47366071Y-127546428D01*
X47442261Y-127622619D01*
X47594642Y-127698809D01*
X47899404Y-127698809D01*
X48051785Y-127622619D01*
X48127976Y-127546428D01*
X48204166Y-127394047D01*
X48204166Y-126098809D01*
X48737500Y-126098809D02*
X49651785Y-126098809D01*
X49194642Y-127698809D02*
X49194642Y-126098809D01*
X52242261Y-127698809D02*
X51327976Y-127698809D01*
X51785119Y-127698809D02*
X51785119Y-126098809D01*
X51632738Y-126327380D01*
X51480357Y-126479761D01*
X51327976Y-126555952D01*
X41423214Y-128648809D02*
X41727976Y-128648809D01*
X41880357Y-128725000D01*
X42032738Y-128877380D01*
X42108928Y-129182142D01*
X42108928Y-129715476D01*
X42032738Y-130020238D01*
X41880357Y-130172619D01*
X41727976Y-130248809D01*
X41423214Y-130248809D01*
X41270833Y-130172619D01*
X41118452Y-130020238D01*
X41042261Y-129715476D01*
X41042261Y-129182142D01*
X41118452Y-128877380D01*
X41270833Y-128725000D01*
X41423214Y-128648809D01*
X42794642Y-128648809D02*
X42794642Y-129944047D01*
X42870833Y-130096428D01*
X42947023Y-130172619D01*
X43099404Y-130248809D01*
X43404166Y-130248809D01*
X43556547Y-130172619D01*
X43632738Y-130096428D01*
X43708928Y-129944047D01*
X43708928Y-128648809D01*
X44242261Y-128648809D02*
X45156547Y-128648809D01*
X44699404Y-130248809D02*
X44699404Y-128648809D01*
X45689880Y-130248809D02*
X45689880Y-128648809D01*
X46299404Y-128648809D01*
X46451785Y-128725000D01*
X46527976Y-128801190D01*
X46604166Y-128953571D01*
X46604166Y-129182142D01*
X46527976Y-129334523D01*
X46451785Y-129410714D01*
X46299404Y-129486904D01*
X45689880Y-129486904D01*
X47289880Y-128648809D02*
X47289880Y-129944047D01*
X47366071Y-130096428D01*
X47442261Y-130172619D01*
X47594642Y-130248809D01*
X47899404Y-130248809D01*
X48051785Y-130172619D01*
X48127976Y-130096428D01*
X48204166Y-129944047D01*
X48204166Y-128648809D01*
X48737500Y-128648809D02*
X49651785Y-128648809D01*
X49194642Y-130248809D02*
X49194642Y-128648809D01*
X51327976Y-128801190D02*
X51404166Y-128725000D01*
X51556547Y-128648809D01*
X51937500Y-128648809D01*
X52089880Y-128725000D01*
X52166071Y-128801190D01*
X52242261Y-128953571D01*
X52242261Y-129105952D01*
X52166071Y-129334523D01*
X51251785Y-130248809D01*
X52242261Y-130248809D01*
X41423214Y-131198809D02*
X41727976Y-131198809D01*
X41880357Y-131275000D01*
X42032738Y-131427380D01*
X42108928Y-131732142D01*
X42108928Y-132265476D01*
X42032738Y-132570238D01*
X41880357Y-132722619D01*
X41727976Y-132798809D01*
X41423214Y-132798809D01*
X41270833Y-132722619D01*
X41118452Y-132570238D01*
X41042261Y-132265476D01*
X41042261Y-131732142D01*
X41118452Y-131427380D01*
X41270833Y-131275000D01*
X41423214Y-131198809D01*
X42794642Y-131198809D02*
X42794642Y-132494047D01*
X42870833Y-132646428D01*
X42947023Y-132722619D01*
X43099404Y-132798809D01*
X43404166Y-132798809D01*
X43556547Y-132722619D01*
X43632738Y-132646428D01*
X43708928Y-132494047D01*
X43708928Y-131198809D01*
X44242261Y-131198809D02*
X45156547Y-131198809D01*
X44699404Y-132798809D02*
X44699404Y-131198809D01*
X45689880Y-132798809D02*
X45689880Y-131198809D01*
X46299404Y-131198809D01*
X46451785Y-131275000D01*
X46527976Y-131351190D01*
X46604166Y-131503571D01*
X46604166Y-131732142D01*
X46527976Y-131884523D01*
X46451785Y-131960714D01*
X46299404Y-132036904D01*
X45689880Y-132036904D01*
X47289880Y-131198809D02*
X47289880Y-132494047D01*
X47366071Y-132646428D01*
X47442261Y-132722619D01*
X47594642Y-132798809D01*
X47899404Y-132798809D01*
X48051785Y-132722619D01*
X48127976Y-132646428D01*
X48204166Y-132494047D01*
X48204166Y-131198809D01*
X48737500Y-131198809D02*
X49651785Y-131198809D01*
X49194642Y-132798809D02*
X49194642Y-131198809D01*
X51251785Y-131198809D02*
X52242261Y-131198809D01*
X51708928Y-131808333D01*
X51937500Y-131808333D01*
X52089880Y-131884523D01*
X52166071Y-131960714D01*
X52242261Y-132113095D01*
X52242261Y-132494047D01*
X52166071Y-132646428D01*
X52089880Y-132722619D01*
X51937500Y-132798809D01*
X51480357Y-132798809D01*
X51327976Y-132722619D01*
X51251785Y-132646428D01*
X41423214Y-133748809D02*
X41727976Y-133748809D01*
X41880357Y-133825000D01*
X42032738Y-133977380D01*
X42108928Y-134282142D01*
X42108928Y-134815476D01*
X42032738Y-135120238D01*
X41880357Y-135272619D01*
X41727976Y-135348809D01*
X41423214Y-135348809D01*
X41270833Y-135272619D01*
X41118452Y-135120238D01*
X41042261Y-134815476D01*
X41042261Y-134282142D01*
X41118452Y-133977380D01*
X41270833Y-133825000D01*
X41423214Y-133748809D01*
X42794642Y-133748809D02*
X42794642Y-135044047D01*
X42870833Y-135196428D01*
X42947023Y-135272619D01*
X43099404Y-135348809D01*
X43404166Y-135348809D01*
X43556547Y-135272619D01*
X43632738Y-135196428D01*
X43708928Y-135044047D01*
X43708928Y-133748809D01*
X44242261Y-133748809D02*
X45156547Y-133748809D01*
X44699404Y-135348809D02*
X44699404Y-133748809D01*
X45689880Y-135348809D02*
X45689880Y-133748809D01*
X46299404Y-133748809D01*
X46451785Y-133825000D01*
X46527976Y-133901190D01*
X46604166Y-134053571D01*
X46604166Y-134282142D01*
X46527976Y-134434523D01*
X46451785Y-134510714D01*
X46299404Y-134586904D01*
X45689880Y-134586904D01*
X47289880Y-133748809D02*
X47289880Y-135044047D01*
X47366071Y-135196428D01*
X47442261Y-135272619D01*
X47594642Y-135348809D01*
X47899404Y-135348809D01*
X48051785Y-135272619D01*
X48127976Y-135196428D01*
X48204166Y-135044047D01*
X48204166Y-133748809D01*
X48737500Y-133748809D02*
X49651785Y-133748809D01*
X49194642Y-135348809D02*
X49194642Y-133748809D01*
X52089880Y-134282142D02*
X52089880Y-135348809D01*
X51708928Y-133672619D02*
X51327976Y-134815476D01*
X52318452Y-134815476D01*
X41423214Y-136298809D02*
X41727976Y-136298809D01*
X41880357Y-136375000D01*
X42032738Y-136527380D01*
X42108928Y-136832142D01*
X42108928Y-137365476D01*
X42032738Y-137670238D01*
X41880357Y-137822619D01*
X41727976Y-137898809D01*
X41423214Y-137898809D01*
X41270833Y-137822619D01*
X41118452Y-137670238D01*
X41042261Y-137365476D01*
X41042261Y-136832142D01*
X41118452Y-136527380D01*
X41270833Y-136375000D01*
X41423214Y-136298809D01*
X42794642Y-136298809D02*
X42794642Y-137594047D01*
X42870833Y-137746428D01*
X42947023Y-137822619D01*
X43099404Y-137898809D01*
X43404166Y-137898809D01*
X43556547Y-137822619D01*
X43632738Y-137746428D01*
X43708928Y-137594047D01*
X43708928Y-136298809D01*
X44242261Y-136298809D02*
X45156547Y-136298809D01*
X44699404Y-137898809D02*
X44699404Y-136298809D01*
X45689880Y-137898809D02*
X45689880Y-136298809D01*
X46299404Y-136298809D01*
X46451785Y-136375000D01*
X46527976Y-136451190D01*
X46604166Y-136603571D01*
X46604166Y-136832142D01*
X46527976Y-136984523D01*
X46451785Y-137060714D01*
X46299404Y-137136904D01*
X45689880Y-137136904D01*
X47289880Y-136298809D02*
X47289880Y-137594047D01*
X47366071Y-137746428D01*
X47442261Y-137822619D01*
X47594642Y-137898809D01*
X47899404Y-137898809D01*
X48051785Y-137822619D01*
X48127976Y-137746428D01*
X48204166Y-137594047D01*
X48204166Y-136298809D01*
X48737500Y-136298809D02*
X49651785Y-136298809D01*
X49194642Y-137898809D02*
X49194642Y-136298809D01*
X52166071Y-136298809D02*
X51404166Y-136298809D01*
X51327976Y-137060714D01*
X51404166Y-136984523D01*
X51556547Y-136908333D01*
X51937500Y-136908333D01*
X52089880Y-136984523D01*
X52166071Y-137060714D01*
X52242261Y-137213095D01*
X52242261Y-137594047D01*
X52166071Y-137746428D01*
X52089880Y-137822619D01*
X51937500Y-137898809D01*
X51556547Y-137898809D01*
X51404166Y-137822619D01*
X51327976Y-137746428D01*
X41423214Y-138848809D02*
X41727976Y-138848809D01*
X41880357Y-138925000D01*
X42032738Y-139077380D01*
X42108928Y-139382142D01*
X42108928Y-139915476D01*
X42032738Y-140220238D01*
X41880357Y-140372619D01*
X41727976Y-140448809D01*
X41423214Y-140448809D01*
X41270833Y-140372619D01*
X41118452Y-140220238D01*
X41042261Y-139915476D01*
X41042261Y-139382142D01*
X41118452Y-139077380D01*
X41270833Y-138925000D01*
X41423214Y-138848809D01*
X42794642Y-138848809D02*
X42794642Y-140144047D01*
X42870833Y-140296428D01*
X42947023Y-140372619D01*
X43099404Y-140448809D01*
X43404166Y-140448809D01*
X43556547Y-140372619D01*
X43632738Y-140296428D01*
X43708928Y-140144047D01*
X43708928Y-138848809D01*
X44242261Y-138848809D02*
X45156547Y-138848809D01*
X44699404Y-140448809D02*
X44699404Y-138848809D01*
X45689880Y-140448809D02*
X45689880Y-138848809D01*
X46299404Y-138848809D01*
X46451785Y-138925000D01*
X46527976Y-139001190D01*
X46604166Y-139153571D01*
X46604166Y-139382142D01*
X46527976Y-139534523D01*
X46451785Y-139610714D01*
X46299404Y-139686904D01*
X45689880Y-139686904D01*
X47289880Y-138848809D02*
X47289880Y-140144047D01*
X47366071Y-140296428D01*
X47442261Y-140372619D01*
X47594642Y-140448809D01*
X47899404Y-140448809D01*
X48051785Y-140372619D01*
X48127976Y-140296428D01*
X48204166Y-140144047D01*
X48204166Y-138848809D01*
X48737500Y-138848809D02*
X49651785Y-138848809D01*
X49194642Y-140448809D02*
X49194642Y-138848809D01*
X52089880Y-138848809D02*
X51785119Y-138848809D01*
X51632738Y-138925000D01*
X51556547Y-139001190D01*
X51404166Y-139229761D01*
X51327976Y-139534523D01*
X51327976Y-140144047D01*
X51404166Y-140296428D01*
X51480357Y-140372619D01*
X51632738Y-140448809D01*
X51937500Y-140448809D01*
X52089880Y-140372619D01*
X52166071Y-140296428D01*
X52242261Y-140144047D01*
X52242261Y-139763095D01*
X52166071Y-139610714D01*
X52089880Y-139534523D01*
X51937500Y-139458333D01*
X51632738Y-139458333D01*
X51480357Y-139534523D01*
X51404166Y-139610714D01*
X51327976Y-139763095D01*
X41423214Y-141398809D02*
X41727976Y-141398809D01*
X41880357Y-141475000D01*
X42032738Y-141627380D01*
X42108928Y-141932142D01*
X42108928Y-142465476D01*
X42032738Y-142770238D01*
X41880357Y-142922619D01*
X41727976Y-142998809D01*
X41423214Y-142998809D01*
X41270833Y-142922619D01*
X41118452Y-142770238D01*
X41042261Y-142465476D01*
X41042261Y-141932142D01*
X41118452Y-141627380D01*
X41270833Y-141475000D01*
X41423214Y-141398809D01*
X42794642Y-141398809D02*
X42794642Y-142694047D01*
X42870833Y-142846428D01*
X42947023Y-142922619D01*
X43099404Y-142998809D01*
X43404166Y-142998809D01*
X43556547Y-142922619D01*
X43632738Y-142846428D01*
X43708928Y-142694047D01*
X43708928Y-141398809D01*
X44242261Y-141398809D02*
X45156547Y-141398809D01*
X44699404Y-142998809D02*
X44699404Y-141398809D01*
X45689880Y-142998809D02*
X45689880Y-141398809D01*
X46299404Y-141398809D01*
X46451785Y-141475000D01*
X46527976Y-141551190D01*
X46604166Y-141703571D01*
X46604166Y-141932142D01*
X46527976Y-142084523D01*
X46451785Y-142160714D01*
X46299404Y-142236904D01*
X45689880Y-142236904D01*
X47289880Y-141398809D02*
X47289880Y-142694047D01*
X47366071Y-142846428D01*
X47442261Y-142922619D01*
X47594642Y-142998809D01*
X47899404Y-142998809D01*
X48051785Y-142922619D01*
X48127976Y-142846428D01*
X48204166Y-142694047D01*
X48204166Y-141398809D01*
X48737500Y-141398809D02*
X49651785Y-141398809D01*
X49194642Y-142998809D02*
X49194642Y-141398809D01*
X51251785Y-141398809D02*
X52318452Y-141398809D01*
X51632738Y-142998809D01*
X41118452Y-102288809D02*
X41118452Y-100688809D01*
X41880357Y-102288809D02*
X41880357Y-100688809D01*
X42794642Y-102288809D01*
X42794642Y-100688809D01*
X43556547Y-102288809D02*
X43556547Y-100688809D01*
X44166071Y-100688809D01*
X44318452Y-100765000D01*
X44394642Y-100841190D01*
X44470833Y-100993571D01*
X44470833Y-101222142D01*
X44394642Y-101374523D01*
X44318452Y-101450714D01*
X44166071Y-101526904D01*
X43556547Y-101526904D01*
X45156547Y-100688809D02*
X45156547Y-101984047D01*
X45232738Y-102136428D01*
X45308928Y-102212619D01*
X45461309Y-102288809D01*
X45766071Y-102288809D01*
X45918452Y-102212619D01*
X45994642Y-102136428D01*
X46070833Y-101984047D01*
X46070833Y-100688809D01*
X46604166Y-100688809D02*
X47518452Y-100688809D01*
X47061309Y-102288809D02*
X47061309Y-100688809D01*
X49575595Y-100688809D02*
X49727976Y-100688809D01*
X49880357Y-100765000D01*
X49956547Y-100841190D01*
X50032738Y-100993571D01*
X50108928Y-101298333D01*
X50108928Y-101679285D01*
X50032738Y-101984047D01*
X49956547Y-102136428D01*
X49880357Y-102212619D01*
X49727976Y-102288809D01*
X49575595Y-102288809D01*
X49423214Y-102212619D01*
X49347023Y-102136428D01*
X49270833Y-101984047D01*
X49194642Y-101679285D01*
X49194642Y-101298333D01*
X49270833Y-100993571D01*
X49347023Y-100841190D01*
X49423214Y-100765000D01*
X49575595Y-100688809D01*
X41118452Y-104838809D02*
X41118452Y-103238809D01*
X41880357Y-104838809D02*
X41880357Y-103238809D01*
X42794642Y-104838809D01*
X42794642Y-103238809D01*
X43556547Y-104838809D02*
X43556547Y-103238809D01*
X44166071Y-103238809D01*
X44318452Y-103315000D01*
X44394642Y-103391190D01*
X44470833Y-103543571D01*
X44470833Y-103772142D01*
X44394642Y-103924523D01*
X44318452Y-104000714D01*
X44166071Y-104076904D01*
X43556547Y-104076904D01*
X45156547Y-103238809D02*
X45156547Y-104534047D01*
X45232738Y-104686428D01*
X45308928Y-104762619D01*
X45461309Y-104838809D01*
X45766071Y-104838809D01*
X45918452Y-104762619D01*
X45994642Y-104686428D01*
X46070833Y-104534047D01*
X46070833Y-103238809D01*
X46604166Y-103238809D02*
X47518452Y-103238809D01*
X47061309Y-104838809D02*
X47061309Y-103238809D01*
X50108928Y-104838809D02*
X49194642Y-104838809D01*
X49651785Y-104838809D02*
X49651785Y-103238809D01*
X49499404Y-103467380D01*
X49347023Y-103619761D01*
X49194642Y-103695952D01*
X41118452Y-107388809D02*
X41118452Y-105788809D01*
X41880357Y-107388809D02*
X41880357Y-105788809D01*
X42794642Y-107388809D01*
X42794642Y-105788809D01*
X43556547Y-107388809D02*
X43556547Y-105788809D01*
X44166071Y-105788809D01*
X44318452Y-105865000D01*
X44394642Y-105941190D01*
X44470833Y-106093571D01*
X44470833Y-106322142D01*
X44394642Y-106474523D01*
X44318452Y-106550714D01*
X44166071Y-106626904D01*
X43556547Y-106626904D01*
X45156547Y-105788809D02*
X45156547Y-107084047D01*
X45232738Y-107236428D01*
X45308928Y-107312619D01*
X45461309Y-107388809D01*
X45766071Y-107388809D01*
X45918452Y-107312619D01*
X45994642Y-107236428D01*
X46070833Y-107084047D01*
X46070833Y-105788809D01*
X46604166Y-105788809D02*
X47518452Y-105788809D01*
X47061309Y-107388809D02*
X47061309Y-105788809D01*
X49194642Y-105941190D02*
X49270833Y-105865000D01*
X49423214Y-105788809D01*
X49804166Y-105788809D01*
X49956547Y-105865000D01*
X50032738Y-105941190D01*
X50108928Y-106093571D01*
X50108928Y-106245952D01*
X50032738Y-106474523D01*
X49118452Y-107388809D01*
X50108928Y-107388809D01*
X41118452Y-109938809D02*
X41118452Y-108338809D01*
X41880357Y-109938809D02*
X41880357Y-108338809D01*
X42794642Y-109938809D01*
X42794642Y-108338809D01*
X43556547Y-109938809D02*
X43556547Y-108338809D01*
X44166071Y-108338809D01*
X44318452Y-108415000D01*
X44394642Y-108491190D01*
X44470833Y-108643571D01*
X44470833Y-108872142D01*
X44394642Y-109024523D01*
X44318452Y-109100714D01*
X44166071Y-109176904D01*
X43556547Y-109176904D01*
X45156547Y-108338809D02*
X45156547Y-109634047D01*
X45232738Y-109786428D01*
X45308928Y-109862619D01*
X45461309Y-109938809D01*
X45766071Y-109938809D01*
X45918452Y-109862619D01*
X45994642Y-109786428D01*
X46070833Y-109634047D01*
X46070833Y-108338809D01*
X46604166Y-108338809D02*
X47518452Y-108338809D01*
X47061309Y-109938809D02*
X47061309Y-108338809D01*
X49118452Y-108338809D02*
X50108928Y-108338809D01*
X49575595Y-108948333D01*
X49804166Y-108948333D01*
X49956547Y-109024523D01*
X50032738Y-109100714D01*
X50108928Y-109253095D01*
X50108928Y-109634047D01*
X50032738Y-109786428D01*
X49956547Y-109862619D01*
X49804166Y-109938809D01*
X49347023Y-109938809D01*
X49194642Y-109862619D01*
X49118452Y-109786428D01*
X41118452Y-112488809D02*
X41118452Y-110888809D01*
X41880357Y-112488809D02*
X41880357Y-110888809D01*
X42794642Y-112488809D01*
X42794642Y-110888809D01*
X43556547Y-112488809D02*
X43556547Y-110888809D01*
X44166071Y-110888809D01*
X44318452Y-110965000D01*
X44394642Y-111041190D01*
X44470833Y-111193571D01*
X44470833Y-111422142D01*
X44394642Y-111574523D01*
X44318452Y-111650714D01*
X44166071Y-111726904D01*
X43556547Y-111726904D01*
X45156547Y-110888809D02*
X45156547Y-112184047D01*
X45232738Y-112336428D01*
X45308928Y-112412619D01*
X45461309Y-112488809D01*
X45766071Y-112488809D01*
X45918452Y-112412619D01*
X45994642Y-112336428D01*
X46070833Y-112184047D01*
X46070833Y-110888809D01*
X46604166Y-110888809D02*
X47518452Y-110888809D01*
X47061309Y-112488809D02*
X47061309Y-110888809D01*
X49956547Y-111422142D02*
X49956547Y-112488809D01*
X49575595Y-110812619D02*
X49194642Y-111955476D01*
X50185119Y-111955476D01*
X41118452Y-115038809D02*
X41118452Y-113438809D01*
X41880357Y-115038809D02*
X41880357Y-113438809D01*
X42794642Y-115038809D01*
X42794642Y-113438809D01*
X43556547Y-115038809D02*
X43556547Y-113438809D01*
X44166071Y-113438809D01*
X44318452Y-113515000D01*
X44394642Y-113591190D01*
X44470833Y-113743571D01*
X44470833Y-113972142D01*
X44394642Y-114124523D01*
X44318452Y-114200714D01*
X44166071Y-114276904D01*
X43556547Y-114276904D01*
X45156547Y-113438809D02*
X45156547Y-114734047D01*
X45232738Y-114886428D01*
X45308928Y-114962619D01*
X45461309Y-115038809D01*
X45766071Y-115038809D01*
X45918452Y-114962619D01*
X45994642Y-114886428D01*
X46070833Y-114734047D01*
X46070833Y-113438809D01*
X46604166Y-113438809D02*
X47518452Y-113438809D01*
X47061309Y-115038809D02*
X47061309Y-113438809D01*
X50032738Y-113438809D02*
X49270833Y-113438809D01*
X49194642Y-114200714D01*
X49270833Y-114124523D01*
X49423214Y-114048333D01*
X49804166Y-114048333D01*
X49956547Y-114124523D01*
X50032738Y-114200714D01*
X50108928Y-114353095D01*
X50108928Y-114734047D01*
X50032738Y-114886428D01*
X49956547Y-114962619D01*
X49804166Y-115038809D01*
X49423214Y-115038809D01*
X49270833Y-114962619D01*
X49194642Y-114886428D01*
X41118452Y-117588809D02*
X41118452Y-115988809D01*
X41880357Y-117588809D02*
X41880357Y-115988809D01*
X42794642Y-117588809D01*
X42794642Y-115988809D01*
X43556547Y-117588809D02*
X43556547Y-115988809D01*
X44166071Y-115988809D01*
X44318452Y-116065000D01*
X44394642Y-116141190D01*
X44470833Y-116293571D01*
X44470833Y-116522142D01*
X44394642Y-116674523D01*
X44318452Y-116750714D01*
X44166071Y-116826904D01*
X43556547Y-116826904D01*
X45156547Y-115988809D02*
X45156547Y-117284047D01*
X45232738Y-117436428D01*
X45308928Y-117512619D01*
X45461309Y-117588809D01*
X45766071Y-117588809D01*
X45918452Y-117512619D01*
X45994642Y-117436428D01*
X46070833Y-117284047D01*
X46070833Y-115988809D01*
X46604166Y-115988809D02*
X47518452Y-115988809D01*
X47061309Y-117588809D02*
X47061309Y-115988809D01*
X49956547Y-115988809D02*
X49651785Y-115988809D01*
X49499404Y-116065000D01*
X49423214Y-116141190D01*
X49270833Y-116369761D01*
X49194642Y-116674523D01*
X49194642Y-117284047D01*
X49270833Y-117436428D01*
X49347023Y-117512619D01*
X49499404Y-117588809D01*
X49804166Y-117588809D01*
X49956547Y-117512619D01*
X50032738Y-117436428D01*
X50108928Y-117284047D01*
X50108928Y-116903095D01*
X50032738Y-116750714D01*
X49956547Y-116674523D01*
X49804166Y-116598333D01*
X49499404Y-116598333D01*
X49347023Y-116674523D01*
X49270833Y-116750714D01*
X49194642Y-116903095D01*
X41118452Y-120138809D02*
X41118452Y-118538809D01*
X41880357Y-120138809D02*
X41880357Y-118538809D01*
X42794642Y-120138809D01*
X42794642Y-118538809D01*
X43556547Y-120138809D02*
X43556547Y-118538809D01*
X44166071Y-118538809D01*
X44318452Y-118615000D01*
X44394642Y-118691190D01*
X44470833Y-118843571D01*
X44470833Y-119072142D01*
X44394642Y-119224523D01*
X44318452Y-119300714D01*
X44166071Y-119376904D01*
X43556547Y-119376904D01*
X45156547Y-118538809D02*
X45156547Y-119834047D01*
X45232738Y-119986428D01*
X45308928Y-120062619D01*
X45461309Y-120138809D01*
X45766071Y-120138809D01*
X45918452Y-120062619D01*
X45994642Y-119986428D01*
X46070833Y-119834047D01*
X46070833Y-118538809D01*
X46604166Y-118538809D02*
X47518452Y-118538809D01*
X47061309Y-120138809D02*
X47061309Y-118538809D01*
X49118452Y-118538809D02*
X50185119Y-118538809D01*
X49499404Y-120138809D01*
D11*
%TO.C,RV4*%
X52479000Y-79120000D02*
X52479000Y-75183000D01*
X52479000Y-70816000D02*
X52479000Y-66880000D01*
X62520000Y-79120000D02*
X62520000Y-75183000D01*
X62520000Y-70816000D02*
X62520000Y-66880000D01*
X52479000Y-79120000D02*
X54129000Y-79120000D01*
X55871000Y-79120000D02*
X56630000Y-79120000D01*
X58371000Y-79120000D02*
X59130000Y-79120000D01*
X60870000Y-79120000D02*
X62520000Y-79120000D01*
X52479000Y-66880000D02*
X62520000Y-66880000D01*
%TO.C,RV3*%
X37479000Y-79120000D02*
X37479000Y-75183000D01*
X37479000Y-70816000D02*
X37479000Y-66880000D01*
X47520000Y-79120000D02*
X47520000Y-75183000D01*
X47520000Y-70816000D02*
X47520000Y-66880000D01*
X37479000Y-79120000D02*
X39129000Y-79120000D01*
X40871000Y-79120000D02*
X41630000Y-79120000D01*
X43371000Y-79120000D02*
X44130000Y-79120000D01*
X45870000Y-79120000D02*
X47520000Y-79120000D01*
X37479000Y-66880000D02*
X47520000Y-66880000D01*
%TO.C,RV2*%
X52479000Y-58120000D02*
X52479000Y-54183000D01*
X52479000Y-49816000D02*
X52479000Y-45880000D01*
X62520000Y-58120000D02*
X62520000Y-54183000D01*
X62520000Y-49816000D02*
X62520000Y-45880000D01*
X52479000Y-58120000D02*
X54129000Y-58120000D01*
X55871000Y-58120000D02*
X56630000Y-58120000D01*
X58371000Y-58120000D02*
X59130000Y-58120000D01*
X60870000Y-58120000D02*
X62520000Y-58120000D01*
X52479000Y-45880000D02*
X62520000Y-45880000D01*
%TO.C,RV1*%
X37479000Y-58120000D02*
X37479000Y-54183000D01*
X37479000Y-49816000D02*
X37479000Y-45880000D01*
X47520000Y-58120000D02*
X47520000Y-54183000D01*
X47520000Y-49816000D02*
X47520000Y-45880000D01*
X37479000Y-58120000D02*
X39129000Y-58120000D01*
X40871000Y-58120000D02*
X41630000Y-58120000D01*
X43371000Y-58120000D02*
X44130000Y-58120000D01*
X45870000Y-58120000D02*
X47520000Y-58120000D01*
X37479000Y-45880000D02*
X47520000Y-45880000D01*
%TO.C,J3*%
X36770000Y-102870000D02*
X39430000Y-102870000D01*
X36770000Y-102870000D02*
X36770000Y-120710000D01*
X36770000Y-120710000D02*
X39430000Y-120710000D01*
X39430000Y-102870000D02*
X39430000Y-120710000D01*
X39430000Y-100270000D02*
X39430000Y-101600000D01*
X38100000Y-100270000D02*
X39430000Y-100270000D01*
%TO.C,J1*%
X36770000Y-125730000D02*
X39430000Y-125730000D01*
X36770000Y-125730000D02*
X36770000Y-143570000D01*
X36770000Y-143570000D02*
X39430000Y-143570000D01*
X39430000Y-125730000D02*
X39430000Y-143570000D01*
X39430000Y-123130000D02*
X39430000Y-124460000D01*
X38100000Y-123130000D02*
X39430000Y-123130000D01*
%TO.C,D4*%
X62770000Y-93000000D02*
G75*
G03*
X62770000Y-93000000I-2500000J0D01*
G01*
X57710000Y-91455000D02*
X57710000Y-94545000D01*
X63260000Y-92999538D02*
G75*
G02*
X57710000Y-94544830I-2990000J-462D01*
G01*
X63260000Y-93000462D02*
G75*
G03*
X57710000Y-91455170I-2990000J462D01*
G01*
%TO.C,D3*%
X55770000Y-93000000D02*
G75*
G03*
X55770000Y-93000000I-2500000J0D01*
G01*
X50710000Y-91455000D02*
X50710000Y-94545000D01*
X56260000Y-92999538D02*
G75*
G02*
X50710000Y-94544830I-2990000J-462D01*
G01*
X56260000Y-93000462D02*
G75*
G03*
X50710000Y-91455170I-2990000J462D01*
G01*
%TO.C,D2*%
X48770000Y-93000000D02*
G75*
G03*
X48770000Y-93000000I-2500000J0D01*
G01*
X43710000Y-91455000D02*
X43710000Y-94545000D01*
X49260000Y-92999538D02*
G75*
G02*
X43710000Y-94544830I-2990000J-462D01*
G01*
X49260000Y-93000462D02*
G75*
G03*
X43710000Y-91455170I-2990000J462D01*
G01*
%TO.C,D1*%
X41770000Y-93000000D02*
G75*
G03*
X41770000Y-93000000I-2500000J0D01*
G01*
X36710000Y-91455000D02*
X36710000Y-94545000D01*
X42260000Y-92999538D02*
G75*
G02*
X36710000Y-94544830I-2990000J-462D01*
G01*
X42260000Y-93000462D02*
G75*
G03*
X36710000Y-91455170I-2990000J462D01*
G01*
%TO.C,RV4*%
D10*
X52452380Y-77595238D02*
X51976190Y-77928571D01*
X52452380Y-78166666D02*
X51452380Y-78166666D01*
X51452380Y-77785714D01*
X51500000Y-77690476D01*
X51547619Y-77642857D01*
X51642857Y-77595238D01*
X51785714Y-77595238D01*
X51880952Y-77642857D01*
X51928571Y-77690476D01*
X51976190Y-77785714D01*
X51976190Y-78166666D01*
X51452380Y-77309523D02*
X52452380Y-76976190D01*
X51452380Y-76642857D01*
X51785714Y-75880952D02*
X52452380Y-75880952D01*
X51404761Y-76119047D02*
X52119047Y-76357142D01*
X52119047Y-75738095D01*
%TO.C,RV3*%
X37452380Y-77595238D02*
X36976190Y-77928571D01*
X37452380Y-78166666D02*
X36452380Y-78166666D01*
X36452380Y-77785714D01*
X36500000Y-77690476D01*
X36547619Y-77642857D01*
X36642857Y-77595238D01*
X36785714Y-77595238D01*
X36880952Y-77642857D01*
X36928571Y-77690476D01*
X36976190Y-77785714D01*
X36976190Y-78166666D01*
X36452380Y-77309523D02*
X37452380Y-76976190D01*
X36452380Y-76642857D01*
X36452380Y-76404761D02*
X36452380Y-75785714D01*
X36833333Y-76119047D01*
X36833333Y-75976190D01*
X36880952Y-75880952D01*
X36928571Y-75833333D01*
X37023809Y-75785714D01*
X37261904Y-75785714D01*
X37357142Y-75833333D01*
X37404761Y-75880952D01*
X37452380Y-75976190D01*
X37452380Y-76261904D01*
X37404761Y-76357142D01*
X37357142Y-76404761D01*
%TO.C,RV2*%
X52452380Y-56595238D02*
X51976190Y-56928571D01*
X52452380Y-57166666D02*
X51452380Y-57166666D01*
X51452380Y-56785714D01*
X51500000Y-56690476D01*
X51547619Y-56642857D01*
X51642857Y-56595238D01*
X51785714Y-56595238D01*
X51880952Y-56642857D01*
X51928571Y-56690476D01*
X51976190Y-56785714D01*
X51976190Y-57166666D01*
X51452380Y-56309523D02*
X52452380Y-55976190D01*
X51452380Y-55642857D01*
X51547619Y-55357142D02*
X51500000Y-55309523D01*
X51452380Y-55214285D01*
X51452380Y-54976190D01*
X51500000Y-54880952D01*
X51547619Y-54833333D01*
X51642857Y-54785714D01*
X51738095Y-54785714D01*
X51880952Y-54833333D01*
X52452380Y-55404761D01*
X52452380Y-54785714D01*
%TO.C,RV1*%
X37452380Y-56595238D02*
X36976190Y-56928571D01*
X37452380Y-57166666D02*
X36452380Y-57166666D01*
X36452380Y-56785714D01*
X36500000Y-56690476D01*
X36547619Y-56642857D01*
X36642857Y-56595238D01*
X36785714Y-56595238D01*
X36880952Y-56642857D01*
X36928571Y-56690476D01*
X36976190Y-56785714D01*
X36976190Y-57166666D01*
X36452380Y-56309523D02*
X37452380Y-55976190D01*
X36452380Y-55642857D01*
X37452380Y-54785714D02*
X37452380Y-55357142D01*
X37452380Y-55071428D02*
X36452380Y-55071428D01*
X36595238Y-55166666D01*
X36690476Y-55261904D01*
X36738095Y-55357142D01*
%TO.C,J3*%
X37766666Y-98282380D02*
X37766666Y-98996666D01*
X37719047Y-99139523D01*
X37623809Y-99234761D01*
X37480952Y-99282380D01*
X37385714Y-99282380D01*
X38147619Y-98282380D02*
X38766666Y-98282380D01*
X38433333Y-98663333D01*
X38576190Y-98663333D01*
X38671428Y-98710952D01*
X38719047Y-98758571D01*
X38766666Y-98853809D01*
X38766666Y-99091904D01*
X38719047Y-99187142D01*
X38671428Y-99234761D01*
X38576190Y-99282380D01*
X38290476Y-99282380D01*
X38195238Y-99234761D01*
X38147619Y-99187142D01*
%TO.C,J1*%
X37766666Y-121142380D02*
X37766666Y-121856666D01*
X37719047Y-121999523D01*
X37623809Y-122094761D01*
X37480952Y-122142380D01*
X37385714Y-122142380D01*
X38766666Y-122142380D02*
X38195238Y-122142380D01*
X38480952Y-122142380D02*
X38480952Y-121142380D01*
X38385714Y-121285238D01*
X38290476Y-121380476D01*
X38195238Y-121428095D01*
%TO.C,H2*%
X60238095Y-137252380D02*
X60238095Y-136252380D01*
X60238095Y-136728571D02*
X60809523Y-136728571D01*
X60809523Y-137252380D02*
X60809523Y-136252380D01*
X61238095Y-136347619D02*
X61285714Y-136300000D01*
X61380952Y-136252380D01*
X61619047Y-136252380D01*
X61714285Y-136300000D01*
X61761904Y-136347619D01*
X61809523Y-136442857D01*
X61809523Y-136538095D01*
X61761904Y-136680952D01*
X61190476Y-137252380D01*
X61809523Y-137252380D01*
%TO.C,H1*%
X49238095Y-59252380D02*
X49238095Y-58252380D01*
X49238095Y-58728571D02*
X49809523Y-58728571D01*
X49809523Y-59252380D02*
X49809523Y-58252380D01*
X50809523Y-59252380D02*
X50238095Y-59252380D01*
X50523809Y-59252380D02*
X50523809Y-58252380D01*
X50428571Y-58395238D01*
X50333333Y-58490476D01*
X50238095Y-58538095D01*
%TO.C,D4*%
X59531904Y-89492380D02*
X59531904Y-88492380D01*
X59770000Y-88492380D01*
X59912857Y-88540000D01*
X60008095Y-88635238D01*
X60055714Y-88730476D01*
X60103333Y-88920952D01*
X60103333Y-89063809D01*
X60055714Y-89254285D01*
X60008095Y-89349523D01*
X59912857Y-89444761D01*
X59770000Y-89492380D01*
X59531904Y-89492380D01*
X60960476Y-88825714D02*
X60960476Y-89492380D01*
X60722380Y-88444761D02*
X60484285Y-89159047D01*
X61103333Y-89159047D01*
%TO.C,D3*%
X52531904Y-89492380D02*
X52531904Y-88492380D01*
X52770000Y-88492380D01*
X52912857Y-88540000D01*
X53008095Y-88635238D01*
X53055714Y-88730476D01*
X53103333Y-88920952D01*
X53103333Y-89063809D01*
X53055714Y-89254285D01*
X53008095Y-89349523D01*
X52912857Y-89444761D01*
X52770000Y-89492380D01*
X52531904Y-89492380D01*
X53436666Y-88492380D02*
X54055714Y-88492380D01*
X53722380Y-88873333D01*
X53865238Y-88873333D01*
X53960476Y-88920952D01*
X54008095Y-88968571D01*
X54055714Y-89063809D01*
X54055714Y-89301904D01*
X54008095Y-89397142D01*
X53960476Y-89444761D01*
X53865238Y-89492380D01*
X53579523Y-89492380D01*
X53484285Y-89444761D01*
X53436666Y-89397142D01*
%TO.C,D2*%
X45531904Y-89492380D02*
X45531904Y-88492380D01*
X45770000Y-88492380D01*
X45912857Y-88540000D01*
X46008095Y-88635238D01*
X46055714Y-88730476D01*
X46103333Y-88920952D01*
X46103333Y-89063809D01*
X46055714Y-89254285D01*
X46008095Y-89349523D01*
X45912857Y-89444761D01*
X45770000Y-89492380D01*
X45531904Y-89492380D01*
X46484285Y-88587619D02*
X46531904Y-88540000D01*
X46627142Y-88492380D01*
X46865238Y-88492380D01*
X46960476Y-88540000D01*
X47008095Y-88587619D01*
X47055714Y-88682857D01*
X47055714Y-88778095D01*
X47008095Y-88920952D01*
X46436666Y-89492380D01*
X47055714Y-89492380D01*
%TO.C,D1*%
X38531904Y-89492380D02*
X38531904Y-88492380D01*
X38770000Y-88492380D01*
X38912857Y-88540000D01*
X39008095Y-88635238D01*
X39055714Y-88730476D01*
X39103333Y-88920952D01*
X39103333Y-89063809D01*
X39055714Y-89254285D01*
X39008095Y-89349523D01*
X38912857Y-89444761D01*
X38770000Y-89492380D01*
X38531904Y-89492380D01*
X40055714Y-89492380D02*
X39484285Y-89492380D01*
X39770000Y-89492380D02*
X39770000Y-88492380D01*
X39674761Y-88635238D01*
X39579523Y-88730476D01*
X39484285Y-88778095D01*
%TD*%
M02*
