%TF.GenerationSoftware,KiCad,Pcbnew,(5.1.6)-1*%
%TF.CreationDate,2021-02-15T17:49:45+00:00*%
%TF.ProjectId,p3module,70336d6f-6475-46c6-952e-6b696361645f,rev?*%
%TF.SameCoordinates,Original*%
%TF.FileFunction,Soldermask,Bot*%
%TF.FilePolarity,Negative*%
%FSLAX46Y46*%
G04 Gerber Fmt 4.6, Leading zero omitted, Abs format (unit mm)*
G04 Created by KiCad (PCBNEW (5.1.6)-1) date 2021-02-15 17:49:45*
%MOMM*%
%LPD*%
G01*
G04 APERTURE LIST*
%ADD10O,1.800000X1.800000*%
%ADD11R,1.800000X1.800000*%
%ADD12C,4.100000*%
%ADD13C,1.900000*%
%ADD14C,3.300000*%
%ADD15R,1.900000X1.900000*%
G04 APERTURE END LIST*
D10*
%TO.C,J2*%
X62540000Y-103140000D03*
X60000000Y-103140000D03*
X62540000Y-105680000D03*
X60000000Y-105680000D03*
X62540000Y-108220000D03*
X60000000Y-108220000D03*
X62540000Y-110760000D03*
X60000000Y-110760000D03*
X62540000Y-113300000D03*
X60000000Y-113300000D03*
X62540000Y-115840000D03*
X60000000Y-115840000D03*
X62540000Y-118380000D03*
X60000000Y-118380000D03*
X62540000Y-120920000D03*
X60000000Y-120920000D03*
X62540000Y-123460000D03*
X60000000Y-123460000D03*
X62540000Y-126000000D03*
D11*
X60000000Y-126000000D03*
%TD*%
%TO.C,U4*%
G36*
G01*
X52380000Y-87450000D02*
X52730000Y-87450000D01*
G75*
G02*
X52905000Y-87625000I0J-175000D01*
G01*
X52905000Y-89325000D01*
G75*
G02*
X52730000Y-89500000I-175000J0D01*
G01*
X52380000Y-89500000D01*
G75*
G02*
X52205000Y-89325000I0J175000D01*
G01*
X52205000Y-87625000D01*
G75*
G02*
X52380000Y-87450000I175000J0D01*
G01*
G37*
G36*
G01*
X53650000Y-87450000D02*
X54000000Y-87450000D01*
G75*
G02*
X54175000Y-87625000I0J-175000D01*
G01*
X54175000Y-89325000D01*
G75*
G02*
X54000000Y-89500000I-175000J0D01*
G01*
X53650000Y-89500000D01*
G75*
G02*
X53475000Y-89325000I0J175000D01*
G01*
X53475000Y-87625000D01*
G75*
G02*
X53650000Y-87450000I175000J0D01*
G01*
G37*
G36*
G01*
X54920000Y-87450000D02*
X55270000Y-87450000D01*
G75*
G02*
X55445000Y-87625000I0J-175000D01*
G01*
X55445000Y-89325000D01*
G75*
G02*
X55270000Y-89500000I-175000J0D01*
G01*
X54920000Y-89500000D01*
G75*
G02*
X54745000Y-89325000I0J175000D01*
G01*
X54745000Y-87625000D01*
G75*
G02*
X54920000Y-87450000I175000J0D01*
G01*
G37*
G36*
G01*
X56190000Y-87450000D02*
X56540000Y-87450000D01*
G75*
G02*
X56715000Y-87625000I0J-175000D01*
G01*
X56715000Y-89325000D01*
G75*
G02*
X56540000Y-89500000I-175000J0D01*
G01*
X56190000Y-89500000D01*
G75*
G02*
X56015000Y-89325000I0J175000D01*
G01*
X56015000Y-87625000D01*
G75*
G02*
X56190000Y-87450000I175000J0D01*
G01*
G37*
G36*
G01*
X57460000Y-87450000D02*
X57810000Y-87450000D01*
G75*
G02*
X57985000Y-87625000I0J-175000D01*
G01*
X57985000Y-89325000D01*
G75*
G02*
X57810000Y-89500000I-175000J0D01*
G01*
X57460000Y-89500000D01*
G75*
G02*
X57285000Y-89325000I0J175000D01*
G01*
X57285000Y-87625000D01*
G75*
G02*
X57460000Y-87450000I175000J0D01*
G01*
G37*
G36*
G01*
X58730000Y-87450000D02*
X59080000Y-87450000D01*
G75*
G02*
X59255000Y-87625000I0J-175000D01*
G01*
X59255000Y-89325000D01*
G75*
G02*
X59080000Y-89500000I-175000J0D01*
G01*
X58730000Y-89500000D01*
G75*
G02*
X58555000Y-89325000I0J175000D01*
G01*
X58555000Y-87625000D01*
G75*
G02*
X58730000Y-87450000I175000J0D01*
G01*
G37*
G36*
G01*
X60000000Y-87450000D02*
X60350000Y-87450000D01*
G75*
G02*
X60525000Y-87625000I0J-175000D01*
G01*
X60525000Y-89325000D01*
G75*
G02*
X60350000Y-89500000I-175000J0D01*
G01*
X60000000Y-89500000D01*
G75*
G02*
X59825000Y-89325000I0J175000D01*
G01*
X59825000Y-87625000D01*
G75*
G02*
X60000000Y-87450000I175000J0D01*
G01*
G37*
G36*
G01*
X61270000Y-87450000D02*
X61620000Y-87450000D01*
G75*
G02*
X61795000Y-87625000I0J-175000D01*
G01*
X61795000Y-89325000D01*
G75*
G02*
X61620000Y-89500000I-175000J0D01*
G01*
X61270000Y-89500000D01*
G75*
G02*
X61095000Y-89325000I0J175000D01*
G01*
X61095000Y-87625000D01*
G75*
G02*
X61270000Y-87450000I175000J0D01*
G01*
G37*
G36*
G01*
X61270000Y-82500000D02*
X61620000Y-82500000D01*
G75*
G02*
X61795000Y-82675000I0J-175000D01*
G01*
X61795000Y-84375000D01*
G75*
G02*
X61620000Y-84550000I-175000J0D01*
G01*
X61270000Y-84550000D01*
G75*
G02*
X61095000Y-84375000I0J175000D01*
G01*
X61095000Y-82675000D01*
G75*
G02*
X61270000Y-82500000I175000J0D01*
G01*
G37*
G36*
G01*
X60000000Y-82500000D02*
X60350000Y-82500000D01*
G75*
G02*
X60525000Y-82675000I0J-175000D01*
G01*
X60525000Y-84375000D01*
G75*
G02*
X60350000Y-84550000I-175000J0D01*
G01*
X60000000Y-84550000D01*
G75*
G02*
X59825000Y-84375000I0J175000D01*
G01*
X59825000Y-82675000D01*
G75*
G02*
X60000000Y-82500000I175000J0D01*
G01*
G37*
G36*
G01*
X58730000Y-82500000D02*
X59080000Y-82500000D01*
G75*
G02*
X59255000Y-82675000I0J-175000D01*
G01*
X59255000Y-84375000D01*
G75*
G02*
X59080000Y-84550000I-175000J0D01*
G01*
X58730000Y-84550000D01*
G75*
G02*
X58555000Y-84375000I0J175000D01*
G01*
X58555000Y-82675000D01*
G75*
G02*
X58730000Y-82500000I175000J0D01*
G01*
G37*
G36*
G01*
X57460000Y-82500000D02*
X57810000Y-82500000D01*
G75*
G02*
X57985000Y-82675000I0J-175000D01*
G01*
X57985000Y-84375000D01*
G75*
G02*
X57810000Y-84550000I-175000J0D01*
G01*
X57460000Y-84550000D01*
G75*
G02*
X57285000Y-84375000I0J175000D01*
G01*
X57285000Y-82675000D01*
G75*
G02*
X57460000Y-82500000I175000J0D01*
G01*
G37*
G36*
G01*
X56190000Y-82500000D02*
X56540000Y-82500000D01*
G75*
G02*
X56715000Y-82675000I0J-175000D01*
G01*
X56715000Y-84375000D01*
G75*
G02*
X56540000Y-84550000I-175000J0D01*
G01*
X56190000Y-84550000D01*
G75*
G02*
X56015000Y-84375000I0J175000D01*
G01*
X56015000Y-82675000D01*
G75*
G02*
X56190000Y-82500000I175000J0D01*
G01*
G37*
G36*
G01*
X54920000Y-82500000D02*
X55270000Y-82500000D01*
G75*
G02*
X55445000Y-82675000I0J-175000D01*
G01*
X55445000Y-84375000D01*
G75*
G02*
X55270000Y-84550000I-175000J0D01*
G01*
X54920000Y-84550000D01*
G75*
G02*
X54745000Y-84375000I0J175000D01*
G01*
X54745000Y-82675000D01*
G75*
G02*
X54920000Y-82500000I175000J0D01*
G01*
G37*
G36*
G01*
X53650000Y-82500000D02*
X54000000Y-82500000D01*
G75*
G02*
X54175000Y-82675000I0J-175000D01*
G01*
X54175000Y-84375000D01*
G75*
G02*
X54000000Y-84550000I-175000J0D01*
G01*
X53650000Y-84550000D01*
G75*
G02*
X53475000Y-84375000I0J175000D01*
G01*
X53475000Y-82675000D01*
G75*
G02*
X53650000Y-82500000I175000J0D01*
G01*
G37*
G36*
G01*
X52380000Y-82500000D02*
X52730000Y-82500000D01*
G75*
G02*
X52905000Y-82675000I0J-175000D01*
G01*
X52905000Y-84375000D01*
G75*
G02*
X52730000Y-84550000I-175000J0D01*
G01*
X52380000Y-84550000D01*
G75*
G02*
X52205000Y-84375000I0J175000D01*
G01*
X52205000Y-82675000D01*
G75*
G02*
X52380000Y-82500000I175000J0D01*
G01*
G37*
%TD*%
%TO.C,U3*%
G36*
G01*
X38380000Y-87450000D02*
X38730000Y-87450000D01*
G75*
G02*
X38905000Y-87625000I0J-175000D01*
G01*
X38905000Y-89325000D01*
G75*
G02*
X38730000Y-89500000I-175000J0D01*
G01*
X38380000Y-89500000D01*
G75*
G02*
X38205000Y-89325000I0J175000D01*
G01*
X38205000Y-87625000D01*
G75*
G02*
X38380000Y-87450000I175000J0D01*
G01*
G37*
G36*
G01*
X39650000Y-87450000D02*
X40000000Y-87450000D01*
G75*
G02*
X40175000Y-87625000I0J-175000D01*
G01*
X40175000Y-89325000D01*
G75*
G02*
X40000000Y-89500000I-175000J0D01*
G01*
X39650000Y-89500000D01*
G75*
G02*
X39475000Y-89325000I0J175000D01*
G01*
X39475000Y-87625000D01*
G75*
G02*
X39650000Y-87450000I175000J0D01*
G01*
G37*
G36*
G01*
X40920000Y-87450000D02*
X41270000Y-87450000D01*
G75*
G02*
X41445000Y-87625000I0J-175000D01*
G01*
X41445000Y-89325000D01*
G75*
G02*
X41270000Y-89500000I-175000J0D01*
G01*
X40920000Y-89500000D01*
G75*
G02*
X40745000Y-89325000I0J175000D01*
G01*
X40745000Y-87625000D01*
G75*
G02*
X40920000Y-87450000I175000J0D01*
G01*
G37*
G36*
G01*
X42190000Y-87450000D02*
X42540000Y-87450000D01*
G75*
G02*
X42715000Y-87625000I0J-175000D01*
G01*
X42715000Y-89325000D01*
G75*
G02*
X42540000Y-89500000I-175000J0D01*
G01*
X42190000Y-89500000D01*
G75*
G02*
X42015000Y-89325000I0J175000D01*
G01*
X42015000Y-87625000D01*
G75*
G02*
X42190000Y-87450000I175000J0D01*
G01*
G37*
G36*
G01*
X43460000Y-87450000D02*
X43810000Y-87450000D01*
G75*
G02*
X43985000Y-87625000I0J-175000D01*
G01*
X43985000Y-89325000D01*
G75*
G02*
X43810000Y-89500000I-175000J0D01*
G01*
X43460000Y-89500000D01*
G75*
G02*
X43285000Y-89325000I0J175000D01*
G01*
X43285000Y-87625000D01*
G75*
G02*
X43460000Y-87450000I175000J0D01*
G01*
G37*
G36*
G01*
X44730000Y-87450000D02*
X45080000Y-87450000D01*
G75*
G02*
X45255000Y-87625000I0J-175000D01*
G01*
X45255000Y-89325000D01*
G75*
G02*
X45080000Y-89500000I-175000J0D01*
G01*
X44730000Y-89500000D01*
G75*
G02*
X44555000Y-89325000I0J175000D01*
G01*
X44555000Y-87625000D01*
G75*
G02*
X44730000Y-87450000I175000J0D01*
G01*
G37*
G36*
G01*
X46000000Y-87450000D02*
X46350000Y-87450000D01*
G75*
G02*
X46525000Y-87625000I0J-175000D01*
G01*
X46525000Y-89325000D01*
G75*
G02*
X46350000Y-89500000I-175000J0D01*
G01*
X46000000Y-89500000D01*
G75*
G02*
X45825000Y-89325000I0J175000D01*
G01*
X45825000Y-87625000D01*
G75*
G02*
X46000000Y-87450000I175000J0D01*
G01*
G37*
G36*
G01*
X47270000Y-87450000D02*
X47620000Y-87450000D01*
G75*
G02*
X47795000Y-87625000I0J-175000D01*
G01*
X47795000Y-89325000D01*
G75*
G02*
X47620000Y-89500000I-175000J0D01*
G01*
X47270000Y-89500000D01*
G75*
G02*
X47095000Y-89325000I0J175000D01*
G01*
X47095000Y-87625000D01*
G75*
G02*
X47270000Y-87450000I175000J0D01*
G01*
G37*
G36*
G01*
X47270000Y-82500000D02*
X47620000Y-82500000D01*
G75*
G02*
X47795000Y-82675000I0J-175000D01*
G01*
X47795000Y-84375000D01*
G75*
G02*
X47620000Y-84550000I-175000J0D01*
G01*
X47270000Y-84550000D01*
G75*
G02*
X47095000Y-84375000I0J175000D01*
G01*
X47095000Y-82675000D01*
G75*
G02*
X47270000Y-82500000I175000J0D01*
G01*
G37*
G36*
G01*
X46000000Y-82500000D02*
X46350000Y-82500000D01*
G75*
G02*
X46525000Y-82675000I0J-175000D01*
G01*
X46525000Y-84375000D01*
G75*
G02*
X46350000Y-84550000I-175000J0D01*
G01*
X46000000Y-84550000D01*
G75*
G02*
X45825000Y-84375000I0J175000D01*
G01*
X45825000Y-82675000D01*
G75*
G02*
X46000000Y-82500000I175000J0D01*
G01*
G37*
G36*
G01*
X44730000Y-82500000D02*
X45080000Y-82500000D01*
G75*
G02*
X45255000Y-82675000I0J-175000D01*
G01*
X45255000Y-84375000D01*
G75*
G02*
X45080000Y-84550000I-175000J0D01*
G01*
X44730000Y-84550000D01*
G75*
G02*
X44555000Y-84375000I0J175000D01*
G01*
X44555000Y-82675000D01*
G75*
G02*
X44730000Y-82500000I175000J0D01*
G01*
G37*
G36*
G01*
X43460000Y-82500000D02*
X43810000Y-82500000D01*
G75*
G02*
X43985000Y-82675000I0J-175000D01*
G01*
X43985000Y-84375000D01*
G75*
G02*
X43810000Y-84550000I-175000J0D01*
G01*
X43460000Y-84550000D01*
G75*
G02*
X43285000Y-84375000I0J175000D01*
G01*
X43285000Y-82675000D01*
G75*
G02*
X43460000Y-82500000I175000J0D01*
G01*
G37*
G36*
G01*
X42190000Y-82500000D02*
X42540000Y-82500000D01*
G75*
G02*
X42715000Y-82675000I0J-175000D01*
G01*
X42715000Y-84375000D01*
G75*
G02*
X42540000Y-84550000I-175000J0D01*
G01*
X42190000Y-84550000D01*
G75*
G02*
X42015000Y-84375000I0J175000D01*
G01*
X42015000Y-82675000D01*
G75*
G02*
X42190000Y-82500000I175000J0D01*
G01*
G37*
G36*
G01*
X40920000Y-82500000D02*
X41270000Y-82500000D01*
G75*
G02*
X41445000Y-82675000I0J-175000D01*
G01*
X41445000Y-84375000D01*
G75*
G02*
X41270000Y-84550000I-175000J0D01*
G01*
X40920000Y-84550000D01*
G75*
G02*
X40745000Y-84375000I0J175000D01*
G01*
X40745000Y-82675000D01*
G75*
G02*
X40920000Y-82500000I175000J0D01*
G01*
G37*
G36*
G01*
X39650000Y-82500000D02*
X40000000Y-82500000D01*
G75*
G02*
X40175000Y-82675000I0J-175000D01*
G01*
X40175000Y-84375000D01*
G75*
G02*
X40000000Y-84550000I-175000J0D01*
G01*
X39650000Y-84550000D01*
G75*
G02*
X39475000Y-84375000I0J175000D01*
G01*
X39475000Y-82675000D01*
G75*
G02*
X39650000Y-82500000I175000J0D01*
G01*
G37*
G36*
G01*
X38380000Y-82500000D02*
X38730000Y-82500000D01*
G75*
G02*
X38905000Y-82675000I0J-175000D01*
G01*
X38905000Y-84375000D01*
G75*
G02*
X38730000Y-84550000I-175000J0D01*
G01*
X38380000Y-84550000D01*
G75*
G02*
X38205000Y-84375000I0J175000D01*
G01*
X38205000Y-82675000D01*
G75*
G02*
X38380000Y-82500000I175000J0D01*
G01*
G37*
%TD*%
%TO.C,U2*%
G36*
G01*
X55620000Y-108550000D02*
X55270000Y-108550000D01*
G75*
G02*
X55095000Y-108375000I0J175000D01*
G01*
X55095000Y-106675000D01*
G75*
G02*
X55270000Y-106500000I175000J0D01*
G01*
X55620000Y-106500000D01*
G75*
G02*
X55795000Y-106675000I0J-175000D01*
G01*
X55795000Y-108375000D01*
G75*
G02*
X55620000Y-108550000I-175000J0D01*
G01*
G37*
G36*
G01*
X54350000Y-108550000D02*
X54000000Y-108550000D01*
G75*
G02*
X53825000Y-108375000I0J175000D01*
G01*
X53825000Y-106675000D01*
G75*
G02*
X54000000Y-106500000I175000J0D01*
G01*
X54350000Y-106500000D01*
G75*
G02*
X54525000Y-106675000I0J-175000D01*
G01*
X54525000Y-108375000D01*
G75*
G02*
X54350000Y-108550000I-175000J0D01*
G01*
G37*
G36*
G01*
X53080000Y-108550000D02*
X52730000Y-108550000D01*
G75*
G02*
X52555000Y-108375000I0J175000D01*
G01*
X52555000Y-106675000D01*
G75*
G02*
X52730000Y-106500000I175000J0D01*
G01*
X53080000Y-106500000D01*
G75*
G02*
X53255000Y-106675000I0J-175000D01*
G01*
X53255000Y-108375000D01*
G75*
G02*
X53080000Y-108550000I-175000J0D01*
G01*
G37*
G36*
G01*
X51810000Y-108550000D02*
X51460000Y-108550000D01*
G75*
G02*
X51285000Y-108375000I0J175000D01*
G01*
X51285000Y-106675000D01*
G75*
G02*
X51460000Y-106500000I175000J0D01*
G01*
X51810000Y-106500000D01*
G75*
G02*
X51985000Y-106675000I0J-175000D01*
G01*
X51985000Y-108375000D01*
G75*
G02*
X51810000Y-108550000I-175000J0D01*
G01*
G37*
G36*
G01*
X50540000Y-108550000D02*
X50190000Y-108550000D01*
G75*
G02*
X50015000Y-108375000I0J175000D01*
G01*
X50015000Y-106675000D01*
G75*
G02*
X50190000Y-106500000I175000J0D01*
G01*
X50540000Y-106500000D01*
G75*
G02*
X50715000Y-106675000I0J-175000D01*
G01*
X50715000Y-108375000D01*
G75*
G02*
X50540000Y-108550000I-175000J0D01*
G01*
G37*
G36*
G01*
X49270000Y-108550000D02*
X48920000Y-108550000D01*
G75*
G02*
X48745000Y-108375000I0J175000D01*
G01*
X48745000Y-106675000D01*
G75*
G02*
X48920000Y-106500000I175000J0D01*
G01*
X49270000Y-106500000D01*
G75*
G02*
X49445000Y-106675000I0J-175000D01*
G01*
X49445000Y-108375000D01*
G75*
G02*
X49270000Y-108550000I-175000J0D01*
G01*
G37*
G36*
G01*
X48000000Y-108550000D02*
X47650000Y-108550000D01*
G75*
G02*
X47475000Y-108375000I0J175000D01*
G01*
X47475000Y-106675000D01*
G75*
G02*
X47650000Y-106500000I175000J0D01*
G01*
X48000000Y-106500000D01*
G75*
G02*
X48175000Y-106675000I0J-175000D01*
G01*
X48175000Y-108375000D01*
G75*
G02*
X48000000Y-108550000I-175000J0D01*
G01*
G37*
G36*
G01*
X46730000Y-108550000D02*
X46380000Y-108550000D01*
G75*
G02*
X46205000Y-108375000I0J175000D01*
G01*
X46205000Y-106675000D01*
G75*
G02*
X46380000Y-106500000I175000J0D01*
G01*
X46730000Y-106500000D01*
G75*
G02*
X46905000Y-106675000I0J-175000D01*
G01*
X46905000Y-108375000D01*
G75*
G02*
X46730000Y-108550000I-175000J0D01*
G01*
G37*
G36*
G01*
X46730000Y-113500000D02*
X46380000Y-113500000D01*
G75*
G02*
X46205000Y-113325000I0J175000D01*
G01*
X46205000Y-111625000D01*
G75*
G02*
X46380000Y-111450000I175000J0D01*
G01*
X46730000Y-111450000D01*
G75*
G02*
X46905000Y-111625000I0J-175000D01*
G01*
X46905000Y-113325000D01*
G75*
G02*
X46730000Y-113500000I-175000J0D01*
G01*
G37*
G36*
G01*
X48000000Y-113500000D02*
X47650000Y-113500000D01*
G75*
G02*
X47475000Y-113325000I0J175000D01*
G01*
X47475000Y-111625000D01*
G75*
G02*
X47650000Y-111450000I175000J0D01*
G01*
X48000000Y-111450000D01*
G75*
G02*
X48175000Y-111625000I0J-175000D01*
G01*
X48175000Y-113325000D01*
G75*
G02*
X48000000Y-113500000I-175000J0D01*
G01*
G37*
G36*
G01*
X49270000Y-113500000D02*
X48920000Y-113500000D01*
G75*
G02*
X48745000Y-113325000I0J175000D01*
G01*
X48745000Y-111625000D01*
G75*
G02*
X48920000Y-111450000I175000J0D01*
G01*
X49270000Y-111450000D01*
G75*
G02*
X49445000Y-111625000I0J-175000D01*
G01*
X49445000Y-113325000D01*
G75*
G02*
X49270000Y-113500000I-175000J0D01*
G01*
G37*
G36*
G01*
X50540000Y-113500000D02*
X50190000Y-113500000D01*
G75*
G02*
X50015000Y-113325000I0J175000D01*
G01*
X50015000Y-111625000D01*
G75*
G02*
X50190000Y-111450000I175000J0D01*
G01*
X50540000Y-111450000D01*
G75*
G02*
X50715000Y-111625000I0J-175000D01*
G01*
X50715000Y-113325000D01*
G75*
G02*
X50540000Y-113500000I-175000J0D01*
G01*
G37*
G36*
G01*
X51810000Y-113500000D02*
X51460000Y-113500000D01*
G75*
G02*
X51285000Y-113325000I0J175000D01*
G01*
X51285000Y-111625000D01*
G75*
G02*
X51460000Y-111450000I175000J0D01*
G01*
X51810000Y-111450000D01*
G75*
G02*
X51985000Y-111625000I0J-175000D01*
G01*
X51985000Y-113325000D01*
G75*
G02*
X51810000Y-113500000I-175000J0D01*
G01*
G37*
G36*
G01*
X53080000Y-113500000D02*
X52730000Y-113500000D01*
G75*
G02*
X52555000Y-113325000I0J175000D01*
G01*
X52555000Y-111625000D01*
G75*
G02*
X52730000Y-111450000I175000J0D01*
G01*
X53080000Y-111450000D01*
G75*
G02*
X53255000Y-111625000I0J-175000D01*
G01*
X53255000Y-113325000D01*
G75*
G02*
X53080000Y-113500000I-175000J0D01*
G01*
G37*
G36*
G01*
X54350000Y-113500000D02*
X54000000Y-113500000D01*
G75*
G02*
X53825000Y-113325000I0J175000D01*
G01*
X53825000Y-111625000D01*
G75*
G02*
X54000000Y-111450000I175000J0D01*
G01*
X54350000Y-111450000D01*
G75*
G02*
X54525000Y-111625000I0J-175000D01*
G01*
X54525000Y-113325000D01*
G75*
G02*
X54350000Y-113500000I-175000J0D01*
G01*
G37*
G36*
G01*
X55620000Y-113500000D02*
X55270000Y-113500000D01*
G75*
G02*
X55095000Y-113325000I0J175000D01*
G01*
X55095000Y-111625000D01*
G75*
G02*
X55270000Y-111450000I175000J0D01*
G01*
X55620000Y-111450000D01*
G75*
G02*
X55795000Y-111625000I0J-175000D01*
G01*
X55795000Y-113325000D01*
G75*
G02*
X55620000Y-113500000I-175000J0D01*
G01*
G37*
%TD*%
%TO.C,U1*%
G36*
G01*
X55620000Y-132550000D02*
X55270000Y-132550000D01*
G75*
G02*
X55095000Y-132375000I0J175000D01*
G01*
X55095000Y-130675000D01*
G75*
G02*
X55270000Y-130500000I175000J0D01*
G01*
X55620000Y-130500000D01*
G75*
G02*
X55795000Y-130675000I0J-175000D01*
G01*
X55795000Y-132375000D01*
G75*
G02*
X55620000Y-132550000I-175000J0D01*
G01*
G37*
G36*
G01*
X54350000Y-132550000D02*
X54000000Y-132550000D01*
G75*
G02*
X53825000Y-132375000I0J175000D01*
G01*
X53825000Y-130675000D01*
G75*
G02*
X54000000Y-130500000I175000J0D01*
G01*
X54350000Y-130500000D01*
G75*
G02*
X54525000Y-130675000I0J-175000D01*
G01*
X54525000Y-132375000D01*
G75*
G02*
X54350000Y-132550000I-175000J0D01*
G01*
G37*
G36*
G01*
X53080000Y-132550000D02*
X52730000Y-132550000D01*
G75*
G02*
X52555000Y-132375000I0J175000D01*
G01*
X52555000Y-130675000D01*
G75*
G02*
X52730000Y-130500000I175000J0D01*
G01*
X53080000Y-130500000D01*
G75*
G02*
X53255000Y-130675000I0J-175000D01*
G01*
X53255000Y-132375000D01*
G75*
G02*
X53080000Y-132550000I-175000J0D01*
G01*
G37*
G36*
G01*
X51810000Y-132550000D02*
X51460000Y-132550000D01*
G75*
G02*
X51285000Y-132375000I0J175000D01*
G01*
X51285000Y-130675000D01*
G75*
G02*
X51460000Y-130500000I175000J0D01*
G01*
X51810000Y-130500000D01*
G75*
G02*
X51985000Y-130675000I0J-175000D01*
G01*
X51985000Y-132375000D01*
G75*
G02*
X51810000Y-132550000I-175000J0D01*
G01*
G37*
G36*
G01*
X50540000Y-132550000D02*
X50190000Y-132550000D01*
G75*
G02*
X50015000Y-132375000I0J175000D01*
G01*
X50015000Y-130675000D01*
G75*
G02*
X50190000Y-130500000I175000J0D01*
G01*
X50540000Y-130500000D01*
G75*
G02*
X50715000Y-130675000I0J-175000D01*
G01*
X50715000Y-132375000D01*
G75*
G02*
X50540000Y-132550000I-175000J0D01*
G01*
G37*
G36*
G01*
X49270000Y-132550000D02*
X48920000Y-132550000D01*
G75*
G02*
X48745000Y-132375000I0J175000D01*
G01*
X48745000Y-130675000D01*
G75*
G02*
X48920000Y-130500000I175000J0D01*
G01*
X49270000Y-130500000D01*
G75*
G02*
X49445000Y-130675000I0J-175000D01*
G01*
X49445000Y-132375000D01*
G75*
G02*
X49270000Y-132550000I-175000J0D01*
G01*
G37*
G36*
G01*
X48000000Y-132550000D02*
X47650000Y-132550000D01*
G75*
G02*
X47475000Y-132375000I0J175000D01*
G01*
X47475000Y-130675000D01*
G75*
G02*
X47650000Y-130500000I175000J0D01*
G01*
X48000000Y-130500000D01*
G75*
G02*
X48175000Y-130675000I0J-175000D01*
G01*
X48175000Y-132375000D01*
G75*
G02*
X48000000Y-132550000I-175000J0D01*
G01*
G37*
G36*
G01*
X46730000Y-132550000D02*
X46380000Y-132550000D01*
G75*
G02*
X46205000Y-132375000I0J175000D01*
G01*
X46205000Y-130675000D01*
G75*
G02*
X46380000Y-130500000I175000J0D01*
G01*
X46730000Y-130500000D01*
G75*
G02*
X46905000Y-130675000I0J-175000D01*
G01*
X46905000Y-132375000D01*
G75*
G02*
X46730000Y-132550000I-175000J0D01*
G01*
G37*
G36*
G01*
X46730000Y-137500000D02*
X46380000Y-137500000D01*
G75*
G02*
X46205000Y-137325000I0J175000D01*
G01*
X46205000Y-135625000D01*
G75*
G02*
X46380000Y-135450000I175000J0D01*
G01*
X46730000Y-135450000D01*
G75*
G02*
X46905000Y-135625000I0J-175000D01*
G01*
X46905000Y-137325000D01*
G75*
G02*
X46730000Y-137500000I-175000J0D01*
G01*
G37*
G36*
G01*
X48000000Y-137500000D02*
X47650000Y-137500000D01*
G75*
G02*
X47475000Y-137325000I0J175000D01*
G01*
X47475000Y-135625000D01*
G75*
G02*
X47650000Y-135450000I175000J0D01*
G01*
X48000000Y-135450000D01*
G75*
G02*
X48175000Y-135625000I0J-175000D01*
G01*
X48175000Y-137325000D01*
G75*
G02*
X48000000Y-137500000I-175000J0D01*
G01*
G37*
G36*
G01*
X49270000Y-137500000D02*
X48920000Y-137500000D01*
G75*
G02*
X48745000Y-137325000I0J175000D01*
G01*
X48745000Y-135625000D01*
G75*
G02*
X48920000Y-135450000I175000J0D01*
G01*
X49270000Y-135450000D01*
G75*
G02*
X49445000Y-135625000I0J-175000D01*
G01*
X49445000Y-137325000D01*
G75*
G02*
X49270000Y-137500000I-175000J0D01*
G01*
G37*
G36*
G01*
X50540000Y-137500000D02*
X50190000Y-137500000D01*
G75*
G02*
X50015000Y-137325000I0J175000D01*
G01*
X50015000Y-135625000D01*
G75*
G02*
X50190000Y-135450000I175000J0D01*
G01*
X50540000Y-135450000D01*
G75*
G02*
X50715000Y-135625000I0J-175000D01*
G01*
X50715000Y-137325000D01*
G75*
G02*
X50540000Y-137500000I-175000J0D01*
G01*
G37*
G36*
G01*
X51810000Y-137500000D02*
X51460000Y-137500000D01*
G75*
G02*
X51285000Y-137325000I0J175000D01*
G01*
X51285000Y-135625000D01*
G75*
G02*
X51460000Y-135450000I175000J0D01*
G01*
X51810000Y-135450000D01*
G75*
G02*
X51985000Y-135625000I0J-175000D01*
G01*
X51985000Y-137325000D01*
G75*
G02*
X51810000Y-137500000I-175000J0D01*
G01*
G37*
G36*
G01*
X53080000Y-137500000D02*
X52730000Y-137500000D01*
G75*
G02*
X52555000Y-137325000I0J175000D01*
G01*
X52555000Y-135625000D01*
G75*
G02*
X52730000Y-135450000I175000J0D01*
G01*
X53080000Y-135450000D01*
G75*
G02*
X53255000Y-135625000I0J-175000D01*
G01*
X53255000Y-137325000D01*
G75*
G02*
X53080000Y-137500000I-175000J0D01*
G01*
G37*
G36*
G01*
X54350000Y-137500000D02*
X54000000Y-137500000D01*
G75*
G02*
X53825000Y-137325000I0J175000D01*
G01*
X53825000Y-135625000D01*
G75*
G02*
X54000000Y-135450000I175000J0D01*
G01*
X54350000Y-135450000D01*
G75*
G02*
X54525000Y-135625000I0J-175000D01*
G01*
X54525000Y-137325000D01*
G75*
G02*
X54350000Y-137500000I-175000J0D01*
G01*
G37*
G36*
G01*
X55620000Y-137500000D02*
X55270000Y-137500000D01*
G75*
G02*
X55095000Y-137325000I0J175000D01*
G01*
X55095000Y-135625000D01*
G75*
G02*
X55270000Y-135450000I175000J0D01*
G01*
X55620000Y-135450000D01*
G75*
G02*
X55795000Y-135625000I0J-175000D01*
G01*
X55795000Y-137325000D01*
G75*
G02*
X55620000Y-137500000I-175000J0D01*
G01*
G37*
%TD*%
%TO.C,R20*%
G36*
G01*
X59675000Y-96345000D02*
X59675000Y-97655000D01*
G75*
G02*
X59405000Y-97925000I-270000J0D01*
G01*
X58595000Y-97925000D01*
G75*
G02*
X58325000Y-97655000I0J270000D01*
G01*
X58325000Y-96345000D01*
G75*
G02*
X58595000Y-96075000I270000J0D01*
G01*
X59405000Y-96075000D01*
G75*
G02*
X59675000Y-96345000I0J-270000D01*
G01*
G37*
G36*
G01*
X62475000Y-96345000D02*
X62475000Y-97655000D01*
G75*
G02*
X62205000Y-97925000I-270000J0D01*
G01*
X61395000Y-97925000D01*
G75*
G02*
X61125000Y-97655000I0J270000D01*
G01*
X61125000Y-96345000D01*
G75*
G02*
X61395000Y-96075000I270000J0D01*
G01*
X62205000Y-96075000D01*
G75*
G02*
X62475000Y-96345000I0J-270000D01*
G01*
G37*
%TD*%
%TO.C,R19*%
G36*
G01*
X52675000Y-96345000D02*
X52675000Y-97655000D01*
G75*
G02*
X52405000Y-97925000I-270000J0D01*
G01*
X51595000Y-97925000D01*
G75*
G02*
X51325000Y-97655000I0J270000D01*
G01*
X51325000Y-96345000D01*
G75*
G02*
X51595000Y-96075000I270000J0D01*
G01*
X52405000Y-96075000D01*
G75*
G02*
X52675000Y-96345000I0J-270000D01*
G01*
G37*
G36*
G01*
X55475000Y-96345000D02*
X55475000Y-97655000D01*
G75*
G02*
X55205000Y-97925000I-270000J0D01*
G01*
X54395000Y-97925000D01*
G75*
G02*
X54125000Y-97655000I0J270000D01*
G01*
X54125000Y-96345000D01*
G75*
G02*
X54395000Y-96075000I270000J0D01*
G01*
X55205000Y-96075000D01*
G75*
G02*
X55475000Y-96345000I0J-270000D01*
G01*
G37*
%TD*%
%TO.C,R18*%
G36*
G01*
X45675000Y-96345000D02*
X45675000Y-97655000D01*
G75*
G02*
X45405000Y-97925000I-270000J0D01*
G01*
X44595000Y-97925000D01*
G75*
G02*
X44325000Y-97655000I0J270000D01*
G01*
X44325000Y-96345000D01*
G75*
G02*
X44595000Y-96075000I270000J0D01*
G01*
X45405000Y-96075000D01*
G75*
G02*
X45675000Y-96345000I0J-270000D01*
G01*
G37*
G36*
G01*
X48475000Y-96345000D02*
X48475000Y-97655000D01*
G75*
G02*
X48205000Y-97925000I-270000J0D01*
G01*
X47395000Y-97925000D01*
G75*
G02*
X47125000Y-97655000I0J270000D01*
G01*
X47125000Y-96345000D01*
G75*
G02*
X47395000Y-96075000I270000J0D01*
G01*
X48205000Y-96075000D01*
G75*
G02*
X48475000Y-96345000I0J-270000D01*
G01*
G37*
%TD*%
%TO.C,R17*%
G36*
G01*
X38675000Y-96345000D02*
X38675000Y-97655000D01*
G75*
G02*
X38405000Y-97925000I-270000J0D01*
G01*
X37595000Y-97925000D01*
G75*
G02*
X37325000Y-97655000I0J270000D01*
G01*
X37325000Y-96345000D01*
G75*
G02*
X37595000Y-96075000I270000J0D01*
G01*
X38405000Y-96075000D01*
G75*
G02*
X38675000Y-96345000I0J-270000D01*
G01*
G37*
G36*
G01*
X41475000Y-96345000D02*
X41475000Y-97655000D01*
G75*
G02*
X41205000Y-97925000I-270000J0D01*
G01*
X40395000Y-97925000D01*
G75*
G02*
X40125000Y-97655000I0J270000D01*
G01*
X40125000Y-96345000D01*
G75*
G02*
X40395000Y-96075000I270000J0D01*
G01*
X41205000Y-96075000D01*
G75*
G02*
X41475000Y-96345000I0J-270000D01*
G01*
G37*
%TD*%
%TO.C,R16*%
G36*
G01*
X42765000Y-120035000D02*
X42765000Y-118725000D01*
G75*
G02*
X43035000Y-118455000I270000J0D01*
G01*
X43845000Y-118455000D01*
G75*
G02*
X44115000Y-118725000I0J-270000D01*
G01*
X44115000Y-120035000D01*
G75*
G02*
X43845000Y-120305000I-270000J0D01*
G01*
X43035000Y-120305000D01*
G75*
G02*
X42765000Y-120035000I0J270000D01*
G01*
G37*
G36*
G01*
X39965000Y-120035000D02*
X39965000Y-118725000D01*
G75*
G02*
X40235000Y-118455000I270000J0D01*
G01*
X41045000Y-118455000D01*
G75*
G02*
X41315000Y-118725000I0J-270000D01*
G01*
X41315000Y-120035000D01*
G75*
G02*
X41045000Y-120305000I-270000J0D01*
G01*
X40235000Y-120305000D01*
G75*
G02*
X39965000Y-120035000I0J270000D01*
G01*
G37*
%TD*%
%TO.C,R15*%
G36*
G01*
X42765000Y-117495000D02*
X42765000Y-116185000D01*
G75*
G02*
X43035000Y-115915000I270000J0D01*
G01*
X43845000Y-115915000D01*
G75*
G02*
X44115000Y-116185000I0J-270000D01*
G01*
X44115000Y-117495000D01*
G75*
G02*
X43845000Y-117765000I-270000J0D01*
G01*
X43035000Y-117765000D01*
G75*
G02*
X42765000Y-117495000I0J270000D01*
G01*
G37*
G36*
G01*
X39965000Y-117495000D02*
X39965000Y-116185000D01*
G75*
G02*
X40235000Y-115915000I270000J0D01*
G01*
X41045000Y-115915000D01*
G75*
G02*
X41315000Y-116185000I0J-270000D01*
G01*
X41315000Y-117495000D01*
G75*
G02*
X41045000Y-117765000I-270000J0D01*
G01*
X40235000Y-117765000D01*
G75*
G02*
X39965000Y-117495000I0J270000D01*
G01*
G37*
%TD*%
%TO.C,R14*%
G36*
G01*
X42765000Y-114955000D02*
X42765000Y-113645000D01*
G75*
G02*
X43035000Y-113375000I270000J0D01*
G01*
X43845000Y-113375000D01*
G75*
G02*
X44115000Y-113645000I0J-270000D01*
G01*
X44115000Y-114955000D01*
G75*
G02*
X43845000Y-115225000I-270000J0D01*
G01*
X43035000Y-115225000D01*
G75*
G02*
X42765000Y-114955000I0J270000D01*
G01*
G37*
G36*
G01*
X39965000Y-114955000D02*
X39965000Y-113645000D01*
G75*
G02*
X40235000Y-113375000I270000J0D01*
G01*
X41045000Y-113375000D01*
G75*
G02*
X41315000Y-113645000I0J-270000D01*
G01*
X41315000Y-114955000D01*
G75*
G02*
X41045000Y-115225000I-270000J0D01*
G01*
X40235000Y-115225000D01*
G75*
G02*
X39965000Y-114955000I0J270000D01*
G01*
G37*
%TD*%
%TO.C,R13*%
G36*
G01*
X42765000Y-112415000D02*
X42765000Y-111105000D01*
G75*
G02*
X43035000Y-110835000I270000J0D01*
G01*
X43845000Y-110835000D01*
G75*
G02*
X44115000Y-111105000I0J-270000D01*
G01*
X44115000Y-112415000D01*
G75*
G02*
X43845000Y-112685000I-270000J0D01*
G01*
X43035000Y-112685000D01*
G75*
G02*
X42765000Y-112415000I0J270000D01*
G01*
G37*
G36*
G01*
X39965000Y-112415000D02*
X39965000Y-111105000D01*
G75*
G02*
X40235000Y-110835000I270000J0D01*
G01*
X41045000Y-110835000D01*
G75*
G02*
X41315000Y-111105000I0J-270000D01*
G01*
X41315000Y-112415000D01*
G75*
G02*
X41045000Y-112685000I-270000J0D01*
G01*
X40235000Y-112685000D01*
G75*
G02*
X39965000Y-112415000I0J270000D01*
G01*
G37*
%TD*%
%TO.C,R12*%
G36*
G01*
X42765000Y-109875000D02*
X42765000Y-108565000D01*
G75*
G02*
X43035000Y-108295000I270000J0D01*
G01*
X43845000Y-108295000D01*
G75*
G02*
X44115000Y-108565000I0J-270000D01*
G01*
X44115000Y-109875000D01*
G75*
G02*
X43845000Y-110145000I-270000J0D01*
G01*
X43035000Y-110145000D01*
G75*
G02*
X42765000Y-109875000I0J270000D01*
G01*
G37*
G36*
G01*
X39965000Y-109875000D02*
X39965000Y-108565000D01*
G75*
G02*
X40235000Y-108295000I270000J0D01*
G01*
X41045000Y-108295000D01*
G75*
G02*
X41315000Y-108565000I0J-270000D01*
G01*
X41315000Y-109875000D01*
G75*
G02*
X41045000Y-110145000I-270000J0D01*
G01*
X40235000Y-110145000D01*
G75*
G02*
X39965000Y-109875000I0J270000D01*
G01*
G37*
%TD*%
%TO.C,R11*%
G36*
G01*
X42765000Y-107335000D02*
X42765000Y-106025000D01*
G75*
G02*
X43035000Y-105755000I270000J0D01*
G01*
X43845000Y-105755000D01*
G75*
G02*
X44115000Y-106025000I0J-270000D01*
G01*
X44115000Y-107335000D01*
G75*
G02*
X43845000Y-107605000I-270000J0D01*
G01*
X43035000Y-107605000D01*
G75*
G02*
X42765000Y-107335000I0J270000D01*
G01*
G37*
G36*
G01*
X39965000Y-107335000D02*
X39965000Y-106025000D01*
G75*
G02*
X40235000Y-105755000I270000J0D01*
G01*
X41045000Y-105755000D01*
G75*
G02*
X41315000Y-106025000I0J-270000D01*
G01*
X41315000Y-107335000D01*
G75*
G02*
X41045000Y-107605000I-270000J0D01*
G01*
X40235000Y-107605000D01*
G75*
G02*
X39965000Y-107335000I0J270000D01*
G01*
G37*
%TD*%
%TO.C,R10*%
G36*
G01*
X42765000Y-104795000D02*
X42765000Y-103485000D01*
G75*
G02*
X43035000Y-103215000I270000J0D01*
G01*
X43845000Y-103215000D01*
G75*
G02*
X44115000Y-103485000I0J-270000D01*
G01*
X44115000Y-104795000D01*
G75*
G02*
X43845000Y-105065000I-270000J0D01*
G01*
X43035000Y-105065000D01*
G75*
G02*
X42765000Y-104795000I0J270000D01*
G01*
G37*
G36*
G01*
X39965000Y-104795000D02*
X39965000Y-103485000D01*
G75*
G02*
X40235000Y-103215000I270000J0D01*
G01*
X41045000Y-103215000D01*
G75*
G02*
X41315000Y-103485000I0J-270000D01*
G01*
X41315000Y-104795000D01*
G75*
G02*
X41045000Y-105065000I-270000J0D01*
G01*
X40235000Y-105065000D01*
G75*
G02*
X39965000Y-104795000I0J270000D01*
G01*
G37*
%TD*%
%TO.C,R9*%
G36*
G01*
X42765000Y-102255000D02*
X42765000Y-100945000D01*
G75*
G02*
X43035000Y-100675000I270000J0D01*
G01*
X43845000Y-100675000D01*
G75*
G02*
X44115000Y-100945000I0J-270000D01*
G01*
X44115000Y-102255000D01*
G75*
G02*
X43845000Y-102525000I-270000J0D01*
G01*
X43035000Y-102525000D01*
G75*
G02*
X42765000Y-102255000I0J270000D01*
G01*
G37*
G36*
G01*
X39965000Y-102255000D02*
X39965000Y-100945000D01*
G75*
G02*
X40235000Y-100675000I270000J0D01*
G01*
X41045000Y-100675000D01*
G75*
G02*
X41315000Y-100945000I0J-270000D01*
G01*
X41315000Y-102255000D01*
G75*
G02*
X41045000Y-102525000I-270000J0D01*
G01*
X40235000Y-102525000D01*
G75*
G02*
X39965000Y-102255000I0J270000D01*
G01*
G37*
%TD*%
%TO.C,R8*%
G36*
G01*
X42765000Y-142895000D02*
X42765000Y-141585000D01*
G75*
G02*
X43035000Y-141315000I270000J0D01*
G01*
X43845000Y-141315000D01*
G75*
G02*
X44115000Y-141585000I0J-270000D01*
G01*
X44115000Y-142895000D01*
G75*
G02*
X43845000Y-143165000I-270000J0D01*
G01*
X43035000Y-143165000D01*
G75*
G02*
X42765000Y-142895000I0J270000D01*
G01*
G37*
G36*
G01*
X39965000Y-142895000D02*
X39965000Y-141585000D01*
G75*
G02*
X40235000Y-141315000I270000J0D01*
G01*
X41045000Y-141315000D01*
G75*
G02*
X41315000Y-141585000I0J-270000D01*
G01*
X41315000Y-142895000D01*
G75*
G02*
X41045000Y-143165000I-270000J0D01*
G01*
X40235000Y-143165000D01*
G75*
G02*
X39965000Y-142895000I0J270000D01*
G01*
G37*
%TD*%
%TO.C,R7*%
G36*
G01*
X42765000Y-140355000D02*
X42765000Y-139045000D01*
G75*
G02*
X43035000Y-138775000I270000J0D01*
G01*
X43845000Y-138775000D01*
G75*
G02*
X44115000Y-139045000I0J-270000D01*
G01*
X44115000Y-140355000D01*
G75*
G02*
X43845000Y-140625000I-270000J0D01*
G01*
X43035000Y-140625000D01*
G75*
G02*
X42765000Y-140355000I0J270000D01*
G01*
G37*
G36*
G01*
X39965000Y-140355000D02*
X39965000Y-139045000D01*
G75*
G02*
X40235000Y-138775000I270000J0D01*
G01*
X41045000Y-138775000D01*
G75*
G02*
X41315000Y-139045000I0J-270000D01*
G01*
X41315000Y-140355000D01*
G75*
G02*
X41045000Y-140625000I-270000J0D01*
G01*
X40235000Y-140625000D01*
G75*
G02*
X39965000Y-140355000I0J270000D01*
G01*
G37*
%TD*%
%TO.C,R6*%
G36*
G01*
X42765000Y-137815000D02*
X42765000Y-136505000D01*
G75*
G02*
X43035000Y-136235000I270000J0D01*
G01*
X43845000Y-136235000D01*
G75*
G02*
X44115000Y-136505000I0J-270000D01*
G01*
X44115000Y-137815000D01*
G75*
G02*
X43845000Y-138085000I-270000J0D01*
G01*
X43035000Y-138085000D01*
G75*
G02*
X42765000Y-137815000I0J270000D01*
G01*
G37*
G36*
G01*
X39965000Y-137815000D02*
X39965000Y-136505000D01*
G75*
G02*
X40235000Y-136235000I270000J0D01*
G01*
X41045000Y-136235000D01*
G75*
G02*
X41315000Y-136505000I0J-270000D01*
G01*
X41315000Y-137815000D01*
G75*
G02*
X41045000Y-138085000I-270000J0D01*
G01*
X40235000Y-138085000D01*
G75*
G02*
X39965000Y-137815000I0J270000D01*
G01*
G37*
%TD*%
%TO.C,R5*%
G36*
G01*
X42765000Y-135275000D02*
X42765000Y-133965000D01*
G75*
G02*
X43035000Y-133695000I270000J0D01*
G01*
X43845000Y-133695000D01*
G75*
G02*
X44115000Y-133965000I0J-270000D01*
G01*
X44115000Y-135275000D01*
G75*
G02*
X43845000Y-135545000I-270000J0D01*
G01*
X43035000Y-135545000D01*
G75*
G02*
X42765000Y-135275000I0J270000D01*
G01*
G37*
G36*
G01*
X39965000Y-135275000D02*
X39965000Y-133965000D01*
G75*
G02*
X40235000Y-133695000I270000J0D01*
G01*
X41045000Y-133695000D01*
G75*
G02*
X41315000Y-133965000I0J-270000D01*
G01*
X41315000Y-135275000D01*
G75*
G02*
X41045000Y-135545000I-270000J0D01*
G01*
X40235000Y-135545000D01*
G75*
G02*
X39965000Y-135275000I0J270000D01*
G01*
G37*
%TD*%
%TO.C,R4*%
G36*
G01*
X42765000Y-132735000D02*
X42765000Y-131425000D01*
G75*
G02*
X43035000Y-131155000I270000J0D01*
G01*
X43845000Y-131155000D01*
G75*
G02*
X44115000Y-131425000I0J-270000D01*
G01*
X44115000Y-132735000D01*
G75*
G02*
X43845000Y-133005000I-270000J0D01*
G01*
X43035000Y-133005000D01*
G75*
G02*
X42765000Y-132735000I0J270000D01*
G01*
G37*
G36*
G01*
X39965000Y-132735000D02*
X39965000Y-131425000D01*
G75*
G02*
X40235000Y-131155000I270000J0D01*
G01*
X41045000Y-131155000D01*
G75*
G02*
X41315000Y-131425000I0J-270000D01*
G01*
X41315000Y-132735000D01*
G75*
G02*
X41045000Y-133005000I-270000J0D01*
G01*
X40235000Y-133005000D01*
G75*
G02*
X39965000Y-132735000I0J270000D01*
G01*
G37*
%TD*%
%TO.C,R3*%
G36*
G01*
X42765000Y-130195000D02*
X42765000Y-128885000D01*
G75*
G02*
X43035000Y-128615000I270000J0D01*
G01*
X43845000Y-128615000D01*
G75*
G02*
X44115000Y-128885000I0J-270000D01*
G01*
X44115000Y-130195000D01*
G75*
G02*
X43845000Y-130465000I-270000J0D01*
G01*
X43035000Y-130465000D01*
G75*
G02*
X42765000Y-130195000I0J270000D01*
G01*
G37*
G36*
G01*
X39965000Y-130195000D02*
X39965000Y-128885000D01*
G75*
G02*
X40235000Y-128615000I270000J0D01*
G01*
X41045000Y-128615000D01*
G75*
G02*
X41315000Y-128885000I0J-270000D01*
G01*
X41315000Y-130195000D01*
G75*
G02*
X41045000Y-130465000I-270000J0D01*
G01*
X40235000Y-130465000D01*
G75*
G02*
X39965000Y-130195000I0J270000D01*
G01*
G37*
%TD*%
%TO.C,R2*%
G36*
G01*
X42765000Y-127655000D02*
X42765000Y-126345000D01*
G75*
G02*
X43035000Y-126075000I270000J0D01*
G01*
X43845000Y-126075000D01*
G75*
G02*
X44115000Y-126345000I0J-270000D01*
G01*
X44115000Y-127655000D01*
G75*
G02*
X43845000Y-127925000I-270000J0D01*
G01*
X43035000Y-127925000D01*
G75*
G02*
X42765000Y-127655000I0J270000D01*
G01*
G37*
G36*
G01*
X39965000Y-127655000D02*
X39965000Y-126345000D01*
G75*
G02*
X40235000Y-126075000I270000J0D01*
G01*
X41045000Y-126075000D01*
G75*
G02*
X41315000Y-126345000I0J-270000D01*
G01*
X41315000Y-127655000D01*
G75*
G02*
X41045000Y-127925000I-270000J0D01*
G01*
X40235000Y-127925000D01*
G75*
G02*
X39965000Y-127655000I0J270000D01*
G01*
G37*
%TD*%
%TO.C,R1*%
G36*
G01*
X42765000Y-125115000D02*
X42765000Y-123805000D01*
G75*
G02*
X43035000Y-123535000I270000J0D01*
G01*
X43845000Y-123535000D01*
G75*
G02*
X44115000Y-123805000I0J-270000D01*
G01*
X44115000Y-125115000D01*
G75*
G02*
X43845000Y-125385000I-270000J0D01*
G01*
X43035000Y-125385000D01*
G75*
G02*
X42765000Y-125115000I0J270000D01*
G01*
G37*
G36*
G01*
X39965000Y-125115000D02*
X39965000Y-123805000D01*
G75*
G02*
X40235000Y-123535000I270000J0D01*
G01*
X41045000Y-123535000D01*
G75*
G02*
X41315000Y-123805000I0J-270000D01*
G01*
X41315000Y-125115000D01*
G75*
G02*
X41045000Y-125385000I-270000J0D01*
G01*
X40235000Y-125385000D01*
G75*
G02*
X39965000Y-125115000I0J270000D01*
G01*
G37*
%TD*%
D12*
%TO.C,RV4*%
X61900000Y-73000000D03*
X53100000Y-73000000D03*
D13*
X60000000Y-80000000D03*
X57500000Y-80000000D03*
X55000000Y-80000000D03*
%TD*%
D12*
%TO.C,RV3*%
X46900000Y-73000000D03*
X38100000Y-73000000D03*
D13*
X45000000Y-80000000D03*
X42500000Y-80000000D03*
X40000000Y-80000000D03*
%TD*%
D12*
%TO.C,RV2*%
X61900000Y-52000000D03*
X53100000Y-52000000D03*
D13*
X60000000Y-59000000D03*
X57500000Y-59000000D03*
X55000000Y-59000000D03*
%TD*%
D12*
%TO.C,RV1*%
X46900000Y-52000000D03*
X38100000Y-52000000D03*
D13*
X45000000Y-59000000D03*
X42500000Y-59000000D03*
X40000000Y-59000000D03*
%TD*%
D10*
%TO.C,J3*%
X38100000Y-119380000D03*
X38100000Y-116840000D03*
X38100000Y-114300000D03*
X38100000Y-111760000D03*
X38100000Y-109220000D03*
X38100000Y-106680000D03*
X38100000Y-104140000D03*
D11*
X38100000Y-101600000D03*
%TD*%
D10*
%TO.C,J1*%
X38100000Y-142240000D03*
X38100000Y-139700000D03*
X38100000Y-137160000D03*
X38100000Y-134620000D03*
X38100000Y-132080000D03*
X38100000Y-129540000D03*
X38100000Y-127000000D03*
D11*
X38100000Y-124460000D03*
%TD*%
D14*
%TO.C,H2*%
X61000000Y-141000000D03*
%TD*%
%TO.C,H1*%
X50000000Y-63000000D03*
%TD*%
D13*
%TO.C,D4*%
X61540000Y-93000000D03*
D15*
X59000000Y-93000000D03*
%TD*%
D13*
%TO.C,D3*%
X54540000Y-93000000D03*
D15*
X52000000Y-93000000D03*
%TD*%
D13*
%TO.C,D2*%
X47540000Y-93000000D03*
D15*
X45000000Y-93000000D03*
%TD*%
D13*
%TO.C,D1*%
X40540000Y-93000000D03*
D15*
X38000000Y-93000000D03*
%TD*%
M02*
