%TF.GenerationSoftware,KiCad,Pcbnew,(5.1.6)-1*%
%TF.CreationDate,2021-02-15T17:49:45+00:00*%
%TF.ProjectId,p3module,70336d6f-6475-46c6-952e-6b696361645f,rev?*%
%TF.SameCoordinates,Original*%
%TF.FileFunction,Paste,Bot*%
%TF.FilePolarity,Positive*%
%FSLAX46Y46*%
G04 Gerber Fmt 4.6, Leading zero omitted, Abs format (unit mm)*
G04 Created by KiCad (PCBNEW (5.1.6)-1) date 2021-02-15 17:49:45*
%MOMM*%
%LPD*%
G01*
G04 APERTURE LIST*
G04 APERTURE END LIST*
%TO.C,U4*%
G36*
G01*
X52405000Y-87500000D02*
X52705000Y-87500000D01*
G75*
G02*
X52855000Y-87650000I0J-150000D01*
G01*
X52855000Y-89300000D01*
G75*
G02*
X52705000Y-89450000I-150000J0D01*
G01*
X52405000Y-89450000D01*
G75*
G02*
X52255000Y-89300000I0J150000D01*
G01*
X52255000Y-87650000D01*
G75*
G02*
X52405000Y-87500000I150000J0D01*
G01*
G37*
G36*
G01*
X53675000Y-87500000D02*
X53975000Y-87500000D01*
G75*
G02*
X54125000Y-87650000I0J-150000D01*
G01*
X54125000Y-89300000D01*
G75*
G02*
X53975000Y-89450000I-150000J0D01*
G01*
X53675000Y-89450000D01*
G75*
G02*
X53525000Y-89300000I0J150000D01*
G01*
X53525000Y-87650000D01*
G75*
G02*
X53675000Y-87500000I150000J0D01*
G01*
G37*
G36*
G01*
X54945000Y-87500000D02*
X55245000Y-87500000D01*
G75*
G02*
X55395000Y-87650000I0J-150000D01*
G01*
X55395000Y-89300000D01*
G75*
G02*
X55245000Y-89450000I-150000J0D01*
G01*
X54945000Y-89450000D01*
G75*
G02*
X54795000Y-89300000I0J150000D01*
G01*
X54795000Y-87650000D01*
G75*
G02*
X54945000Y-87500000I150000J0D01*
G01*
G37*
G36*
G01*
X56215000Y-87500000D02*
X56515000Y-87500000D01*
G75*
G02*
X56665000Y-87650000I0J-150000D01*
G01*
X56665000Y-89300000D01*
G75*
G02*
X56515000Y-89450000I-150000J0D01*
G01*
X56215000Y-89450000D01*
G75*
G02*
X56065000Y-89300000I0J150000D01*
G01*
X56065000Y-87650000D01*
G75*
G02*
X56215000Y-87500000I150000J0D01*
G01*
G37*
G36*
G01*
X57485000Y-87500000D02*
X57785000Y-87500000D01*
G75*
G02*
X57935000Y-87650000I0J-150000D01*
G01*
X57935000Y-89300000D01*
G75*
G02*
X57785000Y-89450000I-150000J0D01*
G01*
X57485000Y-89450000D01*
G75*
G02*
X57335000Y-89300000I0J150000D01*
G01*
X57335000Y-87650000D01*
G75*
G02*
X57485000Y-87500000I150000J0D01*
G01*
G37*
G36*
G01*
X58755000Y-87500000D02*
X59055000Y-87500000D01*
G75*
G02*
X59205000Y-87650000I0J-150000D01*
G01*
X59205000Y-89300000D01*
G75*
G02*
X59055000Y-89450000I-150000J0D01*
G01*
X58755000Y-89450000D01*
G75*
G02*
X58605000Y-89300000I0J150000D01*
G01*
X58605000Y-87650000D01*
G75*
G02*
X58755000Y-87500000I150000J0D01*
G01*
G37*
G36*
G01*
X60025000Y-87500000D02*
X60325000Y-87500000D01*
G75*
G02*
X60475000Y-87650000I0J-150000D01*
G01*
X60475000Y-89300000D01*
G75*
G02*
X60325000Y-89450000I-150000J0D01*
G01*
X60025000Y-89450000D01*
G75*
G02*
X59875000Y-89300000I0J150000D01*
G01*
X59875000Y-87650000D01*
G75*
G02*
X60025000Y-87500000I150000J0D01*
G01*
G37*
G36*
G01*
X61295000Y-87500000D02*
X61595000Y-87500000D01*
G75*
G02*
X61745000Y-87650000I0J-150000D01*
G01*
X61745000Y-89300000D01*
G75*
G02*
X61595000Y-89450000I-150000J0D01*
G01*
X61295000Y-89450000D01*
G75*
G02*
X61145000Y-89300000I0J150000D01*
G01*
X61145000Y-87650000D01*
G75*
G02*
X61295000Y-87500000I150000J0D01*
G01*
G37*
G36*
G01*
X61295000Y-82550000D02*
X61595000Y-82550000D01*
G75*
G02*
X61745000Y-82700000I0J-150000D01*
G01*
X61745000Y-84350000D01*
G75*
G02*
X61595000Y-84500000I-150000J0D01*
G01*
X61295000Y-84500000D01*
G75*
G02*
X61145000Y-84350000I0J150000D01*
G01*
X61145000Y-82700000D01*
G75*
G02*
X61295000Y-82550000I150000J0D01*
G01*
G37*
G36*
G01*
X60025000Y-82550000D02*
X60325000Y-82550000D01*
G75*
G02*
X60475000Y-82700000I0J-150000D01*
G01*
X60475000Y-84350000D01*
G75*
G02*
X60325000Y-84500000I-150000J0D01*
G01*
X60025000Y-84500000D01*
G75*
G02*
X59875000Y-84350000I0J150000D01*
G01*
X59875000Y-82700000D01*
G75*
G02*
X60025000Y-82550000I150000J0D01*
G01*
G37*
G36*
G01*
X58755000Y-82550000D02*
X59055000Y-82550000D01*
G75*
G02*
X59205000Y-82700000I0J-150000D01*
G01*
X59205000Y-84350000D01*
G75*
G02*
X59055000Y-84500000I-150000J0D01*
G01*
X58755000Y-84500000D01*
G75*
G02*
X58605000Y-84350000I0J150000D01*
G01*
X58605000Y-82700000D01*
G75*
G02*
X58755000Y-82550000I150000J0D01*
G01*
G37*
G36*
G01*
X57485000Y-82550000D02*
X57785000Y-82550000D01*
G75*
G02*
X57935000Y-82700000I0J-150000D01*
G01*
X57935000Y-84350000D01*
G75*
G02*
X57785000Y-84500000I-150000J0D01*
G01*
X57485000Y-84500000D01*
G75*
G02*
X57335000Y-84350000I0J150000D01*
G01*
X57335000Y-82700000D01*
G75*
G02*
X57485000Y-82550000I150000J0D01*
G01*
G37*
G36*
G01*
X56215000Y-82550000D02*
X56515000Y-82550000D01*
G75*
G02*
X56665000Y-82700000I0J-150000D01*
G01*
X56665000Y-84350000D01*
G75*
G02*
X56515000Y-84500000I-150000J0D01*
G01*
X56215000Y-84500000D01*
G75*
G02*
X56065000Y-84350000I0J150000D01*
G01*
X56065000Y-82700000D01*
G75*
G02*
X56215000Y-82550000I150000J0D01*
G01*
G37*
G36*
G01*
X54945000Y-82550000D02*
X55245000Y-82550000D01*
G75*
G02*
X55395000Y-82700000I0J-150000D01*
G01*
X55395000Y-84350000D01*
G75*
G02*
X55245000Y-84500000I-150000J0D01*
G01*
X54945000Y-84500000D01*
G75*
G02*
X54795000Y-84350000I0J150000D01*
G01*
X54795000Y-82700000D01*
G75*
G02*
X54945000Y-82550000I150000J0D01*
G01*
G37*
G36*
G01*
X53675000Y-82550000D02*
X53975000Y-82550000D01*
G75*
G02*
X54125000Y-82700000I0J-150000D01*
G01*
X54125000Y-84350000D01*
G75*
G02*
X53975000Y-84500000I-150000J0D01*
G01*
X53675000Y-84500000D01*
G75*
G02*
X53525000Y-84350000I0J150000D01*
G01*
X53525000Y-82700000D01*
G75*
G02*
X53675000Y-82550000I150000J0D01*
G01*
G37*
G36*
G01*
X52405000Y-82550000D02*
X52705000Y-82550000D01*
G75*
G02*
X52855000Y-82700000I0J-150000D01*
G01*
X52855000Y-84350000D01*
G75*
G02*
X52705000Y-84500000I-150000J0D01*
G01*
X52405000Y-84500000D01*
G75*
G02*
X52255000Y-84350000I0J150000D01*
G01*
X52255000Y-82700000D01*
G75*
G02*
X52405000Y-82550000I150000J0D01*
G01*
G37*
%TD*%
%TO.C,U3*%
G36*
G01*
X38405000Y-87500000D02*
X38705000Y-87500000D01*
G75*
G02*
X38855000Y-87650000I0J-150000D01*
G01*
X38855000Y-89300000D01*
G75*
G02*
X38705000Y-89450000I-150000J0D01*
G01*
X38405000Y-89450000D01*
G75*
G02*
X38255000Y-89300000I0J150000D01*
G01*
X38255000Y-87650000D01*
G75*
G02*
X38405000Y-87500000I150000J0D01*
G01*
G37*
G36*
G01*
X39675000Y-87500000D02*
X39975000Y-87500000D01*
G75*
G02*
X40125000Y-87650000I0J-150000D01*
G01*
X40125000Y-89300000D01*
G75*
G02*
X39975000Y-89450000I-150000J0D01*
G01*
X39675000Y-89450000D01*
G75*
G02*
X39525000Y-89300000I0J150000D01*
G01*
X39525000Y-87650000D01*
G75*
G02*
X39675000Y-87500000I150000J0D01*
G01*
G37*
G36*
G01*
X40945000Y-87500000D02*
X41245000Y-87500000D01*
G75*
G02*
X41395000Y-87650000I0J-150000D01*
G01*
X41395000Y-89300000D01*
G75*
G02*
X41245000Y-89450000I-150000J0D01*
G01*
X40945000Y-89450000D01*
G75*
G02*
X40795000Y-89300000I0J150000D01*
G01*
X40795000Y-87650000D01*
G75*
G02*
X40945000Y-87500000I150000J0D01*
G01*
G37*
G36*
G01*
X42215000Y-87500000D02*
X42515000Y-87500000D01*
G75*
G02*
X42665000Y-87650000I0J-150000D01*
G01*
X42665000Y-89300000D01*
G75*
G02*
X42515000Y-89450000I-150000J0D01*
G01*
X42215000Y-89450000D01*
G75*
G02*
X42065000Y-89300000I0J150000D01*
G01*
X42065000Y-87650000D01*
G75*
G02*
X42215000Y-87500000I150000J0D01*
G01*
G37*
G36*
G01*
X43485000Y-87500000D02*
X43785000Y-87500000D01*
G75*
G02*
X43935000Y-87650000I0J-150000D01*
G01*
X43935000Y-89300000D01*
G75*
G02*
X43785000Y-89450000I-150000J0D01*
G01*
X43485000Y-89450000D01*
G75*
G02*
X43335000Y-89300000I0J150000D01*
G01*
X43335000Y-87650000D01*
G75*
G02*
X43485000Y-87500000I150000J0D01*
G01*
G37*
G36*
G01*
X44755000Y-87500000D02*
X45055000Y-87500000D01*
G75*
G02*
X45205000Y-87650000I0J-150000D01*
G01*
X45205000Y-89300000D01*
G75*
G02*
X45055000Y-89450000I-150000J0D01*
G01*
X44755000Y-89450000D01*
G75*
G02*
X44605000Y-89300000I0J150000D01*
G01*
X44605000Y-87650000D01*
G75*
G02*
X44755000Y-87500000I150000J0D01*
G01*
G37*
G36*
G01*
X46025000Y-87500000D02*
X46325000Y-87500000D01*
G75*
G02*
X46475000Y-87650000I0J-150000D01*
G01*
X46475000Y-89300000D01*
G75*
G02*
X46325000Y-89450000I-150000J0D01*
G01*
X46025000Y-89450000D01*
G75*
G02*
X45875000Y-89300000I0J150000D01*
G01*
X45875000Y-87650000D01*
G75*
G02*
X46025000Y-87500000I150000J0D01*
G01*
G37*
G36*
G01*
X47295000Y-87500000D02*
X47595000Y-87500000D01*
G75*
G02*
X47745000Y-87650000I0J-150000D01*
G01*
X47745000Y-89300000D01*
G75*
G02*
X47595000Y-89450000I-150000J0D01*
G01*
X47295000Y-89450000D01*
G75*
G02*
X47145000Y-89300000I0J150000D01*
G01*
X47145000Y-87650000D01*
G75*
G02*
X47295000Y-87500000I150000J0D01*
G01*
G37*
G36*
G01*
X47295000Y-82550000D02*
X47595000Y-82550000D01*
G75*
G02*
X47745000Y-82700000I0J-150000D01*
G01*
X47745000Y-84350000D01*
G75*
G02*
X47595000Y-84500000I-150000J0D01*
G01*
X47295000Y-84500000D01*
G75*
G02*
X47145000Y-84350000I0J150000D01*
G01*
X47145000Y-82700000D01*
G75*
G02*
X47295000Y-82550000I150000J0D01*
G01*
G37*
G36*
G01*
X46025000Y-82550000D02*
X46325000Y-82550000D01*
G75*
G02*
X46475000Y-82700000I0J-150000D01*
G01*
X46475000Y-84350000D01*
G75*
G02*
X46325000Y-84500000I-150000J0D01*
G01*
X46025000Y-84500000D01*
G75*
G02*
X45875000Y-84350000I0J150000D01*
G01*
X45875000Y-82700000D01*
G75*
G02*
X46025000Y-82550000I150000J0D01*
G01*
G37*
G36*
G01*
X44755000Y-82550000D02*
X45055000Y-82550000D01*
G75*
G02*
X45205000Y-82700000I0J-150000D01*
G01*
X45205000Y-84350000D01*
G75*
G02*
X45055000Y-84500000I-150000J0D01*
G01*
X44755000Y-84500000D01*
G75*
G02*
X44605000Y-84350000I0J150000D01*
G01*
X44605000Y-82700000D01*
G75*
G02*
X44755000Y-82550000I150000J0D01*
G01*
G37*
G36*
G01*
X43485000Y-82550000D02*
X43785000Y-82550000D01*
G75*
G02*
X43935000Y-82700000I0J-150000D01*
G01*
X43935000Y-84350000D01*
G75*
G02*
X43785000Y-84500000I-150000J0D01*
G01*
X43485000Y-84500000D01*
G75*
G02*
X43335000Y-84350000I0J150000D01*
G01*
X43335000Y-82700000D01*
G75*
G02*
X43485000Y-82550000I150000J0D01*
G01*
G37*
G36*
G01*
X42215000Y-82550000D02*
X42515000Y-82550000D01*
G75*
G02*
X42665000Y-82700000I0J-150000D01*
G01*
X42665000Y-84350000D01*
G75*
G02*
X42515000Y-84500000I-150000J0D01*
G01*
X42215000Y-84500000D01*
G75*
G02*
X42065000Y-84350000I0J150000D01*
G01*
X42065000Y-82700000D01*
G75*
G02*
X42215000Y-82550000I150000J0D01*
G01*
G37*
G36*
G01*
X40945000Y-82550000D02*
X41245000Y-82550000D01*
G75*
G02*
X41395000Y-82700000I0J-150000D01*
G01*
X41395000Y-84350000D01*
G75*
G02*
X41245000Y-84500000I-150000J0D01*
G01*
X40945000Y-84500000D01*
G75*
G02*
X40795000Y-84350000I0J150000D01*
G01*
X40795000Y-82700000D01*
G75*
G02*
X40945000Y-82550000I150000J0D01*
G01*
G37*
G36*
G01*
X39675000Y-82550000D02*
X39975000Y-82550000D01*
G75*
G02*
X40125000Y-82700000I0J-150000D01*
G01*
X40125000Y-84350000D01*
G75*
G02*
X39975000Y-84500000I-150000J0D01*
G01*
X39675000Y-84500000D01*
G75*
G02*
X39525000Y-84350000I0J150000D01*
G01*
X39525000Y-82700000D01*
G75*
G02*
X39675000Y-82550000I150000J0D01*
G01*
G37*
G36*
G01*
X38405000Y-82550000D02*
X38705000Y-82550000D01*
G75*
G02*
X38855000Y-82700000I0J-150000D01*
G01*
X38855000Y-84350000D01*
G75*
G02*
X38705000Y-84500000I-150000J0D01*
G01*
X38405000Y-84500000D01*
G75*
G02*
X38255000Y-84350000I0J150000D01*
G01*
X38255000Y-82700000D01*
G75*
G02*
X38405000Y-82550000I150000J0D01*
G01*
G37*
%TD*%
%TO.C,U2*%
G36*
G01*
X55595000Y-108500000D02*
X55295000Y-108500000D01*
G75*
G02*
X55145000Y-108350000I0J150000D01*
G01*
X55145000Y-106700000D01*
G75*
G02*
X55295000Y-106550000I150000J0D01*
G01*
X55595000Y-106550000D01*
G75*
G02*
X55745000Y-106700000I0J-150000D01*
G01*
X55745000Y-108350000D01*
G75*
G02*
X55595000Y-108500000I-150000J0D01*
G01*
G37*
G36*
G01*
X54325000Y-108500000D02*
X54025000Y-108500000D01*
G75*
G02*
X53875000Y-108350000I0J150000D01*
G01*
X53875000Y-106700000D01*
G75*
G02*
X54025000Y-106550000I150000J0D01*
G01*
X54325000Y-106550000D01*
G75*
G02*
X54475000Y-106700000I0J-150000D01*
G01*
X54475000Y-108350000D01*
G75*
G02*
X54325000Y-108500000I-150000J0D01*
G01*
G37*
G36*
G01*
X53055000Y-108500000D02*
X52755000Y-108500000D01*
G75*
G02*
X52605000Y-108350000I0J150000D01*
G01*
X52605000Y-106700000D01*
G75*
G02*
X52755000Y-106550000I150000J0D01*
G01*
X53055000Y-106550000D01*
G75*
G02*
X53205000Y-106700000I0J-150000D01*
G01*
X53205000Y-108350000D01*
G75*
G02*
X53055000Y-108500000I-150000J0D01*
G01*
G37*
G36*
G01*
X51785000Y-108500000D02*
X51485000Y-108500000D01*
G75*
G02*
X51335000Y-108350000I0J150000D01*
G01*
X51335000Y-106700000D01*
G75*
G02*
X51485000Y-106550000I150000J0D01*
G01*
X51785000Y-106550000D01*
G75*
G02*
X51935000Y-106700000I0J-150000D01*
G01*
X51935000Y-108350000D01*
G75*
G02*
X51785000Y-108500000I-150000J0D01*
G01*
G37*
G36*
G01*
X50515000Y-108500000D02*
X50215000Y-108500000D01*
G75*
G02*
X50065000Y-108350000I0J150000D01*
G01*
X50065000Y-106700000D01*
G75*
G02*
X50215000Y-106550000I150000J0D01*
G01*
X50515000Y-106550000D01*
G75*
G02*
X50665000Y-106700000I0J-150000D01*
G01*
X50665000Y-108350000D01*
G75*
G02*
X50515000Y-108500000I-150000J0D01*
G01*
G37*
G36*
G01*
X49245000Y-108500000D02*
X48945000Y-108500000D01*
G75*
G02*
X48795000Y-108350000I0J150000D01*
G01*
X48795000Y-106700000D01*
G75*
G02*
X48945000Y-106550000I150000J0D01*
G01*
X49245000Y-106550000D01*
G75*
G02*
X49395000Y-106700000I0J-150000D01*
G01*
X49395000Y-108350000D01*
G75*
G02*
X49245000Y-108500000I-150000J0D01*
G01*
G37*
G36*
G01*
X47975000Y-108500000D02*
X47675000Y-108500000D01*
G75*
G02*
X47525000Y-108350000I0J150000D01*
G01*
X47525000Y-106700000D01*
G75*
G02*
X47675000Y-106550000I150000J0D01*
G01*
X47975000Y-106550000D01*
G75*
G02*
X48125000Y-106700000I0J-150000D01*
G01*
X48125000Y-108350000D01*
G75*
G02*
X47975000Y-108500000I-150000J0D01*
G01*
G37*
G36*
G01*
X46705000Y-108500000D02*
X46405000Y-108500000D01*
G75*
G02*
X46255000Y-108350000I0J150000D01*
G01*
X46255000Y-106700000D01*
G75*
G02*
X46405000Y-106550000I150000J0D01*
G01*
X46705000Y-106550000D01*
G75*
G02*
X46855000Y-106700000I0J-150000D01*
G01*
X46855000Y-108350000D01*
G75*
G02*
X46705000Y-108500000I-150000J0D01*
G01*
G37*
G36*
G01*
X46705000Y-113450000D02*
X46405000Y-113450000D01*
G75*
G02*
X46255000Y-113300000I0J150000D01*
G01*
X46255000Y-111650000D01*
G75*
G02*
X46405000Y-111500000I150000J0D01*
G01*
X46705000Y-111500000D01*
G75*
G02*
X46855000Y-111650000I0J-150000D01*
G01*
X46855000Y-113300000D01*
G75*
G02*
X46705000Y-113450000I-150000J0D01*
G01*
G37*
G36*
G01*
X47975000Y-113450000D02*
X47675000Y-113450000D01*
G75*
G02*
X47525000Y-113300000I0J150000D01*
G01*
X47525000Y-111650000D01*
G75*
G02*
X47675000Y-111500000I150000J0D01*
G01*
X47975000Y-111500000D01*
G75*
G02*
X48125000Y-111650000I0J-150000D01*
G01*
X48125000Y-113300000D01*
G75*
G02*
X47975000Y-113450000I-150000J0D01*
G01*
G37*
G36*
G01*
X49245000Y-113450000D02*
X48945000Y-113450000D01*
G75*
G02*
X48795000Y-113300000I0J150000D01*
G01*
X48795000Y-111650000D01*
G75*
G02*
X48945000Y-111500000I150000J0D01*
G01*
X49245000Y-111500000D01*
G75*
G02*
X49395000Y-111650000I0J-150000D01*
G01*
X49395000Y-113300000D01*
G75*
G02*
X49245000Y-113450000I-150000J0D01*
G01*
G37*
G36*
G01*
X50515000Y-113450000D02*
X50215000Y-113450000D01*
G75*
G02*
X50065000Y-113300000I0J150000D01*
G01*
X50065000Y-111650000D01*
G75*
G02*
X50215000Y-111500000I150000J0D01*
G01*
X50515000Y-111500000D01*
G75*
G02*
X50665000Y-111650000I0J-150000D01*
G01*
X50665000Y-113300000D01*
G75*
G02*
X50515000Y-113450000I-150000J0D01*
G01*
G37*
G36*
G01*
X51785000Y-113450000D02*
X51485000Y-113450000D01*
G75*
G02*
X51335000Y-113300000I0J150000D01*
G01*
X51335000Y-111650000D01*
G75*
G02*
X51485000Y-111500000I150000J0D01*
G01*
X51785000Y-111500000D01*
G75*
G02*
X51935000Y-111650000I0J-150000D01*
G01*
X51935000Y-113300000D01*
G75*
G02*
X51785000Y-113450000I-150000J0D01*
G01*
G37*
G36*
G01*
X53055000Y-113450000D02*
X52755000Y-113450000D01*
G75*
G02*
X52605000Y-113300000I0J150000D01*
G01*
X52605000Y-111650000D01*
G75*
G02*
X52755000Y-111500000I150000J0D01*
G01*
X53055000Y-111500000D01*
G75*
G02*
X53205000Y-111650000I0J-150000D01*
G01*
X53205000Y-113300000D01*
G75*
G02*
X53055000Y-113450000I-150000J0D01*
G01*
G37*
G36*
G01*
X54325000Y-113450000D02*
X54025000Y-113450000D01*
G75*
G02*
X53875000Y-113300000I0J150000D01*
G01*
X53875000Y-111650000D01*
G75*
G02*
X54025000Y-111500000I150000J0D01*
G01*
X54325000Y-111500000D01*
G75*
G02*
X54475000Y-111650000I0J-150000D01*
G01*
X54475000Y-113300000D01*
G75*
G02*
X54325000Y-113450000I-150000J0D01*
G01*
G37*
G36*
G01*
X55595000Y-113450000D02*
X55295000Y-113450000D01*
G75*
G02*
X55145000Y-113300000I0J150000D01*
G01*
X55145000Y-111650000D01*
G75*
G02*
X55295000Y-111500000I150000J0D01*
G01*
X55595000Y-111500000D01*
G75*
G02*
X55745000Y-111650000I0J-150000D01*
G01*
X55745000Y-113300000D01*
G75*
G02*
X55595000Y-113450000I-150000J0D01*
G01*
G37*
%TD*%
%TO.C,U1*%
G36*
G01*
X55595000Y-132500000D02*
X55295000Y-132500000D01*
G75*
G02*
X55145000Y-132350000I0J150000D01*
G01*
X55145000Y-130700000D01*
G75*
G02*
X55295000Y-130550000I150000J0D01*
G01*
X55595000Y-130550000D01*
G75*
G02*
X55745000Y-130700000I0J-150000D01*
G01*
X55745000Y-132350000D01*
G75*
G02*
X55595000Y-132500000I-150000J0D01*
G01*
G37*
G36*
G01*
X54325000Y-132500000D02*
X54025000Y-132500000D01*
G75*
G02*
X53875000Y-132350000I0J150000D01*
G01*
X53875000Y-130700000D01*
G75*
G02*
X54025000Y-130550000I150000J0D01*
G01*
X54325000Y-130550000D01*
G75*
G02*
X54475000Y-130700000I0J-150000D01*
G01*
X54475000Y-132350000D01*
G75*
G02*
X54325000Y-132500000I-150000J0D01*
G01*
G37*
G36*
G01*
X53055000Y-132500000D02*
X52755000Y-132500000D01*
G75*
G02*
X52605000Y-132350000I0J150000D01*
G01*
X52605000Y-130700000D01*
G75*
G02*
X52755000Y-130550000I150000J0D01*
G01*
X53055000Y-130550000D01*
G75*
G02*
X53205000Y-130700000I0J-150000D01*
G01*
X53205000Y-132350000D01*
G75*
G02*
X53055000Y-132500000I-150000J0D01*
G01*
G37*
G36*
G01*
X51785000Y-132500000D02*
X51485000Y-132500000D01*
G75*
G02*
X51335000Y-132350000I0J150000D01*
G01*
X51335000Y-130700000D01*
G75*
G02*
X51485000Y-130550000I150000J0D01*
G01*
X51785000Y-130550000D01*
G75*
G02*
X51935000Y-130700000I0J-150000D01*
G01*
X51935000Y-132350000D01*
G75*
G02*
X51785000Y-132500000I-150000J0D01*
G01*
G37*
G36*
G01*
X50515000Y-132500000D02*
X50215000Y-132500000D01*
G75*
G02*
X50065000Y-132350000I0J150000D01*
G01*
X50065000Y-130700000D01*
G75*
G02*
X50215000Y-130550000I150000J0D01*
G01*
X50515000Y-130550000D01*
G75*
G02*
X50665000Y-130700000I0J-150000D01*
G01*
X50665000Y-132350000D01*
G75*
G02*
X50515000Y-132500000I-150000J0D01*
G01*
G37*
G36*
G01*
X49245000Y-132500000D02*
X48945000Y-132500000D01*
G75*
G02*
X48795000Y-132350000I0J150000D01*
G01*
X48795000Y-130700000D01*
G75*
G02*
X48945000Y-130550000I150000J0D01*
G01*
X49245000Y-130550000D01*
G75*
G02*
X49395000Y-130700000I0J-150000D01*
G01*
X49395000Y-132350000D01*
G75*
G02*
X49245000Y-132500000I-150000J0D01*
G01*
G37*
G36*
G01*
X47975000Y-132500000D02*
X47675000Y-132500000D01*
G75*
G02*
X47525000Y-132350000I0J150000D01*
G01*
X47525000Y-130700000D01*
G75*
G02*
X47675000Y-130550000I150000J0D01*
G01*
X47975000Y-130550000D01*
G75*
G02*
X48125000Y-130700000I0J-150000D01*
G01*
X48125000Y-132350000D01*
G75*
G02*
X47975000Y-132500000I-150000J0D01*
G01*
G37*
G36*
G01*
X46705000Y-132500000D02*
X46405000Y-132500000D01*
G75*
G02*
X46255000Y-132350000I0J150000D01*
G01*
X46255000Y-130700000D01*
G75*
G02*
X46405000Y-130550000I150000J0D01*
G01*
X46705000Y-130550000D01*
G75*
G02*
X46855000Y-130700000I0J-150000D01*
G01*
X46855000Y-132350000D01*
G75*
G02*
X46705000Y-132500000I-150000J0D01*
G01*
G37*
G36*
G01*
X46705000Y-137450000D02*
X46405000Y-137450000D01*
G75*
G02*
X46255000Y-137300000I0J150000D01*
G01*
X46255000Y-135650000D01*
G75*
G02*
X46405000Y-135500000I150000J0D01*
G01*
X46705000Y-135500000D01*
G75*
G02*
X46855000Y-135650000I0J-150000D01*
G01*
X46855000Y-137300000D01*
G75*
G02*
X46705000Y-137450000I-150000J0D01*
G01*
G37*
G36*
G01*
X47975000Y-137450000D02*
X47675000Y-137450000D01*
G75*
G02*
X47525000Y-137300000I0J150000D01*
G01*
X47525000Y-135650000D01*
G75*
G02*
X47675000Y-135500000I150000J0D01*
G01*
X47975000Y-135500000D01*
G75*
G02*
X48125000Y-135650000I0J-150000D01*
G01*
X48125000Y-137300000D01*
G75*
G02*
X47975000Y-137450000I-150000J0D01*
G01*
G37*
G36*
G01*
X49245000Y-137450000D02*
X48945000Y-137450000D01*
G75*
G02*
X48795000Y-137300000I0J150000D01*
G01*
X48795000Y-135650000D01*
G75*
G02*
X48945000Y-135500000I150000J0D01*
G01*
X49245000Y-135500000D01*
G75*
G02*
X49395000Y-135650000I0J-150000D01*
G01*
X49395000Y-137300000D01*
G75*
G02*
X49245000Y-137450000I-150000J0D01*
G01*
G37*
G36*
G01*
X50515000Y-137450000D02*
X50215000Y-137450000D01*
G75*
G02*
X50065000Y-137300000I0J150000D01*
G01*
X50065000Y-135650000D01*
G75*
G02*
X50215000Y-135500000I150000J0D01*
G01*
X50515000Y-135500000D01*
G75*
G02*
X50665000Y-135650000I0J-150000D01*
G01*
X50665000Y-137300000D01*
G75*
G02*
X50515000Y-137450000I-150000J0D01*
G01*
G37*
G36*
G01*
X51785000Y-137450000D02*
X51485000Y-137450000D01*
G75*
G02*
X51335000Y-137300000I0J150000D01*
G01*
X51335000Y-135650000D01*
G75*
G02*
X51485000Y-135500000I150000J0D01*
G01*
X51785000Y-135500000D01*
G75*
G02*
X51935000Y-135650000I0J-150000D01*
G01*
X51935000Y-137300000D01*
G75*
G02*
X51785000Y-137450000I-150000J0D01*
G01*
G37*
G36*
G01*
X53055000Y-137450000D02*
X52755000Y-137450000D01*
G75*
G02*
X52605000Y-137300000I0J150000D01*
G01*
X52605000Y-135650000D01*
G75*
G02*
X52755000Y-135500000I150000J0D01*
G01*
X53055000Y-135500000D01*
G75*
G02*
X53205000Y-135650000I0J-150000D01*
G01*
X53205000Y-137300000D01*
G75*
G02*
X53055000Y-137450000I-150000J0D01*
G01*
G37*
G36*
G01*
X54325000Y-137450000D02*
X54025000Y-137450000D01*
G75*
G02*
X53875000Y-137300000I0J150000D01*
G01*
X53875000Y-135650000D01*
G75*
G02*
X54025000Y-135500000I150000J0D01*
G01*
X54325000Y-135500000D01*
G75*
G02*
X54475000Y-135650000I0J-150000D01*
G01*
X54475000Y-137300000D01*
G75*
G02*
X54325000Y-137450000I-150000J0D01*
G01*
G37*
G36*
G01*
X55595000Y-137450000D02*
X55295000Y-137450000D01*
G75*
G02*
X55145000Y-137300000I0J150000D01*
G01*
X55145000Y-135650000D01*
G75*
G02*
X55295000Y-135500000I150000J0D01*
G01*
X55595000Y-135500000D01*
G75*
G02*
X55745000Y-135650000I0J-150000D01*
G01*
X55745000Y-137300000D01*
G75*
G02*
X55595000Y-137450000I-150000J0D01*
G01*
G37*
%TD*%
%TO.C,R20*%
G36*
G01*
X59625000Y-96375000D02*
X59625000Y-97625000D01*
G75*
G02*
X59375000Y-97875000I-250000J0D01*
G01*
X58625000Y-97875000D01*
G75*
G02*
X58375000Y-97625000I0J250000D01*
G01*
X58375000Y-96375000D01*
G75*
G02*
X58625000Y-96125000I250000J0D01*
G01*
X59375000Y-96125000D01*
G75*
G02*
X59625000Y-96375000I0J-250000D01*
G01*
G37*
G36*
G01*
X62425000Y-96375000D02*
X62425000Y-97625000D01*
G75*
G02*
X62175000Y-97875000I-250000J0D01*
G01*
X61425000Y-97875000D01*
G75*
G02*
X61175000Y-97625000I0J250000D01*
G01*
X61175000Y-96375000D01*
G75*
G02*
X61425000Y-96125000I250000J0D01*
G01*
X62175000Y-96125000D01*
G75*
G02*
X62425000Y-96375000I0J-250000D01*
G01*
G37*
%TD*%
%TO.C,R19*%
G36*
G01*
X52625000Y-96375000D02*
X52625000Y-97625000D01*
G75*
G02*
X52375000Y-97875000I-250000J0D01*
G01*
X51625000Y-97875000D01*
G75*
G02*
X51375000Y-97625000I0J250000D01*
G01*
X51375000Y-96375000D01*
G75*
G02*
X51625000Y-96125000I250000J0D01*
G01*
X52375000Y-96125000D01*
G75*
G02*
X52625000Y-96375000I0J-250000D01*
G01*
G37*
G36*
G01*
X55425000Y-96375000D02*
X55425000Y-97625000D01*
G75*
G02*
X55175000Y-97875000I-250000J0D01*
G01*
X54425000Y-97875000D01*
G75*
G02*
X54175000Y-97625000I0J250000D01*
G01*
X54175000Y-96375000D01*
G75*
G02*
X54425000Y-96125000I250000J0D01*
G01*
X55175000Y-96125000D01*
G75*
G02*
X55425000Y-96375000I0J-250000D01*
G01*
G37*
%TD*%
%TO.C,R18*%
G36*
G01*
X45625000Y-96375000D02*
X45625000Y-97625000D01*
G75*
G02*
X45375000Y-97875000I-250000J0D01*
G01*
X44625000Y-97875000D01*
G75*
G02*
X44375000Y-97625000I0J250000D01*
G01*
X44375000Y-96375000D01*
G75*
G02*
X44625000Y-96125000I250000J0D01*
G01*
X45375000Y-96125000D01*
G75*
G02*
X45625000Y-96375000I0J-250000D01*
G01*
G37*
G36*
G01*
X48425000Y-96375000D02*
X48425000Y-97625000D01*
G75*
G02*
X48175000Y-97875000I-250000J0D01*
G01*
X47425000Y-97875000D01*
G75*
G02*
X47175000Y-97625000I0J250000D01*
G01*
X47175000Y-96375000D01*
G75*
G02*
X47425000Y-96125000I250000J0D01*
G01*
X48175000Y-96125000D01*
G75*
G02*
X48425000Y-96375000I0J-250000D01*
G01*
G37*
%TD*%
%TO.C,R17*%
G36*
G01*
X38625000Y-96375000D02*
X38625000Y-97625000D01*
G75*
G02*
X38375000Y-97875000I-250000J0D01*
G01*
X37625000Y-97875000D01*
G75*
G02*
X37375000Y-97625000I0J250000D01*
G01*
X37375000Y-96375000D01*
G75*
G02*
X37625000Y-96125000I250000J0D01*
G01*
X38375000Y-96125000D01*
G75*
G02*
X38625000Y-96375000I0J-250000D01*
G01*
G37*
G36*
G01*
X41425000Y-96375000D02*
X41425000Y-97625000D01*
G75*
G02*
X41175000Y-97875000I-250000J0D01*
G01*
X40425000Y-97875000D01*
G75*
G02*
X40175000Y-97625000I0J250000D01*
G01*
X40175000Y-96375000D01*
G75*
G02*
X40425000Y-96125000I250000J0D01*
G01*
X41175000Y-96125000D01*
G75*
G02*
X41425000Y-96375000I0J-250000D01*
G01*
G37*
%TD*%
%TO.C,R16*%
G36*
G01*
X42815000Y-120005000D02*
X42815000Y-118755000D01*
G75*
G02*
X43065000Y-118505000I250000J0D01*
G01*
X43815000Y-118505000D01*
G75*
G02*
X44065000Y-118755000I0J-250000D01*
G01*
X44065000Y-120005000D01*
G75*
G02*
X43815000Y-120255000I-250000J0D01*
G01*
X43065000Y-120255000D01*
G75*
G02*
X42815000Y-120005000I0J250000D01*
G01*
G37*
G36*
G01*
X40015000Y-120005000D02*
X40015000Y-118755000D01*
G75*
G02*
X40265000Y-118505000I250000J0D01*
G01*
X41015000Y-118505000D01*
G75*
G02*
X41265000Y-118755000I0J-250000D01*
G01*
X41265000Y-120005000D01*
G75*
G02*
X41015000Y-120255000I-250000J0D01*
G01*
X40265000Y-120255000D01*
G75*
G02*
X40015000Y-120005000I0J250000D01*
G01*
G37*
%TD*%
%TO.C,R15*%
G36*
G01*
X42815000Y-117465000D02*
X42815000Y-116215000D01*
G75*
G02*
X43065000Y-115965000I250000J0D01*
G01*
X43815000Y-115965000D01*
G75*
G02*
X44065000Y-116215000I0J-250000D01*
G01*
X44065000Y-117465000D01*
G75*
G02*
X43815000Y-117715000I-250000J0D01*
G01*
X43065000Y-117715000D01*
G75*
G02*
X42815000Y-117465000I0J250000D01*
G01*
G37*
G36*
G01*
X40015000Y-117465000D02*
X40015000Y-116215000D01*
G75*
G02*
X40265000Y-115965000I250000J0D01*
G01*
X41015000Y-115965000D01*
G75*
G02*
X41265000Y-116215000I0J-250000D01*
G01*
X41265000Y-117465000D01*
G75*
G02*
X41015000Y-117715000I-250000J0D01*
G01*
X40265000Y-117715000D01*
G75*
G02*
X40015000Y-117465000I0J250000D01*
G01*
G37*
%TD*%
%TO.C,R14*%
G36*
G01*
X42815000Y-114925000D02*
X42815000Y-113675000D01*
G75*
G02*
X43065000Y-113425000I250000J0D01*
G01*
X43815000Y-113425000D01*
G75*
G02*
X44065000Y-113675000I0J-250000D01*
G01*
X44065000Y-114925000D01*
G75*
G02*
X43815000Y-115175000I-250000J0D01*
G01*
X43065000Y-115175000D01*
G75*
G02*
X42815000Y-114925000I0J250000D01*
G01*
G37*
G36*
G01*
X40015000Y-114925000D02*
X40015000Y-113675000D01*
G75*
G02*
X40265000Y-113425000I250000J0D01*
G01*
X41015000Y-113425000D01*
G75*
G02*
X41265000Y-113675000I0J-250000D01*
G01*
X41265000Y-114925000D01*
G75*
G02*
X41015000Y-115175000I-250000J0D01*
G01*
X40265000Y-115175000D01*
G75*
G02*
X40015000Y-114925000I0J250000D01*
G01*
G37*
%TD*%
%TO.C,R13*%
G36*
G01*
X42815000Y-112385000D02*
X42815000Y-111135000D01*
G75*
G02*
X43065000Y-110885000I250000J0D01*
G01*
X43815000Y-110885000D01*
G75*
G02*
X44065000Y-111135000I0J-250000D01*
G01*
X44065000Y-112385000D01*
G75*
G02*
X43815000Y-112635000I-250000J0D01*
G01*
X43065000Y-112635000D01*
G75*
G02*
X42815000Y-112385000I0J250000D01*
G01*
G37*
G36*
G01*
X40015000Y-112385000D02*
X40015000Y-111135000D01*
G75*
G02*
X40265000Y-110885000I250000J0D01*
G01*
X41015000Y-110885000D01*
G75*
G02*
X41265000Y-111135000I0J-250000D01*
G01*
X41265000Y-112385000D01*
G75*
G02*
X41015000Y-112635000I-250000J0D01*
G01*
X40265000Y-112635000D01*
G75*
G02*
X40015000Y-112385000I0J250000D01*
G01*
G37*
%TD*%
%TO.C,R12*%
G36*
G01*
X42815000Y-109845000D02*
X42815000Y-108595000D01*
G75*
G02*
X43065000Y-108345000I250000J0D01*
G01*
X43815000Y-108345000D01*
G75*
G02*
X44065000Y-108595000I0J-250000D01*
G01*
X44065000Y-109845000D01*
G75*
G02*
X43815000Y-110095000I-250000J0D01*
G01*
X43065000Y-110095000D01*
G75*
G02*
X42815000Y-109845000I0J250000D01*
G01*
G37*
G36*
G01*
X40015000Y-109845000D02*
X40015000Y-108595000D01*
G75*
G02*
X40265000Y-108345000I250000J0D01*
G01*
X41015000Y-108345000D01*
G75*
G02*
X41265000Y-108595000I0J-250000D01*
G01*
X41265000Y-109845000D01*
G75*
G02*
X41015000Y-110095000I-250000J0D01*
G01*
X40265000Y-110095000D01*
G75*
G02*
X40015000Y-109845000I0J250000D01*
G01*
G37*
%TD*%
%TO.C,R11*%
G36*
G01*
X42815000Y-107305000D02*
X42815000Y-106055000D01*
G75*
G02*
X43065000Y-105805000I250000J0D01*
G01*
X43815000Y-105805000D01*
G75*
G02*
X44065000Y-106055000I0J-250000D01*
G01*
X44065000Y-107305000D01*
G75*
G02*
X43815000Y-107555000I-250000J0D01*
G01*
X43065000Y-107555000D01*
G75*
G02*
X42815000Y-107305000I0J250000D01*
G01*
G37*
G36*
G01*
X40015000Y-107305000D02*
X40015000Y-106055000D01*
G75*
G02*
X40265000Y-105805000I250000J0D01*
G01*
X41015000Y-105805000D01*
G75*
G02*
X41265000Y-106055000I0J-250000D01*
G01*
X41265000Y-107305000D01*
G75*
G02*
X41015000Y-107555000I-250000J0D01*
G01*
X40265000Y-107555000D01*
G75*
G02*
X40015000Y-107305000I0J250000D01*
G01*
G37*
%TD*%
%TO.C,R10*%
G36*
G01*
X42815000Y-104765000D02*
X42815000Y-103515000D01*
G75*
G02*
X43065000Y-103265000I250000J0D01*
G01*
X43815000Y-103265000D01*
G75*
G02*
X44065000Y-103515000I0J-250000D01*
G01*
X44065000Y-104765000D01*
G75*
G02*
X43815000Y-105015000I-250000J0D01*
G01*
X43065000Y-105015000D01*
G75*
G02*
X42815000Y-104765000I0J250000D01*
G01*
G37*
G36*
G01*
X40015000Y-104765000D02*
X40015000Y-103515000D01*
G75*
G02*
X40265000Y-103265000I250000J0D01*
G01*
X41015000Y-103265000D01*
G75*
G02*
X41265000Y-103515000I0J-250000D01*
G01*
X41265000Y-104765000D01*
G75*
G02*
X41015000Y-105015000I-250000J0D01*
G01*
X40265000Y-105015000D01*
G75*
G02*
X40015000Y-104765000I0J250000D01*
G01*
G37*
%TD*%
%TO.C,R9*%
G36*
G01*
X42815000Y-102225000D02*
X42815000Y-100975000D01*
G75*
G02*
X43065000Y-100725000I250000J0D01*
G01*
X43815000Y-100725000D01*
G75*
G02*
X44065000Y-100975000I0J-250000D01*
G01*
X44065000Y-102225000D01*
G75*
G02*
X43815000Y-102475000I-250000J0D01*
G01*
X43065000Y-102475000D01*
G75*
G02*
X42815000Y-102225000I0J250000D01*
G01*
G37*
G36*
G01*
X40015000Y-102225000D02*
X40015000Y-100975000D01*
G75*
G02*
X40265000Y-100725000I250000J0D01*
G01*
X41015000Y-100725000D01*
G75*
G02*
X41265000Y-100975000I0J-250000D01*
G01*
X41265000Y-102225000D01*
G75*
G02*
X41015000Y-102475000I-250000J0D01*
G01*
X40265000Y-102475000D01*
G75*
G02*
X40015000Y-102225000I0J250000D01*
G01*
G37*
%TD*%
%TO.C,R8*%
G36*
G01*
X42815000Y-142865000D02*
X42815000Y-141615000D01*
G75*
G02*
X43065000Y-141365000I250000J0D01*
G01*
X43815000Y-141365000D01*
G75*
G02*
X44065000Y-141615000I0J-250000D01*
G01*
X44065000Y-142865000D01*
G75*
G02*
X43815000Y-143115000I-250000J0D01*
G01*
X43065000Y-143115000D01*
G75*
G02*
X42815000Y-142865000I0J250000D01*
G01*
G37*
G36*
G01*
X40015000Y-142865000D02*
X40015000Y-141615000D01*
G75*
G02*
X40265000Y-141365000I250000J0D01*
G01*
X41015000Y-141365000D01*
G75*
G02*
X41265000Y-141615000I0J-250000D01*
G01*
X41265000Y-142865000D01*
G75*
G02*
X41015000Y-143115000I-250000J0D01*
G01*
X40265000Y-143115000D01*
G75*
G02*
X40015000Y-142865000I0J250000D01*
G01*
G37*
%TD*%
%TO.C,R7*%
G36*
G01*
X42815000Y-140325000D02*
X42815000Y-139075000D01*
G75*
G02*
X43065000Y-138825000I250000J0D01*
G01*
X43815000Y-138825000D01*
G75*
G02*
X44065000Y-139075000I0J-250000D01*
G01*
X44065000Y-140325000D01*
G75*
G02*
X43815000Y-140575000I-250000J0D01*
G01*
X43065000Y-140575000D01*
G75*
G02*
X42815000Y-140325000I0J250000D01*
G01*
G37*
G36*
G01*
X40015000Y-140325000D02*
X40015000Y-139075000D01*
G75*
G02*
X40265000Y-138825000I250000J0D01*
G01*
X41015000Y-138825000D01*
G75*
G02*
X41265000Y-139075000I0J-250000D01*
G01*
X41265000Y-140325000D01*
G75*
G02*
X41015000Y-140575000I-250000J0D01*
G01*
X40265000Y-140575000D01*
G75*
G02*
X40015000Y-140325000I0J250000D01*
G01*
G37*
%TD*%
%TO.C,R6*%
G36*
G01*
X42815000Y-137785000D02*
X42815000Y-136535000D01*
G75*
G02*
X43065000Y-136285000I250000J0D01*
G01*
X43815000Y-136285000D01*
G75*
G02*
X44065000Y-136535000I0J-250000D01*
G01*
X44065000Y-137785000D01*
G75*
G02*
X43815000Y-138035000I-250000J0D01*
G01*
X43065000Y-138035000D01*
G75*
G02*
X42815000Y-137785000I0J250000D01*
G01*
G37*
G36*
G01*
X40015000Y-137785000D02*
X40015000Y-136535000D01*
G75*
G02*
X40265000Y-136285000I250000J0D01*
G01*
X41015000Y-136285000D01*
G75*
G02*
X41265000Y-136535000I0J-250000D01*
G01*
X41265000Y-137785000D01*
G75*
G02*
X41015000Y-138035000I-250000J0D01*
G01*
X40265000Y-138035000D01*
G75*
G02*
X40015000Y-137785000I0J250000D01*
G01*
G37*
%TD*%
%TO.C,R5*%
G36*
G01*
X42815000Y-135245000D02*
X42815000Y-133995000D01*
G75*
G02*
X43065000Y-133745000I250000J0D01*
G01*
X43815000Y-133745000D01*
G75*
G02*
X44065000Y-133995000I0J-250000D01*
G01*
X44065000Y-135245000D01*
G75*
G02*
X43815000Y-135495000I-250000J0D01*
G01*
X43065000Y-135495000D01*
G75*
G02*
X42815000Y-135245000I0J250000D01*
G01*
G37*
G36*
G01*
X40015000Y-135245000D02*
X40015000Y-133995000D01*
G75*
G02*
X40265000Y-133745000I250000J0D01*
G01*
X41015000Y-133745000D01*
G75*
G02*
X41265000Y-133995000I0J-250000D01*
G01*
X41265000Y-135245000D01*
G75*
G02*
X41015000Y-135495000I-250000J0D01*
G01*
X40265000Y-135495000D01*
G75*
G02*
X40015000Y-135245000I0J250000D01*
G01*
G37*
%TD*%
%TO.C,R4*%
G36*
G01*
X42815000Y-132705000D02*
X42815000Y-131455000D01*
G75*
G02*
X43065000Y-131205000I250000J0D01*
G01*
X43815000Y-131205000D01*
G75*
G02*
X44065000Y-131455000I0J-250000D01*
G01*
X44065000Y-132705000D01*
G75*
G02*
X43815000Y-132955000I-250000J0D01*
G01*
X43065000Y-132955000D01*
G75*
G02*
X42815000Y-132705000I0J250000D01*
G01*
G37*
G36*
G01*
X40015000Y-132705000D02*
X40015000Y-131455000D01*
G75*
G02*
X40265000Y-131205000I250000J0D01*
G01*
X41015000Y-131205000D01*
G75*
G02*
X41265000Y-131455000I0J-250000D01*
G01*
X41265000Y-132705000D01*
G75*
G02*
X41015000Y-132955000I-250000J0D01*
G01*
X40265000Y-132955000D01*
G75*
G02*
X40015000Y-132705000I0J250000D01*
G01*
G37*
%TD*%
%TO.C,R3*%
G36*
G01*
X42815000Y-130165000D02*
X42815000Y-128915000D01*
G75*
G02*
X43065000Y-128665000I250000J0D01*
G01*
X43815000Y-128665000D01*
G75*
G02*
X44065000Y-128915000I0J-250000D01*
G01*
X44065000Y-130165000D01*
G75*
G02*
X43815000Y-130415000I-250000J0D01*
G01*
X43065000Y-130415000D01*
G75*
G02*
X42815000Y-130165000I0J250000D01*
G01*
G37*
G36*
G01*
X40015000Y-130165000D02*
X40015000Y-128915000D01*
G75*
G02*
X40265000Y-128665000I250000J0D01*
G01*
X41015000Y-128665000D01*
G75*
G02*
X41265000Y-128915000I0J-250000D01*
G01*
X41265000Y-130165000D01*
G75*
G02*
X41015000Y-130415000I-250000J0D01*
G01*
X40265000Y-130415000D01*
G75*
G02*
X40015000Y-130165000I0J250000D01*
G01*
G37*
%TD*%
%TO.C,R2*%
G36*
G01*
X42815000Y-127625000D02*
X42815000Y-126375000D01*
G75*
G02*
X43065000Y-126125000I250000J0D01*
G01*
X43815000Y-126125000D01*
G75*
G02*
X44065000Y-126375000I0J-250000D01*
G01*
X44065000Y-127625000D01*
G75*
G02*
X43815000Y-127875000I-250000J0D01*
G01*
X43065000Y-127875000D01*
G75*
G02*
X42815000Y-127625000I0J250000D01*
G01*
G37*
G36*
G01*
X40015000Y-127625000D02*
X40015000Y-126375000D01*
G75*
G02*
X40265000Y-126125000I250000J0D01*
G01*
X41015000Y-126125000D01*
G75*
G02*
X41265000Y-126375000I0J-250000D01*
G01*
X41265000Y-127625000D01*
G75*
G02*
X41015000Y-127875000I-250000J0D01*
G01*
X40265000Y-127875000D01*
G75*
G02*
X40015000Y-127625000I0J250000D01*
G01*
G37*
%TD*%
%TO.C,R1*%
G36*
G01*
X42815000Y-125085000D02*
X42815000Y-123835000D01*
G75*
G02*
X43065000Y-123585000I250000J0D01*
G01*
X43815000Y-123585000D01*
G75*
G02*
X44065000Y-123835000I0J-250000D01*
G01*
X44065000Y-125085000D01*
G75*
G02*
X43815000Y-125335000I-250000J0D01*
G01*
X43065000Y-125335000D01*
G75*
G02*
X42815000Y-125085000I0J250000D01*
G01*
G37*
G36*
G01*
X40015000Y-125085000D02*
X40015000Y-123835000D01*
G75*
G02*
X40265000Y-123585000I250000J0D01*
G01*
X41015000Y-123585000D01*
G75*
G02*
X41265000Y-123835000I0J-250000D01*
G01*
X41265000Y-125085000D01*
G75*
G02*
X41015000Y-125335000I-250000J0D01*
G01*
X40265000Y-125335000D01*
G75*
G02*
X40015000Y-125085000I0J250000D01*
G01*
G37*
%TD*%
M02*
