%TF.GenerationSoftware,KiCad,Pcbnew,(5.1.6)-1*%
%TF.CreationDate,2021-02-15T17:49:45+00:00*%
%TF.ProjectId,p3module,70336d6f-6475-46c6-952e-6b696361645f,rev?*%
%TF.SameCoordinates,Original*%
%TF.FileFunction,Copper,L2,Bot*%
%TF.FilePolarity,Positive*%
%FSLAX46Y46*%
G04 Gerber Fmt 4.6, Leading zero omitted, Abs format (unit mm)*
G04 Created by KiCad (PCBNEW (5.1.6)-1) date 2021-02-15 17:49:45*
%MOMM*%
%LPD*%
G01*
G04 APERTURE LIST*
%TA.AperFunction,ComponentPad*%
%ADD10O,1.700000X1.700000*%
%TD*%
%TA.AperFunction,ComponentPad*%
%ADD11R,1.700000X1.700000*%
%TD*%
%TA.AperFunction,WasherPad*%
%ADD12C,4.000000*%
%TD*%
%TA.AperFunction,ComponentPad*%
%ADD13C,1.800000*%
%TD*%
%TA.AperFunction,ComponentPad*%
%ADD14R,1.800000X1.800000*%
%TD*%
%TA.AperFunction,ViaPad*%
%ADD15C,0.800000*%
%TD*%
%TA.AperFunction,Conductor*%
%ADD16C,0.500000*%
%TD*%
%TA.AperFunction,Conductor*%
%ADD17C,0.250000*%
%TD*%
%TA.AperFunction,Conductor*%
%ADD18C,0.254000*%
%TD*%
G04 APERTURE END LIST*
D10*
%TO.P,J2,20*%
%TO.N,/LED_DATA_IN*%
X62540000Y-103140000D03*
%TO.P,J2,19*%
%TO.N,GND*%
X60000000Y-103140000D03*
%TO.P,J2,18*%
%TO.N,/LED_CLOCK*%
X62540000Y-105680000D03*
%TO.P,J2,17*%
%TO.N,/IN_DATA_IN*%
X60000000Y-105680000D03*
%TO.P,J2,16*%
%TO.N,/LED_LATCH*%
X62540000Y-108220000D03*
%TO.P,J2,15*%
%TO.N,/IN_CLOCK_ENABLE*%
X60000000Y-108220000D03*
%TO.P,J2,14*%
%TO.N,/LED_DATA_OUT*%
X62540000Y-110760000D03*
%TO.P,J2,13*%
%TO.N,/IN_CLOCK*%
X60000000Y-110760000D03*
%TO.P,J2,12*%
%TO.N,/ANA_CHAN0*%
X62540000Y-113300000D03*
%TO.P,J2,11*%
%TO.N,/IN_LOAD*%
X60000000Y-113300000D03*
%TO.P,J2,10*%
%TO.N,/ANA_CHAN1*%
X62540000Y-115840000D03*
%TO.P,J2,9*%
%TO.N,/IN_DATA_OUT*%
X60000000Y-115840000D03*
%TO.P,J2,8*%
%TO.N,/ANA_CHAN2*%
X62540000Y-118380000D03*
%TO.P,J2,7*%
%TO.N,/OUT_DATA_OUT*%
X60000000Y-118380000D03*
%TO.P,J2,6*%
%TO.N,/ANA_OUT*%
X62540000Y-120920000D03*
%TO.P,J2,5*%
%TO.N,/OUT_LATCH*%
X60000000Y-120920000D03*
%TO.P,J2,4*%
%TO.N,Net-(J2-Pad4)*%
X62540000Y-123460000D03*
%TO.P,J2,3*%
%TO.N,/OUT_CLOCK*%
X60000000Y-123460000D03*
%TO.P,J2,2*%
%TO.N,VCC*%
X62540000Y-126000000D03*
D11*
%TO.P,J2,1*%
%TO.N,/OUT_DATA_IN*%
X60000000Y-126000000D03*
%TD*%
%TO.P,U4,16*%
%TO.N,VCC*%
%TA.AperFunction,SMDPad,CuDef*%
G36*
G01*
X52405000Y-87500000D02*
X52705000Y-87500000D01*
G75*
G02*
X52855000Y-87650000I0J-150000D01*
G01*
X52855000Y-89300000D01*
G75*
G02*
X52705000Y-89450000I-150000J0D01*
G01*
X52405000Y-89450000D01*
G75*
G02*
X52255000Y-89300000I0J150000D01*
G01*
X52255000Y-87650000D01*
G75*
G02*
X52405000Y-87500000I150000J0D01*
G01*
G37*
%TD.AperFunction*%
%TO.P,U4,15*%
%TO.N,/POT3*%
%TA.AperFunction,SMDPad,CuDef*%
G36*
G01*
X53675000Y-87500000D02*
X53975000Y-87500000D01*
G75*
G02*
X54125000Y-87650000I0J-150000D01*
G01*
X54125000Y-89300000D01*
G75*
G02*
X53975000Y-89450000I-150000J0D01*
G01*
X53675000Y-89450000D01*
G75*
G02*
X53525000Y-89300000I0J150000D01*
G01*
X53525000Y-87650000D01*
G75*
G02*
X53675000Y-87500000I150000J0D01*
G01*
G37*
%TD.AperFunction*%
%TO.P,U4,14*%
%TO.N,/POT2*%
%TA.AperFunction,SMDPad,CuDef*%
G36*
G01*
X54945000Y-87500000D02*
X55245000Y-87500000D01*
G75*
G02*
X55395000Y-87650000I0J-150000D01*
G01*
X55395000Y-89300000D01*
G75*
G02*
X55245000Y-89450000I-150000J0D01*
G01*
X54945000Y-89450000D01*
G75*
G02*
X54795000Y-89300000I0J150000D01*
G01*
X54795000Y-87650000D01*
G75*
G02*
X54945000Y-87500000I150000J0D01*
G01*
G37*
%TD.AperFunction*%
%TO.P,U4,13*%
%TO.N,/POT1*%
%TA.AperFunction,SMDPad,CuDef*%
G36*
G01*
X56215000Y-87500000D02*
X56515000Y-87500000D01*
G75*
G02*
X56665000Y-87650000I0J-150000D01*
G01*
X56665000Y-89300000D01*
G75*
G02*
X56515000Y-89450000I-150000J0D01*
G01*
X56215000Y-89450000D01*
G75*
G02*
X56065000Y-89300000I0J150000D01*
G01*
X56065000Y-87650000D01*
G75*
G02*
X56215000Y-87500000I150000J0D01*
G01*
G37*
%TD.AperFunction*%
%TO.P,U4,12*%
%TO.N,/POT4*%
%TA.AperFunction,SMDPad,CuDef*%
G36*
G01*
X57485000Y-87500000D02*
X57785000Y-87500000D01*
G75*
G02*
X57935000Y-87650000I0J-150000D01*
G01*
X57935000Y-89300000D01*
G75*
G02*
X57785000Y-89450000I-150000J0D01*
G01*
X57485000Y-89450000D01*
G75*
G02*
X57335000Y-89300000I0J150000D01*
G01*
X57335000Y-87650000D01*
G75*
G02*
X57485000Y-87500000I150000J0D01*
G01*
G37*
%TD.AperFunction*%
%TO.P,U4,11*%
%TO.N,/ANA_CHAN0*%
%TA.AperFunction,SMDPad,CuDef*%
G36*
G01*
X58755000Y-87500000D02*
X59055000Y-87500000D01*
G75*
G02*
X59205000Y-87650000I0J-150000D01*
G01*
X59205000Y-89300000D01*
G75*
G02*
X59055000Y-89450000I-150000J0D01*
G01*
X58755000Y-89450000D01*
G75*
G02*
X58605000Y-89300000I0J150000D01*
G01*
X58605000Y-87650000D01*
G75*
G02*
X58755000Y-87500000I150000J0D01*
G01*
G37*
%TD.AperFunction*%
%TO.P,U4,10*%
%TO.N,/ANA_CHAN1*%
%TA.AperFunction,SMDPad,CuDef*%
G36*
G01*
X60025000Y-87500000D02*
X60325000Y-87500000D01*
G75*
G02*
X60475000Y-87650000I0J-150000D01*
G01*
X60475000Y-89300000D01*
G75*
G02*
X60325000Y-89450000I-150000J0D01*
G01*
X60025000Y-89450000D01*
G75*
G02*
X59875000Y-89300000I0J150000D01*
G01*
X59875000Y-87650000D01*
G75*
G02*
X60025000Y-87500000I150000J0D01*
G01*
G37*
%TD.AperFunction*%
%TO.P,U4,9*%
%TO.N,/ANA_CHAN2*%
%TA.AperFunction,SMDPad,CuDef*%
G36*
G01*
X61295000Y-87500000D02*
X61595000Y-87500000D01*
G75*
G02*
X61745000Y-87650000I0J-150000D01*
G01*
X61745000Y-89300000D01*
G75*
G02*
X61595000Y-89450000I-150000J0D01*
G01*
X61295000Y-89450000D01*
G75*
G02*
X61145000Y-89300000I0J150000D01*
G01*
X61145000Y-87650000D01*
G75*
G02*
X61295000Y-87500000I150000J0D01*
G01*
G37*
%TD.AperFunction*%
%TO.P,U4,8*%
%TO.N,GND*%
%TA.AperFunction,SMDPad,CuDef*%
G36*
G01*
X61295000Y-82550000D02*
X61595000Y-82550000D01*
G75*
G02*
X61745000Y-82700000I0J-150000D01*
G01*
X61745000Y-84350000D01*
G75*
G02*
X61595000Y-84500000I-150000J0D01*
G01*
X61295000Y-84500000D01*
G75*
G02*
X61145000Y-84350000I0J150000D01*
G01*
X61145000Y-82700000D01*
G75*
G02*
X61295000Y-82550000I150000J0D01*
G01*
G37*
%TD.AperFunction*%
%TO.P,U4,7*%
%TA.AperFunction,SMDPad,CuDef*%
G36*
G01*
X60025000Y-82550000D02*
X60325000Y-82550000D01*
G75*
G02*
X60475000Y-82700000I0J-150000D01*
G01*
X60475000Y-84350000D01*
G75*
G02*
X60325000Y-84500000I-150000J0D01*
G01*
X60025000Y-84500000D01*
G75*
G02*
X59875000Y-84350000I0J150000D01*
G01*
X59875000Y-82700000D01*
G75*
G02*
X60025000Y-82550000I150000J0D01*
G01*
G37*
%TD.AperFunction*%
%TO.P,U4,6*%
%TA.AperFunction,SMDPad,CuDef*%
G36*
G01*
X58755000Y-82550000D02*
X59055000Y-82550000D01*
G75*
G02*
X59205000Y-82700000I0J-150000D01*
G01*
X59205000Y-84350000D01*
G75*
G02*
X59055000Y-84500000I-150000J0D01*
G01*
X58755000Y-84500000D01*
G75*
G02*
X58605000Y-84350000I0J150000D01*
G01*
X58605000Y-82700000D01*
G75*
G02*
X58755000Y-82550000I150000J0D01*
G01*
G37*
%TD.AperFunction*%
%TO.P,U4,5*%
%TO.N,Net-(U4-Pad5)*%
%TA.AperFunction,SMDPad,CuDef*%
G36*
G01*
X57485000Y-82550000D02*
X57785000Y-82550000D01*
G75*
G02*
X57935000Y-82700000I0J-150000D01*
G01*
X57935000Y-84350000D01*
G75*
G02*
X57785000Y-84500000I-150000J0D01*
G01*
X57485000Y-84500000D01*
G75*
G02*
X57335000Y-84350000I0J150000D01*
G01*
X57335000Y-82700000D01*
G75*
G02*
X57485000Y-82550000I150000J0D01*
G01*
G37*
%TD.AperFunction*%
%TO.P,U4,4*%
%TO.N,Net-(U4-Pad4)*%
%TA.AperFunction,SMDPad,CuDef*%
G36*
G01*
X56215000Y-82550000D02*
X56515000Y-82550000D01*
G75*
G02*
X56665000Y-82700000I0J-150000D01*
G01*
X56665000Y-84350000D01*
G75*
G02*
X56515000Y-84500000I-150000J0D01*
G01*
X56215000Y-84500000D01*
G75*
G02*
X56065000Y-84350000I0J150000D01*
G01*
X56065000Y-82700000D01*
G75*
G02*
X56215000Y-82550000I150000J0D01*
G01*
G37*
%TD.AperFunction*%
%TO.P,U4,3*%
%TO.N,/ANA_OUT*%
%TA.AperFunction,SMDPad,CuDef*%
G36*
G01*
X54945000Y-82550000D02*
X55245000Y-82550000D01*
G75*
G02*
X55395000Y-82700000I0J-150000D01*
G01*
X55395000Y-84350000D01*
G75*
G02*
X55245000Y-84500000I-150000J0D01*
G01*
X54945000Y-84500000D01*
G75*
G02*
X54795000Y-84350000I0J150000D01*
G01*
X54795000Y-82700000D01*
G75*
G02*
X54945000Y-82550000I150000J0D01*
G01*
G37*
%TD.AperFunction*%
%TO.P,U4,2*%
%TO.N,Net-(U4-Pad2)*%
%TA.AperFunction,SMDPad,CuDef*%
G36*
G01*
X53675000Y-82550000D02*
X53975000Y-82550000D01*
G75*
G02*
X54125000Y-82700000I0J-150000D01*
G01*
X54125000Y-84350000D01*
G75*
G02*
X53975000Y-84500000I-150000J0D01*
G01*
X53675000Y-84500000D01*
G75*
G02*
X53525000Y-84350000I0J150000D01*
G01*
X53525000Y-82700000D01*
G75*
G02*
X53675000Y-82550000I150000J0D01*
G01*
G37*
%TD.AperFunction*%
%TO.P,U4,1*%
%TO.N,Net-(U4-Pad1)*%
%TA.AperFunction,SMDPad,CuDef*%
G36*
G01*
X52405000Y-82550000D02*
X52705000Y-82550000D01*
G75*
G02*
X52855000Y-82700000I0J-150000D01*
G01*
X52855000Y-84350000D01*
G75*
G02*
X52705000Y-84500000I-150000J0D01*
G01*
X52405000Y-84500000D01*
G75*
G02*
X52255000Y-84350000I0J150000D01*
G01*
X52255000Y-82700000D01*
G75*
G02*
X52405000Y-82550000I150000J0D01*
G01*
G37*
%TD.AperFunction*%
%TD*%
%TO.P,U3,16*%
%TO.N,VCC*%
%TA.AperFunction,SMDPad,CuDef*%
G36*
G01*
X38405000Y-87500000D02*
X38705000Y-87500000D01*
G75*
G02*
X38855000Y-87650000I0J-150000D01*
G01*
X38855000Y-89300000D01*
G75*
G02*
X38705000Y-89450000I-150000J0D01*
G01*
X38405000Y-89450000D01*
G75*
G02*
X38255000Y-89300000I0J150000D01*
G01*
X38255000Y-87650000D01*
G75*
G02*
X38405000Y-87500000I150000J0D01*
G01*
G37*
%TD.AperFunction*%
%TO.P,U3,15*%
%TO.N,Net-(R17-Pad2)*%
%TA.AperFunction,SMDPad,CuDef*%
G36*
G01*
X39675000Y-87500000D02*
X39975000Y-87500000D01*
G75*
G02*
X40125000Y-87650000I0J-150000D01*
G01*
X40125000Y-89300000D01*
G75*
G02*
X39975000Y-89450000I-150000J0D01*
G01*
X39675000Y-89450000D01*
G75*
G02*
X39525000Y-89300000I0J150000D01*
G01*
X39525000Y-87650000D01*
G75*
G02*
X39675000Y-87500000I150000J0D01*
G01*
G37*
%TD.AperFunction*%
%TO.P,U3,14*%
%TO.N,/LED_DATA_IN*%
%TA.AperFunction,SMDPad,CuDef*%
G36*
G01*
X40945000Y-87500000D02*
X41245000Y-87500000D01*
G75*
G02*
X41395000Y-87650000I0J-150000D01*
G01*
X41395000Y-89300000D01*
G75*
G02*
X41245000Y-89450000I-150000J0D01*
G01*
X40945000Y-89450000D01*
G75*
G02*
X40795000Y-89300000I0J150000D01*
G01*
X40795000Y-87650000D01*
G75*
G02*
X40945000Y-87500000I150000J0D01*
G01*
G37*
%TD.AperFunction*%
%TO.P,U3,13*%
%TO.N,GND*%
%TA.AperFunction,SMDPad,CuDef*%
G36*
G01*
X42215000Y-87500000D02*
X42515000Y-87500000D01*
G75*
G02*
X42665000Y-87650000I0J-150000D01*
G01*
X42665000Y-89300000D01*
G75*
G02*
X42515000Y-89450000I-150000J0D01*
G01*
X42215000Y-89450000D01*
G75*
G02*
X42065000Y-89300000I0J150000D01*
G01*
X42065000Y-87650000D01*
G75*
G02*
X42215000Y-87500000I150000J0D01*
G01*
G37*
%TD.AperFunction*%
%TO.P,U3,12*%
%TO.N,/LED_LATCH*%
%TA.AperFunction,SMDPad,CuDef*%
G36*
G01*
X43485000Y-87500000D02*
X43785000Y-87500000D01*
G75*
G02*
X43935000Y-87650000I0J-150000D01*
G01*
X43935000Y-89300000D01*
G75*
G02*
X43785000Y-89450000I-150000J0D01*
G01*
X43485000Y-89450000D01*
G75*
G02*
X43335000Y-89300000I0J150000D01*
G01*
X43335000Y-87650000D01*
G75*
G02*
X43485000Y-87500000I150000J0D01*
G01*
G37*
%TD.AperFunction*%
%TO.P,U3,11*%
%TO.N,/LED_CLOCK*%
%TA.AperFunction,SMDPad,CuDef*%
G36*
G01*
X44755000Y-87500000D02*
X45055000Y-87500000D01*
G75*
G02*
X45205000Y-87650000I0J-150000D01*
G01*
X45205000Y-89300000D01*
G75*
G02*
X45055000Y-89450000I-150000J0D01*
G01*
X44755000Y-89450000D01*
G75*
G02*
X44605000Y-89300000I0J150000D01*
G01*
X44605000Y-87650000D01*
G75*
G02*
X44755000Y-87500000I150000J0D01*
G01*
G37*
%TD.AperFunction*%
%TO.P,U3,10*%
%TO.N,VCC*%
%TA.AperFunction,SMDPad,CuDef*%
G36*
G01*
X46025000Y-87500000D02*
X46325000Y-87500000D01*
G75*
G02*
X46475000Y-87650000I0J-150000D01*
G01*
X46475000Y-89300000D01*
G75*
G02*
X46325000Y-89450000I-150000J0D01*
G01*
X46025000Y-89450000D01*
G75*
G02*
X45875000Y-89300000I0J150000D01*
G01*
X45875000Y-87650000D01*
G75*
G02*
X46025000Y-87500000I150000J0D01*
G01*
G37*
%TD.AperFunction*%
%TO.P,U3,9*%
%TO.N,/LED_DATA_OUT*%
%TA.AperFunction,SMDPad,CuDef*%
G36*
G01*
X47295000Y-87500000D02*
X47595000Y-87500000D01*
G75*
G02*
X47745000Y-87650000I0J-150000D01*
G01*
X47745000Y-89300000D01*
G75*
G02*
X47595000Y-89450000I-150000J0D01*
G01*
X47295000Y-89450000D01*
G75*
G02*
X47145000Y-89300000I0J150000D01*
G01*
X47145000Y-87650000D01*
G75*
G02*
X47295000Y-87500000I150000J0D01*
G01*
G37*
%TD.AperFunction*%
%TO.P,U3,8*%
%TO.N,GND*%
%TA.AperFunction,SMDPad,CuDef*%
G36*
G01*
X47295000Y-82550000D02*
X47595000Y-82550000D01*
G75*
G02*
X47745000Y-82700000I0J-150000D01*
G01*
X47745000Y-84350000D01*
G75*
G02*
X47595000Y-84500000I-150000J0D01*
G01*
X47295000Y-84500000D01*
G75*
G02*
X47145000Y-84350000I0J150000D01*
G01*
X47145000Y-82700000D01*
G75*
G02*
X47295000Y-82550000I150000J0D01*
G01*
G37*
%TD.AperFunction*%
%TO.P,U3,7*%
%TO.N,Net-(U3-Pad7)*%
%TA.AperFunction,SMDPad,CuDef*%
G36*
G01*
X46025000Y-82550000D02*
X46325000Y-82550000D01*
G75*
G02*
X46475000Y-82700000I0J-150000D01*
G01*
X46475000Y-84350000D01*
G75*
G02*
X46325000Y-84500000I-150000J0D01*
G01*
X46025000Y-84500000D01*
G75*
G02*
X45875000Y-84350000I0J150000D01*
G01*
X45875000Y-82700000D01*
G75*
G02*
X46025000Y-82550000I150000J0D01*
G01*
G37*
%TD.AperFunction*%
%TO.P,U3,6*%
%TO.N,Net-(U3-Pad6)*%
%TA.AperFunction,SMDPad,CuDef*%
G36*
G01*
X44755000Y-82550000D02*
X45055000Y-82550000D01*
G75*
G02*
X45205000Y-82700000I0J-150000D01*
G01*
X45205000Y-84350000D01*
G75*
G02*
X45055000Y-84500000I-150000J0D01*
G01*
X44755000Y-84500000D01*
G75*
G02*
X44605000Y-84350000I0J150000D01*
G01*
X44605000Y-82700000D01*
G75*
G02*
X44755000Y-82550000I150000J0D01*
G01*
G37*
%TD.AperFunction*%
%TO.P,U3,5*%
%TO.N,Net-(U3-Pad5)*%
%TA.AperFunction,SMDPad,CuDef*%
G36*
G01*
X43485000Y-82550000D02*
X43785000Y-82550000D01*
G75*
G02*
X43935000Y-82700000I0J-150000D01*
G01*
X43935000Y-84350000D01*
G75*
G02*
X43785000Y-84500000I-150000J0D01*
G01*
X43485000Y-84500000D01*
G75*
G02*
X43335000Y-84350000I0J150000D01*
G01*
X43335000Y-82700000D01*
G75*
G02*
X43485000Y-82550000I150000J0D01*
G01*
G37*
%TD.AperFunction*%
%TO.P,U3,4*%
%TO.N,Net-(U3-Pad4)*%
%TA.AperFunction,SMDPad,CuDef*%
G36*
G01*
X42215000Y-82550000D02*
X42515000Y-82550000D01*
G75*
G02*
X42665000Y-82700000I0J-150000D01*
G01*
X42665000Y-84350000D01*
G75*
G02*
X42515000Y-84500000I-150000J0D01*
G01*
X42215000Y-84500000D01*
G75*
G02*
X42065000Y-84350000I0J150000D01*
G01*
X42065000Y-82700000D01*
G75*
G02*
X42215000Y-82550000I150000J0D01*
G01*
G37*
%TD.AperFunction*%
%TO.P,U3,3*%
%TO.N,Net-(R20-Pad2)*%
%TA.AperFunction,SMDPad,CuDef*%
G36*
G01*
X40945000Y-82550000D02*
X41245000Y-82550000D01*
G75*
G02*
X41395000Y-82700000I0J-150000D01*
G01*
X41395000Y-84350000D01*
G75*
G02*
X41245000Y-84500000I-150000J0D01*
G01*
X40945000Y-84500000D01*
G75*
G02*
X40795000Y-84350000I0J150000D01*
G01*
X40795000Y-82700000D01*
G75*
G02*
X40945000Y-82550000I150000J0D01*
G01*
G37*
%TD.AperFunction*%
%TO.P,U3,2*%
%TO.N,Net-(R19-Pad2)*%
%TA.AperFunction,SMDPad,CuDef*%
G36*
G01*
X39675000Y-82550000D02*
X39975000Y-82550000D01*
G75*
G02*
X40125000Y-82700000I0J-150000D01*
G01*
X40125000Y-84350000D01*
G75*
G02*
X39975000Y-84500000I-150000J0D01*
G01*
X39675000Y-84500000D01*
G75*
G02*
X39525000Y-84350000I0J150000D01*
G01*
X39525000Y-82700000D01*
G75*
G02*
X39675000Y-82550000I150000J0D01*
G01*
G37*
%TD.AperFunction*%
%TO.P,U3,1*%
%TO.N,Net-(R18-Pad2)*%
%TA.AperFunction,SMDPad,CuDef*%
G36*
G01*
X38405000Y-82550000D02*
X38705000Y-82550000D01*
G75*
G02*
X38855000Y-82700000I0J-150000D01*
G01*
X38855000Y-84350000D01*
G75*
G02*
X38705000Y-84500000I-150000J0D01*
G01*
X38405000Y-84500000D01*
G75*
G02*
X38255000Y-84350000I0J150000D01*
G01*
X38255000Y-82700000D01*
G75*
G02*
X38405000Y-82550000I150000J0D01*
G01*
G37*
%TD.AperFunction*%
%TD*%
%TO.P,U2,16*%
%TO.N,VCC*%
%TA.AperFunction,SMDPad,CuDef*%
G36*
G01*
X55595000Y-108500000D02*
X55295000Y-108500000D01*
G75*
G02*
X55145000Y-108350000I0J150000D01*
G01*
X55145000Y-106700000D01*
G75*
G02*
X55295000Y-106550000I150000J0D01*
G01*
X55595000Y-106550000D01*
G75*
G02*
X55745000Y-106700000I0J-150000D01*
G01*
X55745000Y-108350000D01*
G75*
G02*
X55595000Y-108500000I-150000J0D01*
G01*
G37*
%TD.AperFunction*%
%TO.P,U2,15*%
%TO.N,/IN_CLOCK_ENABLE*%
%TA.AperFunction,SMDPad,CuDef*%
G36*
G01*
X54325000Y-108500000D02*
X54025000Y-108500000D01*
G75*
G02*
X53875000Y-108350000I0J150000D01*
G01*
X53875000Y-106700000D01*
G75*
G02*
X54025000Y-106550000I150000J0D01*
G01*
X54325000Y-106550000D01*
G75*
G02*
X54475000Y-106700000I0J-150000D01*
G01*
X54475000Y-108350000D01*
G75*
G02*
X54325000Y-108500000I-150000J0D01*
G01*
G37*
%TD.AperFunction*%
%TO.P,U2,14*%
%TO.N,Net-(J3-Pad4)*%
%TA.AperFunction,SMDPad,CuDef*%
G36*
G01*
X53055000Y-108500000D02*
X52755000Y-108500000D01*
G75*
G02*
X52605000Y-108350000I0J150000D01*
G01*
X52605000Y-106700000D01*
G75*
G02*
X52755000Y-106550000I150000J0D01*
G01*
X53055000Y-106550000D01*
G75*
G02*
X53205000Y-106700000I0J-150000D01*
G01*
X53205000Y-108350000D01*
G75*
G02*
X53055000Y-108500000I-150000J0D01*
G01*
G37*
%TD.AperFunction*%
%TO.P,U2,13*%
%TO.N,Net-(J3-Pad3)*%
%TA.AperFunction,SMDPad,CuDef*%
G36*
G01*
X51785000Y-108500000D02*
X51485000Y-108500000D01*
G75*
G02*
X51335000Y-108350000I0J150000D01*
G01*
X51335000Y-106700000D01*
G75*
G02*
X51485000Y-106550000I150000J0D01*
G01*
X51785000Y-106550000D01*
G75*
G02*
X51935000Y-106700000I0J-150000D01*
G01*
X51935000Y-108350000D01*
G75*
G02*
X51785000Y-108500000I-150000J0D01*
G01*
G37*
%TD.AperFunction*%
%TO.P,U2,12*%
%TO.N,Net-(J3-Pad2)*%
%TA.AperFunction,SMDPad,CuDef*%
G36*
G01*
X50515000Y-108500000D02*
X50215000Y-108500000D01*
G75*
G02*
X50065000Y-108350000I0J150000D01*
G01*
X50065000Y-106700000D01*
G75*
G02*
X50215000Y-106550000I150000J0D01*
G01*
X50515000Y-106550000D01*
G75*
G02*
X50665000Y-106700000I0J-150000D01*
G01*
X50665000Y-108350000D01*
G75*
G02*
X50515000Y-108500000I-150000J0D01*
G01*
G37*
%TD.AperFunction*%
%TO.P,U2,11*%
%TO.N,Net-(J3-Pad1)*%
%TA.AperFunction,SMDPad,CuDef*%
G36*
G01*
X49245000Y-108500000D02*
X48945000Y-108500000D01*
G75*
G02*
X48795000Y-108350000I0J150000D01*
G01*
X48795000Y-106700000D01*
G75*
G02*
X48945000Y-106550000I150000J0D01*
G01*
X49245000Y-106550000D01*
G75*
G02*
X49395000Y-106700000I0J-150000D01*
G01*
X49395000Y-108350000D01*
G75*
G02*
X49245000Y-108500000I-150000J0D01*
G01*
G37*
%TD.AperFunction*%
%TO.P,U2,10*%
%TO.N,/IN_DATA_OUT*%
%TA.AperFunction,SMDPad,CuDef*%
G36*
G01*
X47975000Y-108500000D02*
X47675000Y-108500000D01*
G75*
G02*
X47525000Y-108350000I0J150000D01*
G01*
X47525000Y-106700000D01*
G75*
G02*
X47675000Y-106550000I150000J0D01*
G01*
X47975000Y-106550000D01*
G75*
G02*
X48125000Y-106700000I0J-150000D01*
G01*
X48125000Y-108350000D01*
G75*
G02*
X47975000Y-108500000I-150000J0D01*
G01*
G37*
%TD.AperFunction*%
%TO.P,U2,9*%
%TO.N,/IN_DATA_IN*%
%TA.AperFunction,SMDPad,CuDef*%
G36*
G01*
X46705000Y-108500000D02*
X46405000Y-108500000D01*
G75*
G02*
X46255000Y-108350000I0J150000D01*
G01*
X46255000Y-106700000D01*
G75*
G02*
X46405000Y-106550000I150000J0D01*
G01*
X46705000Y-106550000D01*
G75*
G02*
X46855000Y-106700000I0J-150000D01*
G01*
X46855000Y-108350000D01*
G75*
G02*
X46705000Y-108500000I-150000J0D01*
G01*
G37*
%TD.AperFunction*%
%TO.P,U2,8*%
%TO.N,GND*%
%TA.AperFunction,SMDPad,CuDef*%
G36*
G01*
X46705000Y-113450000D02*
X46405000Y-113450000D01*
G75*
G02*
X46255000Y-113300000I0J150000D01*
G01*
X46255000Y-111650000D01*
G75*
G02*
X46405000Y-111500000I150000J0D01*
G01*
X46705000Y-111500000D01*
G75*
G02*
X46855000Y-111650000I0J-150000D01*
G01*
X46855000Y-113300000D01*
G75*
G02*
X46705000Y-113450000I-150000J0D01*
G01*
G37*
%TD.AperFunction*%
%TO.P,U2,7*%
%TO.N,Net-(U2-Pad7)*%
%TA.AperFunction,SMDPad,CuDef*%
G36*
G01*
X47975000Y-113450000D02*
X47675000Y-113450000D01*
G75*
G02*
X47525000Y-113300000I0J150000D01*
G01*
X47525000Y-111650000D01*
G75*
G02*
X47675000Y-111500000I150000J0D01*
G01*
X47975000Y-111500000D01*
G75*
G02*
X48125000Y-111650000I0J-150000D01*
G01*
X48125000Y-113300000D01*
G75*
G02*
X47975000Y-113450000I-150000J0D01*
G01*
G37*
%TD.AperFunction*%
%TO.P,U2,6*%
%TO.N,Net-(J3-Pad8)*%
%TA.AperFunction,SMDPad,CuDef*%
G36*
G01*
X49245000Y-113450000D02*
X48945000Y-113450000D01*
G75*
G02*
X48795000Y-113300000I0J150000D01*
G01*
X48795000Y-111650000D01*
G75*
G02*
X48945000Y-111500000I150000J0D01*
G01*
X49245000Y-111500000D01*
G75*
G02*
X49395000Y-111650000I0J-150000D01*
G01*
X49395000Y-113300000D01*
G75*
G02*
X49245000Y-113450000I-150000J0D01*
G01*
G37*
%TD.AperFunction*%
%TO.P,U2,5*%
%TO.N,Net-(J3-Pad7)*%
%TA.AperFunction,SMDPad,CuDef*%
G36*
G01*
X50515000Y-113450000D02*
X50215000Y-113450000D01*
G75*
G02*
X50065000Y-113300000I0J150000D01*
G01*
X50065000Y-111650000D01*
G75*
G02*
X50215000Y-111500000I150000J0D01*
G01*
X50515000Y-111500000D01*
G75*
G02*
X50665000Y-111650000I0J-150000D01*
G01*
X50665000Y-113300000D01*
G75*
G02*
X50515000Y-113450000I-150000J0D01*
G01*
G37*
%TD.AperFunction*%
%TO.P,U2,4*%
%TO.N,Net-(J3-Pad6)*%
%TA.AperFunction,SMDPad,CuDef*%
G36*
G01*
X51785000Y-113450000D02*
X51485000Y-113450000D01*
G75*
G02*
X51335000Y-113300000I0J150000D01*
G01*
X51335000Y-111650000D01*
G75*
G02*
X51485000Y-111500000I150000J0D01*
G01*
X51785000Y-111500000D01*
G75*
G02*
X51935000Y-111650000I0J-150000D01*
G01*
X51935000Y-113300000D01*
G75*
G02*
X51785000Y-113450000I-150000J0D01*
G01*
G37*
%TD.AperFunction*%
%TO.P,U2,3*%
%TO.N,Net-(J3-Pad5)*%
%TA.AperFunction,SMDPad,CuDef*%
G36*
G01*
X53055000Y-113450000D02*
X52755000Y-113450000D01*
G75*
G02*
X52605000Y-113300000I0J150000D01*
G01*
X52605000Y-111650000D01*
G75*
G02*
X52755000Y-111500000I150000J0D01*
G01*
X53055000Y-111500000D01*
G75*
G02*
X53205000Y-111650000I0J-150000D01*
G01*
X53205000Y-113300000D01*
G75*
G02*
X53055000Y-113450000I-150000J0D01*
G01*
G37*
%TD.AperFunction*%
%TO.P,U2,2*%
%TO.N,/IN_CLOCK*%
%TA.AperFunction,SMDPad,CuDef*%
G36*
G01*
X54325000Y-113450000D02*
X54025000Y-113450000D01*
G75*
G02*
X53875000Y-113300000I0J150000D01*
G01*
X53875000Y-111650000D01*
G75*
G02*
X54025000Y-111500000I150000J0D01*
G01*
X54325000Y-111500000D01*
G75*
G02*
X54475000Y-111650000I0J-150000D01*
G01*
X54475000Y-113300000D01*
G75*
G02*
X54325000Y-113450000I-150000J0D01*
G01*
G37*
%TD.AperFunction*%
%TO.P,U2,1*%
%TO.N,/IN_LOAD*%
%TA.AperFunction,SMDPad,CuDef*%
G36*
G01*
X55595000Y-113450000D02*
X55295000Y-113450000D01*
G75*
G02*
X55145000Y-113300000I0J150000D01*
G01*
X55145000Y-111650000D01*
G75*
G02*
X55295000Y-111500000I150000J0D01*
G01*
X55595000Y-111500000D01*
G75*
G02*
X55745000Y-111650000I0J-150000D01*
G01*
X55745000Y-113300000D01*
G75*
G02*
X55595000Y-113450000I-150000J0D01*
G01*
G37*
%TD.AperFunction*%
%TD*%
%TO.P,U1,16*%
%TO.N,VCC*%
%TA.AperFunction,SMDPad,CuDef*%
G36*
G01*
X55595000Y-132500000D02*
X55295000Y-132500000D01*
G75*
G02*
X55145000Y-132350000I0J150000D01*
G01*
X55145000Y-130700000D01*
G75*
G02*
X55295000Y-130550000I150000J0D01*
G01*
X55595000Y-130550000D01*
G75*
G02*
X55745000Y-130700000I0J-150000D01*
G01*
X55745000Y-132350000D01*
G75*
G02*
X55595000Y-132500000I-150000J0D01*
G01*
G37*
%TD.AperFunction*%
%TO.P,U1,15*%
%TO.N,Net-(R1-Pad2)*%
%TA.AperFunction,SMDPad,CuDef*%
G36*
G01*
X54325000Y-132500000D02*
X54025000Y-132500000D01*
G75*
G02*
X53875000Y-132350000I0J150000D01*
G01*
X53875000Y-130700000D01*
G75*
G02*
X54025000Y-130550000I150000J0D01*
G01*
X54325000Y-130550000D01*
G75*
G02*
X54475000Y-130700000I0J-150000D01*
G01*
X54475000Y-132350000D01*
G75*
G02*
X54325000Y-132500000I-150000J0D01*
G01*
G37*
%TD.AperFunction*%
%TO.P,U1,14*%
%TO.N,/OUT_DATA_IN*%
%TA.AperFunction,SMDPad,CuDef*%
G36*
G01*
X53055000Y-132500000D02*
X52755000Y-132500000D01*
G75*
G02*
X52605000Y-132350000I0J150000D01*
G01*
X52605000Y-130700000D01*
G75*
G02*
X52755000Y-130550000I150000J0D01*
G01*
X53055000Y-130550000D01*
G75*
G02*
X53205000Y-130700000I0J-150000D01*
G01*
X53205000Y-132350000D01*
G75*
G02*
X53055000Y-132500000I-150000J0D01*
G01*
G37*
%TD.AperFunction*%
%TO.P,U1,13*%
%TO.N,GND*%
%TA.AperFunction,SMDPad,CuDef*%
G36*
G01*
X51785000Y-132500000D02*
X51485000Y-132500000D01*
G75*
G02*
X51335000Y-132350000I0J150000D01*
G01*
X51335000Y-130700000D01*
G75*
G02*
X51485000Y-130550000I150000J0D01*
G01*
X51785000Y-130550000D01*
G75*
G02*
X51935000Y-130700000I0J-150000D01*
G01*
X51935000Y-132350000D01*
G75*
G02*
X51785000Y-132500000I-150000J0D01*
G01*
G37*
%TD.AperFunction*%
%TO.P,U1,12*%
%TO.N,/OUT_LATCH*%
%TA.AperFunction,SMDPad,CuDef*%
G36*
G01*
X50515000Y-132500000D02*
X50215000Y-132500000D01*
G75*
G02*
X50065000Y-132350000I0J150000D01*
G01*
X50065000Y-130700000D01*
G75*
G02*
X50215000Y-130550000I150000J0D01*
G01*
X50515000Y-130550000D01*
G75*
G02*
X50665000Y-130700000I0J-150000D01*
G01*
X50665000Y-132350000D01*
G75*
G02*
X50515000Y-132500000I-150000J0D01*
G01*
G37*
%TD.AperFunction*%
%TO.P,U1,11*%
%TO.N,/OUT_CLOCK*%
%TA.AperFunction,SMDPad,CuDef*%
G36*
G01*
X49245000Y-132500000D02*
X48945000Y-132500000D01*
G75*
G02*
X48795000Y-132350000I0J150000D01*
G01*
X48795000Y-130700000D01*
G75*
G02*
X48945000Y-130550000I150000J0D01*
G01*
X49245000Y-130550000D01*
G75*
G02*
X49395000Y-130700000I0J-150000D01*
G01*
X49395000Y-132350000D01*
G75*
G02*
X49245000Y-132500000I-150000J0D01*
G01*
G37*
%TD.AperFunction*%
%TO.P,U1,10*%
%TO.N,VCC*%
%TA.AperFunction,SMDPad,CuDef*%
G36*
G01*
X47975000Y-132500000D02*
X47675000Y-132500000D01*
G75*
G02*
X47525000Y-132350000I0J150000D01*
G01*
X47525000Y-130700000D01*
G75*
G02*
X47675000Y-130550000I150000J0D01*
G01*
X47975000Y-130550000D01*
G75*
G02*
X48125000Y-130700000I0J-150000D01*
G01*
X48125000Y-132350000D01*
G75*
G02*
X47975000Y-132500000I-150000J0D01*
G01*
G37*
%TD.AperFunction*%
%TO.P,U1,9*%
%TO.N,/OUT_DATA_OUT*%
%TA.AperFunction,SMDPad,CuDef*%
G36*
G01*
X46705000Y-132500000D02*
X46405000Y-132500000D01*
G75*
G02*
X46255000Y-132350000I0J150000D01*
G01*
X46255000Y-130700000D01*
G75*
G02*
X46405000Y-130550000I150000J0D01*
G01*
X46705000Y-130550000D01*
G75*
G02*
X46855000Y-130700000I0J-150000D01*
G01*
X46855000Y-132350000D01*
G75*
G02*
X46705000Y-132500000I-150000J0D01*
G01*
G37*
%TD.AperFunction*%
%TO.P,U1,8*%
%TO.N,GND*%
%TA.AperFunction,SMDPad,CuDef*%
G36*
G01*
X46705000Y-137450000D02*
X46405000Y-137450000D01*
G75*
G02*
X46255000Y-137300000I0J150000D01*
G01*
X46255000Y-135650000D01*
G75*
G02*
X46405000Y-135500000I150000J0D01*
G01*
X46705000Y-135500000D01*
G75*
G02*
X46855000Y-135650000I0J-150000D01*
G01*
X46855000Y-137300000D01*
G75*
G02*
X46705000Y-137450000I-150000J0D01*
G01*
G37*
%TD.AperFunction*%
%TO.P,U1,7*%
%TO.N,Net-(R8-Pad2)*%
%TA.AperFunction,SMDPad,CuDef*%
G36*
G01*
X47975000Y-137450000D02*
X47675000Y-137450000D01*
G75*
G02*
X47525000Y-137300000I0J150000D01*
G01*
X47525000Y-135650000D01*
G75*
G02*
X47675000Y-135500000I150000J0D01*
G01*
X47975000Y-135500000D01*
G75*
G02*
X48125000Y-135650000I0J-150000D01*
G01*
X48125000Y-137300000D01*
G75*
G02*
X47975000Y-137450000I-150000J0D01*
G01*
G37*
%TD.AperFunction*%
%TO.P,U1,6*%
%TO.N,Net-(R7-Pad2)*%
%TA.AperFunction,SMDPad,CuDef*%
G36*
G01*
X49245000Y-137450000D02*
X48945000Y-137450000D01*
G75*
G02*
X48795000Y-137300000I0J150000D01*
G01*
X48795000Y-135650000D01*
G75*
G02*
X48945000Y-135500000I150000J0D01*
G01*
X49245000Y-135500000D01*
G75*
G02*
X49395000Y-135650000I0J-150000D01*
G01*
X49395000Y-137300000D01*
G75*
G02*
X49245000Y-137450000I-150000J0D01*
G01*
G37*
%TD.AperFunction*%
%TO.P,U1,5*%
%TO.N,Net-(R6-Pad2)*%
%TA.AperFunction,SMDPad,CuDef*%
G36*
G01*
X50515000Y-137450000D02*
X50215000Y-137450000D01*
G75*
G02*
X50065000Y-137300000I0J150000D01*
G01*
X50065000Y-135650000D01*
G75*
G02*
X50215000Y-135500000I150000J0D01*
G01*
X50515000Y-135500000D01*
G75*
G02*
X50665000Y-135650000I0J-150000D01*
G01*
X50665000Y-137300000D01*
G75*
G02*
X50515000Y-137450000I-150000J0D01*
G01*
G37*
%TD.AperFunction*%
%TO.P,U1,4*%
%TO.N,Net-(R5-Pad2)*%
%TA.AperFunction,SMDPad,CuDef*%
G36*
G01*
X51785000Y-137450000D02*
X51485000Y-137450000D01*
G75*
G02*
X51335000Y-137300000I0J150000D01*
G01*
X51335000Y-135650000D01*
G75*
G02*
X51485000Y-135500000I150000J0D01*
G01*
X51785000Y-135500000D01*
G75*
G02*
X51935000Y-135650000I0J-150000D01*
G01*
X51935000Y-137300000D01*
G75*
G02*
X51785000Y-137450000I-150000J0D01*
G01*
G37*
%TD.AperFunction*%
%TO.P,U1,3*%
%TO.N,Net-(R4-Pad2)*%
%TA.AperFunction,SMDPad,CuDef*%
G36*
G01*
X53055000Y-137450000D02*
X52755000Y-137450000D01*
G75*
G02*
X52605000Y-137300000I0J150000D01*
G01*
X52605000Y-135650000D01*
G75*
G02*
X52755000Y-135500000I150000J0D01*
G01*
X53055000Y-135500000D01*
G75*
G02*
X53205000Y-135650000I0J-150000D01*
G01*
X53205000Y-137300000D01*
G75*
G02*
X53055000Y-137450000I-150000J0D01*
G01*
G37*
%TD.AperFunction*%
%TO.P,U1,2*%
%TO.N,Net-(R3-Pad2)*%
%TA.AperFunction,SMDPad,CuDef*%
G36*
G01*
X54325000Y-137450000D02*
X54025000Y-137450000D01*
G75*
G02*
X53875000Y-137300000I0J150000D01*
G01*
X53875000Y-135650000D01*
G75*
G02*
X54025000Y-135500000I150000J0D01*
G01*
X54325000Y-135500000D01*
G75*
G02*
X54475000Y-135650000I0J-150000D01*
G01*
X54475000Y-137300000D01*
G75*
G02*
X54325000Y-137450000I-150000J0D01*
G01*
G37*
%TD.AperFunction*%
%TO.P,U1,1*%
%TO.N,Net-(R2-Pad2)*%
%TA.AperFunction,SMDPad,CuDef*%
G36*
G01*
X55595000Y-137450000D02*
X55295000Y-137450000D01*
G75*
G02*
X55145000Y-137300000I0J150000D01*
G01*
X55145000Y-135650000D01*
G75*
G02*
X55295000Y-135500000I150000J0D01*
G01*
X55595000Y-135500000D01*
G75*
G02*
X55745000Y-135650000I0J-150000D01*
G01*
X55745000Y-137300000D01*
G75*
G02*
X55595000Y-137450000I-150000J0D01*
G01*
G37*
%TD.AperFunction*%
%TD*%
%TO.P,R20,2*%
%TO.N,Net-(R20-Pad2)*%
%TA.AperFunction,SMDPad,CuDef*%
G36*
G01*
X59625000Y-96375000D02*
X59625000Y-97625000D01*
G75*
G02*
X59375000Y-97875000I-250000J0D01*
G01*
X58625000Y-97875000D01*
G75*
G02*
X58375000Y-97625000I0J250000D01*
G01*
X58375000Y-96375000D01*
G75*
G02*
X58625000Y-96125000I250000J0D01*
G01*
X59375000Y-96125000D01*
G75*
G02*
X59625000Y-96375000I0J-250000D01*
G01*
G37*
%TD.AperFunction*%
%TO.P,R20,1*%
%TO.N,Net-(D4-Pad2)*%
%TA.AperFunction,SMDPad,CuDef*%
G36*
G01*
X62425000Y-96375000D02*
X62425000Y-97625000D01*
G75*
G02*
X62175000Y-97875000I-250000J0D01*
G01*
X61425000Y-97875000D01*
G75*
G02*
X61175000Y-97625000I0J250000D01*
G01*
X61175000Y-96375000D01*
G75*
G02*
X61425000Y-96125000I250000J0D01*
G01*
X62175000Y-96125000D01*
G75*
G02*
X62425000Y-96375000I0J-250000D01*
G01*
G37*
%TD.AperFunction*%
%TD*%
%TO.P,R19,2*%
%TO.N,Net-(R19-Pad2)*%
%TA.AperFunction,SMDPad,CuDef*%
G36*
G01*
X52625000Y-96375000D02*
X52625000Y-97625000D01*
G75*
G02*
X52375000Y-97875000I-250000J0D01*
G01*
X51625000Y-97875000D01*
G75*
G02*
X51375000Y-97625000I0J250000D01*
G01*
X51375000Y-96375000D01*
G75*
G02*
X51625000Y-96125000I250000J0D01*
G01*
X52375000Y-96125000D01*
G75*
G02*
X52625000Y-96375000I0J-250000D01*
G01*
G37*
%TD.AperFunction*%
%TO.P,R19,1*%
%TO.N,Net-(D3-Pad2)*%
%TA.AperFunction,SMDPad,CuDef*%
G36*
G01*
X55425000Y-96375000D02*
X55425000Y-97625000D01*
G75*
G02*
X55175000Y-97875000I-250000J0D01*
G01*
X54425000Y-97875000D01*
G75*
G02*
X54175000Y-97625000I0J250000D01*
G01*
X54175000Y-96375000D01*
G75*
G02*
X54425000Y-96125000I250000J0D01*
G01*
X55175000Y-96125000D01*
G75*
G02*
X55425000Y-96375000I0J-250000D01*
G01*
G37*
%TD.AperFunction*%
%TD*%
%TO.P,R18,2*%
%TO.N,Net-(R18-Pad2)*%
%TA.AperFunction,SMDPad,CuDef*%
G36*
G01*
X45625000Y-96375000D02*
X45625000Y-97625000D01*
G75*
G02*
X45375000Y-97875000I-250000J0D01*
G01*
X44625000Y-97875000D01*
G75*
G02*
X44375000Y-97625000I0J250000D01*
G01*
X44375000Y-96375000D01*
G75*
G02*
X44625000Y-96125000I250000J0D01*
G01*
X45375000Y-96125000D01*
G75*
G02*
X45625000Y-96375000I0J-250000D01*
G01*
G37*
%TD.AperFunction*%
%TO.P,R18,1*%
%TO.N,Net-(D2-Pad2)*%
%TA.AperFunction,SMDPad,CuDef*%
G36*
G01*
X48425000Y-96375000D02*
X48425000Y-97625000D01*
G75*
G02*
X48175000Y-97875000I-250000J0D01*
G01*
X47425000Y-97875000D01*
G75*
G02*
X47175000Y-97625000I0J250000D01*
G01*
X47175000Y-96375000D01*
G75*
G02*
X47425000Y-96125000I250000J0D01*
G01*
X48175000Y-96125000D01*
G75*
G02*
X48425000Y-96375000I0J-250000D01*
G01*
G37*
%TD.AperFunction*%
%TD*%
%TO.P,R17,2*%
%TO.N,Net-(R17-Pad2)*%
%TA.AperFunction,SMDPad,CuDef*%
G36*
G01*
X38625000Y-96375000D02*
X38625000Y-97625000D01*
G75*
G02*
X38375000Y-97875000I-250000J0D01*
G01*
X37625000Y-97875000D01*
G75*
G02*
X37375000Y-97625000I0J250000D01*
G01*
X37375000Y-96375000D01*
G75*
G02*
X37625000Y-96125000I250000J0D01*
G01*
X38375000Y-96125000D01*
G75*
G02*
X38625000Y-96375000I0J-250000D01*
G01*
G37*
%TD.AperFunction*%
%TO.P,R17,1*%
%TO.N,Net-(D1-Pad2)*%
%TA.AperFunction,SMDPad,CuDef*%
G36*
G01*
X41425000Y-96375000D02*
X41425000Y-97625000D01*
G75*
G02*
X41175000Y-97875000I-250000J0D01*
G01*
X40425000Y-97875000D01*
G75*
G02*
X40175000Y-97625000I0J250000D01*
G01*
X40175000Y-96375000D01*
G75*
G02*
X40425000Y-96125000I250000J0D01*
G01*
X41175000Y-96125000D01*
G75*
G02*
X41425000Y-96375000I0J-250000D01*
G01*
G37*
%TD.AperFunction*%
%TD*%
%TO.P,R16,2*%
%TO.N,GND*%
%TA.AperFunction,SMDPad,CuDef*%
G36*
G01*
X42815000Y-120005000D02*
X42815000Y-118755000D01*
G75*
G02*
X43065000Y-118505000I250000J0D01*
G01*
X43815000Y-118505000D01*
G75*
G02*
X44065000Y-118755000I0J-250000D01*
G01*
X44065000Y-120005000D01*
G75*
G02*
X43815000Y-120255000I-250000J0D01*
G01*
X43065000Y-120255000D01*
G75*
G02*
X42815000Y-120005000I0J250000D01*
G01*
G37*
%TD.AperFunction*%
%TO.P,R16,1*%
%TO.N,Net-(J3-Pad8)*%
%TA.AperFunction,SMDPad,CuDef*%
G36*
G01*
X40015000Y-120005000D02*
X40015000Y-118755000D01*
G75*
G02*
X40265000Y-118505000I250000J0D01*
G01*
X41015000Y-118505000D01*
G75*
G02*
X41265000Y-118755000I0J-250000D01*
G01*
X41265000Y-120005000D01*
G75*
G02*
X41015000Y-120255000I-250000J0D01*
G01*
X40265000Y-120255000D01*
G75*
G02*
X40015000Y-120005000I0J250000D01*
G01*
G37*
%TD.AperFunction*%
%TD*%
%TO.P,R15,2*%
%TO.N,GND*%
%TA.AperFunction,SMDPad,CuDef*%
G36*
G01*
X42815000Y-117465000D02*
X42815000Y-116215000D01*
G75*
G02*
X43065000Y-115965000I250000J0D01*
G01*
X43815000Y-115965000D01*
G75*
G02*
X44065000Y-116215000I0J-250000D01*
G01*
X44065000Y-117465000D01*
G75*
G02*
X43815000Y-117715000I-250000J0D01*
G01*
X43065000Y-117715000D01*
G75*
G02*
X42815000Y-117465000I0J250000D01*
G01*
G37*
%TD.AperFunction*%
%TO.P,R15,1*%
%TO.N,Net-(J3-Pad7)*%
%TA.AperFunction,SMDPad,CuDef*%
G36*
G01*
X40015000Y-117465000D02*
X40015000Y-116215000D01*
G75*
G02*
X40265000Y-115965000I250000J0D01*
G01*
X41015000Y-115965000D01*
G75*
G02*
X41265000Y-116215000I0J-250000D01*
G01*
X41265000Y-117465000D01*
G75*
G02*
X41015000Y-117715000I-250000J0D01*
G01*
X40265000Y-117715000D01*
G75*
G02*
X40015000Y-117465000I0J250000D01*
G01*
G37*
%TD.AperFunction*%
%TD*%
%TO.P,R14,2*%
%TO.N,GND*%
%TA.AperFunction,SMDPad,CuDef*%
G36*
G01*
X42815000Y-114925000D02*
X42815000Y-113675000D01*
G75*
G02*
X43065000Y-113425000I250000J0D01*
G01*
X43815000Y-113425000D01*
G75*
G02*
X44065000Y-113675000I0J-250000D01*
G01*
X44065000Y-114925000D01*
G75*
G02*
X43815000Y-115175000I-250000J0D01*
G01*
X43065000Y-115175000D01*
G75*
G02*
X42815000Y-114925000I0J250000D01*
G01*
G37*
%TD.AperFunction*%
%TO.P,R14,1*%
%TO.N,Net-(J3-Pad6)*%
%TA.AperFunction,SMDPad,CuDef*%
G36*
G01*
X40015000Y-114925000D02*
X40015000Y-113675000D01*
G75*
G02*
X40265000Y-113425000I250000J0D01*
G01*
X41015000Y-113425000D01*
G75*
G02*
X41265000Y-113675000I0J-250000D01*
G01*
X41265000Y-114925000D01*
G75*
G02*
X41015000Y-115175000I-250000J0D01*
G01*
X40265000Y-115175000D01*
G75*
G02*
X40015000Y-114925000I0J250000D01*
G01*
G37*
%TD.AperFunction*%
%TD*%
%TO.P,R13,2*%
%TO.N,GND*%
%TA.AperFunction,SMDPad,CuDef*%
G36*
G01*
X42815000Y-112385000D02*
X42815000Y-111135000D01*
G75*
G02*
X43065000Y-110885000I250000J0D01*
G01*
X43815000Y-110885000D01*
G75*
G02*
X44065000Y-111135000I0J-250000D01*
G01*
X44065000Y-112385000D01*
G75*
G02*
X43815000Y-112635000I-250000J0D01*
G01*
X43065000Y-112635000D01*
G75*
G02*
X42815000Y-112385000I0J250000D01*
G01*
G37*
%TD.AperFunction*%
%TO.P,R13,1*%
%TO.N,Net-(J3-Pad5)*%
%TA.AperFunction,SMDPad,CuDef*%
G36*
G01*
X40015000Y-112385000D02*
X40015000Y-111135000D01*
G75*
G02*
X40265000Y-110885000I250000J0D01*
G01*
X41015000Y-110885000D01*
G75*
G02*
X41265000Y-111135000I0J-250000D01*
G01*
X41265000Y-112385000D01*
G75*
G02*
X41015000Y-112635000I-250000J0D01*
G01*
X40265000Y-112635000D01*
G75*
G02*
X40015000Y-112385000I0J250000D01*
G01*
G37*
%TD.AperFunction*%
%TD*%
%TO.P,R12,2*%
%TO.N,GND*%
%TA.AperFunction,SMDPad,CuDef*%
G36*
G01*
X42815000Y-109845000D02*
X42815000Y-108595000D01*
G75*
G02*
X43065000Y-108345000I250000J0D01*
G01*
X43815000Y-108345000D01*
G75*
G02*
X44065000Y-108595000I0J-250000D01*
G01*
X44065000Y-109845000D01*
G75*
G02*
X43815000Y-110095000I-250000J0D01*
G01*
X43065000Y-110095000D01*
G75*
G02*
X42815000Y-109845000I0J250000D01*
G01*
G37*
%TD.AperFunction*%
%TO.P,R12,1*%
%TO.N,Net-(J3-Pad4)*%
%TA.AperFunction,SMDPad,CuDef*%
G36*
G01*
X40015000Y-109845000D02*
X40015000Y-108595000D01*
G75*
G02*
X40265000Y-108345000I250000J0D01*
G01*
X41015000Y-108345000D01*
G75*
G02*
X41265000Y-108595000I0J-250000D01*
G01*
X41265000Y-109845000D01*
G75*
G02*
X41015000Y-110095000I-250000J0D01*
G01*
X40265000Y-110095000D01*
G75*
G02*
X40015000Y-109845000I0J250000D01*
G01*
G37*
%TD.AperFunction*%
%TD*%
%TO.P,R11,2*%
%TO.N,GND*%
%TA.AperFunction,SMDPad,CuDef*%
G36*
G01*
X42815000Y-107305000D02*
X42815000Y-106055000D01*
G75*
G02*
X43065000Y-105805000I250000J0D01*
G01*
X43815000Y-105805000D01*
G75*
G02*
X44065000Y-106055000I0J-250000D01*
G01*
X44065000Y-107305000D01*
G75*
G02*
X43815000Y-107555000I-250000J0D01*
G01*
X43065000Y-107555000D01*
G75*
G02*
X42815000Y-107305000I0J250000D01*
G01*
G37*
%TD.AperFunction*%
%TO.P,R11,1*%
%TO.N,Net-(J3-Pad3)*%
%TA.AperFunction,SMDPad,CuDef*%
G36*
G01*
X40015000Y-107305000D02*
X40015000Y-106055000D01*
G75*
G02*
X40265000Y-105805000I250000J0D01*
G01*
X41015000Y-105805000D01*
G75*
G02*
X41265000Y-106055000I0J-250000D01*
G01*
X41265000Y-107305000D01*
G75*
G02*
X41015000Y-107555000I-250000J0D01*
G01*
X40265000Y-107555000D01*
G75*
G02*
X40015000Y-107305000I0J250000D01*
G01*
G37*
%TD.AperFunction*%
%TD*%
%TO.P,R10,2*%
%TO.N,GND*%
%TA.AperFunction,SMDPad,CuDef*%
G36*
G01*
X42815000Y-104765000D02*
X42815000Y-103515000D01*
G75*
G02*
X43065000Y-103265000I250000J0D01*
G01*
X43815000Y-103265000D01*
G75*
G02*
X44065000Y-103515000I0J-250000D01*
G01*
X44065000Y-104765000D01*
G75*
G02*
X43815000Y-105015000I-250000J0D01*
G01*
X43065000Y-105015000D01*
G75*
G02*
X42815000Y-104765000I0J250000D01*
G01*
G37*
%TD.AperFunction*%
%TO.P,R10,1*%
%TO.N,Net-(J3-Pad2)*%
%TA.AperFunction,SMDPad,CuDef*%
G36*
G01*
X40015000Y-104765000D02*
X40015000Y-103515000D01*
G75*
G02*
X40265000Y-103265000I250000J0D01*
G01*
X41015000Y-103265000D01*
G75*
G02*
X41265000Y-103515000I0J-250000D01*
G01*
X41265000Y-104765000D01*
G75*
G02*
X41015000Y-105015000I-250000J0D01*
G01*
X40265000Y-105015000D01*
G75*
G02*
X40015000Y-104765000I0J250000D01*
G01*
G37*
%TD.AperFunction*%
%TD*%
%TO.P,R9,2*%
%TO.N,GND*%
%TA.AperFunction,SMDPad,CuDef*%
G36*
G01*
X42815000Y-102225000D02*
X42815000Y-100975000D01*
G75*
G02*
X43065000Y-100725000I250000J0D01*
G01*
X43815000Y-100725000D01*
G75*
G02*
X44065000Y-100975000I0J-250000D01*
G01*
X44065000Y-102225000D01*
G75*
G02*
X43815000Y-102475000I-250000J0D01*
G01*
X43065000Y-102475000D01*
G75*
G02*
X42815000Y-102225000I0J250000D01*
G01*
G37*
%TD.AperFunction*%
%TO.P,R9,1*%
%TO.N,Net-(J3-Pad1)*%
%TA.AperFunction,SMDPad,CuDef*%
G36*
G01*
X40015000Y-102225000D02*
X40015000Y-100975000D01*
G75*
G02*
X40265000Y-100725000I250000J0D01*
G01*
X41015000Y-100725000D01*
G75*
G02*
X41265000Y-100975000I0J-250000D01*
G01*
X41265000Y-102225000D01*
G75*
G02*
X41015000Y-102475000I-250000J0D01*
G01*
X40265000Y-102475000D01*
G75*
G02*
X40015000Y-102225000I0J250000D01*
G01*
G37*
%TD.AperFunction*%
%TD*%
%TO.P,R8,2*%
%TO.N,Net-(R8-Pad2)*%
%TA.AperFunction,SMDPad,CuDef*%
G36*
G01*
X42815000Y-142865000D02*
X42815000Y-141615000D01*
G75*
G02*
X43065000Y-141365000I250000J0D01*
G01*
X43815000Y-141365000D01*
G75*
G02*
X44065000Y-141615000I0J-250000D01*
G01*
X44065000Y-142865000D01*
G75*
G02*
X43815000Y-143115000I-250000J0D01*
G01*
X43065000Y-143115000D01*
G75*
G02*
X42815000Y-142865000I0J250000D01*
G01*
G37*
%TD.AperFunction*%
%TO.P,R8,1*%
%TO.N,Net-(J1-Pad8)*%
%TA.AperFunction,SMDPad,CuDef*%
G36*
G01*
X40015000Y-142865000D02*
X40015000Y-141615000D01*
G75*
G02*
X40265000Y-141365000I250000J0D01*
G01*
X41015000Y-141365000D01*
G75*
G02*
X41265000Y-141615000I0J-250000D01*
G01*
X41265000Y-142865000D01*
G75*
G02*
X41015000Y-143115000I-250000J0D01*
G01*
X40265000Y-143115000D01*
G75*
G02*
X40015000Y-142865000I0J250000D01*
G01*
G37*
%TD.AperFunction*%
%TD*%
%TO.P,R7,2*%
%TO.N,Net-(R7-Pad2)*%
%TA.AperFunction,SMDPad,CuDef*%
G36*
G01*
X42815000Y-140325000D02*
X42815000Y-139075000D01*
G75*
G02*
X43065000Y-138825000I250000J0D01*
G01*
X43815000Y-138825000D01*
G75*
G02*
X44065000Y-139075000I0J-250000D01*
G01*
X44065000Y-140325000D01*
G75*
G02*
X43815000Y-140575000I-250000J0D01*
G01*
X43065000Y-140575000D01*
G75*
G02*
X42815000Y-140325000I0J250000D01*
G01*
G37*
%TD.AperFunction*%
%TO.P,R7,1*%
%TO.N,Net-(J1-Pad7)*%
%TA.AperFunction,SMDPad,CuDef*%
G36*
G01*
X40015000Y-140325000D02*
X40015000Y-139075000D01*
G75*
G02*
X40265000Y-138825000I250000J0D01*
G01*
X41015000Y-138825000D01*
G75*
G02*
X41265000Y-139075000I0J-250000D01*
G01*
X41265000Y-140325000D01*
G75*
G02*
X41015000Y-140575000I-250000J0D01*
G01*
X40265000Y-140575000D01*
G75*
G02*
X40015000Y-140325000I0J250000D01*
G01*
G37*
%TD.AperFunction*%
%TD*%
%TO.P,R6,2*%
%TO.N,Net-(R6-Pad2)*%
%TA.AperFunction,SMDPad,CuDef*%
G36*
G01*
X42815000Y-137785000D02*
X42815000Y-136535000D01*
G75*
G02*
X43065000Y-136285000I250000J0D01*
G01*
X43815000Y-136285000D01*
G75*
G02*
X44065000Y-136535000I0J-250000D01*
G01*
X44065000Y-137785000D01*
G75*
G02*
X43815000Y-138035000I-250000J0D01*
G01*
X43065000Y-138035000D01*
G75*
G02*
X42815000Y-137785000I0J250000D01*
G01*
G37*
%TD.AperFunction*%
%TO.P,R6,1*%
%TO.N,Net-(J1-Pad6)*%
%TA.AperFunction,SMDPad,CuDef*%
G36*
G01*
X40015000Y-137785000D02*
X40015000Y-136535000D01*
G75*
G02*
X40265000Y-136285000I250000J0D01*
G01*
X41015000Y-136285000D01*
G75*
G02*
X41265000Y-136535000I0J-250000D01*
G01*
X41265000Y-137785000D01*
G75*
G02*
X41015000Y-138035000I-250000J0D01*
G01*
X40265000Y-138035000D01*
G75*
G02*
X40015000Y-137785000I0J250000D01*
G01*
G37*
%TD.AperFunction*%
%TD*%
%TO.P,R5,2*%
%TO.N,Net-(R5-Pad2)*%
%TA.AperFunction,SMDPad,CuDef*%
G36*
G01*
X42815000Y-135245000D02*
X42815000Y-133995000D01*
G75*
G02*
X43065000Y-133745000I250000J0D01*
G01*
X43815000Y-133745000D01*
G75*
G02*
X44065000Y-133995000I0J-250000D01*
G01*
X44065000Y-135245000D01*
G75*
G02*
X43815000Y-135495000I-250000J0D01*
G01*
X43065000Y-135495000D01*
G75*
G02*
X42815000Y-135245000I0J250000D01*
G01*
G37*
%TD.AperFunction*%
%TO.P,R5,1*%
%TO.N,Net-(J1-Pad5)*%
%TA.AperFunction,SMDPad,CuDef*%
G36*
G01*
X40015000Y-135245000D02*
X40015000Y-133995000D01*
G75*
G02*
X40265000Y-133745000I250000J0D01*
G01*
X41015000Y-133745000D01*
G75*
G02*
X41265000Y-133995000I0J-250000D01*
G01*
X41265000Y-135245000D01*
G75*
G02*
X41015000Y-135495000I-250000J0D01*
G01*
X40265000Y-135495000D01*
G75*
G02*
X40015000Y-135245000I0J250000D01*
G01*
G37*
%TD.AperFunction*%
%TD*%
%TO.P,R4,2*%
%TO.N,Net-(R4-Pad2)*%
%TA.AperFunction,SMDPad,CuDef*%
G36*
G01*
X42815000Y-132705000D02*
X42815000Y-131455000D01*
G75*
G02*
X43065000Y-131205000I250000J0D01*
G01*
X43815000Y-131205000D01*
G75*
G02*
X44065000Y-131455000I0J-250000D01*
G01*
X44065000Y-132705000D01*
G75*
G02*
X43815000Y-132955000I-250000J0D01*
G01*
X43065000Y-132955000D01*
G75*
G02*
X42815000Y-132705000I0J250000D01*
G01*
G37*
%TD.AperFunction*%
%TO.P,R4,1*%
%TO.N,Net-(J1-Pad4)*%
%TA.AperFunction,SMDPad,CuDef*%
G36*
G01*
X40015000Y-132705000D02*
X40015000Y-131455000D01*
G75*
G02*
X40265000Y-131205000I250000J0D01*
G01*
X41015000Y-131205000D01*
G75*
G02*
X41265000Y-131455000I0J-250000D01*
G01*
X41265000Y-132705000D01*
G75*
G02*
X41015000Y-132955000I-250000J0D01*
G01*
X40265000Y-132955000D01*
G75*
G02*
X40015000Y-132705000I0J250000D01*
G01*
G37*
%TD.AperFunction*%
%TD*%
%TO.P,R3,2*%
%TO.N,Net-(R3-Pad2)*%
%TA.AperFunction,SMDPad,CuDef*%
G36*
G01*
X42815000Y-130165000D02*
X42815000Y-128915000D01*
G75*
G02*
X43065000Y-128665000I250000J0D01*
G01*
X43815000Y-128665000D01*
G75*
G02*
X44065000Y-128915000I0J-250000D01*
G01*
X44065000Y-130165000D01*
G75*
G02*
X43815000Y-130415000I-250000J0D01*
G01*
X43065000Y-130415000D01*
G75*
G02*
X42815000Y-130165000I0J250000D01*
G01*
G37*
%TD.AperFunction*%
%TO.P,R3,1*%
%TO.N,Net-(J1-Pad3)*%
%TA.AperFunction,SMDPad,CuDef*%
G36*
G01*
X40015000Y-130165000D02*
X40015000Y-128915000D01*
G75*
G02*
X40265000Y-128665000I250000J0D01*
G01*
X41015000Y-128665000D01*
G75*
G02*
X41265000Y-128915000I0J-250000D01*
G01*
X41265000Y-130165000D01*
G75*
G02*
X41015000Y-130415000I-250000J0D01*
G01*
X40265000Y-130415000D01*
G75*
G02*
X40015000Y-130165000I0J250000D01*
G01*
G37*
%TD.AperFunction*%
%TD*%
%TO.P,R2,2*%
%TO.N,Net-(R2-Pad2)*%
%TA.AperFunction,SMDPad,CuDef*%
G36*
G01*
X42815000Y-127625000D02*
X42815000Y-126375000D01*
G75*
G02*
X43065000Y-126125000I250000J0D01*
G01*
X43815000Y-126125000D01*
G75*
G02*
X44065000Y-126375000I0J-250000D01*
G01*
X44065000Y-127625000D01*
G75*
G02*
X43815000Y-127875000I-250000J0D01*
G01*
X43065000Y-127875000D01*
G75*
G02*
X42815000Y-127625000I0J250000D01*
G01*
G37*
%TD.AperFunction*%
%TO.P,R2,1*%
%TO.N,Net-(J1-Pad2)*%
%TA.AperFunction,SMDPad,CuDef*%
G36*
G01*
X40015000Y-127625000D02*
X40015000Y-126375000D01*
G75*
G02*
X40265000Y-126125000I250000J0D01*
G01*
X41015000Y-126125000D01*
G75*
G02*
X41265000Y-126375000I0J-250000D01*
G01*
X41265000Y-127625000D01*
G75*
G02*
X41015000Y-127875000I-250000J0D01*
G01*
X40265000Y-127875000D01*
G75*
G02*
X40015000Y-127625000I0J250000D01*
G01*
G37*
%TD.AperFunction*%
%TD*%
%TO.P,R1,2*%
%TO.N,Net-(R1-Pad2)*%
%TA.AperFunction,SMDPad,CuDef*%
G36*
G01*
X42815000Y-125085000D02*
X42815000Y-123835000D01*
G75*
G02*
X43065000Y-123585000I250000J0D01*
G01*
X43815000Y-123585000D01*
G75*
G02*
X44065000Y-123835000I0J-250000D01*
G01*
X44065000Y-125085000D01*
G75*
G02*
X43815000Y-125335000I-250000J0D01*
G01*
X43065000Y-125335000D01*
G75*
G02*
X42815000Y-125085000I0J250000D01*
G01*
G37*
%TD.AperFunction*%
%TO.P,R1,1*%
%TO.N,Net-(J1-Pad1)*%
%TA.AperFunction,SMDPad,CuDef*%
G36*
G01*
X40015000Y-125085000D02*
X40015000Y-123835000D01*
G75*
G02*
X40265000Y-123585000I250000J0D01*
G01*
X41015000Y-123585000D01*
G75*
G02*
X41265000Y-123835000I0J-250000D01*
G01*
X41265000Y-125085000D01*
G75*
G02*
X41015000Y-125335000I-250000J0D01*
G01*
X40265000Y-125335000D01*
G75*
G02*
X40015000Y-125085000I0J250000D01*
G01*
G37*
%TD.AperFunction*%
%TD*%
D12*
%TO.P,RV4,*%
%TO.N,*%
X61900000Y-73000000D03*
X53100000Y-73000000D03*
D13*
%TO.P,RV4,1*%
%TO.N,VCC*%
X60000000Y-80000000D03*
%TO.P,RV4,2*%
%TO.N,/POT4*%
X57500000Y-80000000D03*
%TO.P,RV4,3*%
%TO.N,GND*%
X55000000Y-80000000D03*
%TD*%
D12*
%TO.P,RV3,*%
%TO.N,*%
X46900000Y-73000000D03*
X38100000Y-73000000D03*
D13*
%TO.P,RV3,1*%
%TO.N,VCC*%
X45000000Y-80000000D03*
%TO.P,RV3,2*%
%TO.N,/POT3*%
X42500000Y-80000000D03*
%TO.P,RV3,3*%
%TO.N,GND*%
X40000000Y-80000000D03*
%TD*%
D12*
%TO.P,RV2,*%
%TO.N,*%
X61900000Y-52000000D03*
X53100000Y-52000000D03*
D13*
%TO.P,RV2,1*%
%TO.N,VCC*%
X60000000Y-59000000D03*
%TO.P,RV2,2*%
%TO.N,/POT2*%
X57500000Y-59000000D03*
%TO.P,RV2,3*%
%TO.N,GND*%
X55000000Y-59000000D03*
%TD*%
D12*
%TO.P,RV1,*%
%TO.N,*%
X46900000Y-52000000D03*
X38100000Y-52000000D03*
D13*
%TO.P,RV1,1*%
%TO.N,VCC*%
X45000000Y-59000000D03*
%TO.P,RV1,2*%
%TO.N,/POT1*%
X42500000Y-59000000D03*
%TO.P,RV1,3*%
%TO.N,GND*%
X40000000Y-59000000D03*
%TD*%
D10*
%TO.P,J3,8*%
%TO.N,Net-(J3-Pad8)*%
X38100000Y-119380000D03*
%TO.P,J3,7*%
%TO.N,Net-(J3-Pad7)*%
X38100000Y-116840000D03*
%TO.P,J3,6*%
%TO.N,Net-(J3-Pad6)*%
X38100000Y-114300000D03*
%TO.P,J3,5*%
%TO.N,Net-(J3-Pad5)*%
X38100000Y-111760000D03*
%TO.P,J3,4*%
%TO.N,Net-(J3-Pad4)*%
X38100000Y-109220000D03*
%TO.P,J3,3*%
%TO.N,Net-(J3-Pad3)*%
X38100000Y-106680000D03*
%TO.P,J3,2*%
%TO.N,Net-(J3-Pad2)*%
X38100000Y-104140000D03*
D11*
%TO.P,J3,1*%
%TO.N,Net-(J3-Pad1)*%
X38100000Y-101600000D03*
%TD*%
D10*
%TO.P,J1,8*%
%TO.N,Net-(J1-Pad8)*%
X38100000Y-142240000D03*
%TO.P,J1,7*%
%TO.N,Net-(J1-Pad7)*%
X38100000Y-139700000D03*
%TO.P,J1,6*%
%TO.N,Net-(J1-Pad6)*%
X38100000Y-137160000D03*
%TO.P,J1,5*%
%TO.N,Net-(J1-Pad5)*%
X38100000Y-134620000D03*
%TO.P,J1,4*%
%TO.N,Net-(J1-Pad4)*%
X38100000Y-132080000D03*
%TO.P,J1,3*%
%TO.N,Net-(J1-Pad3)*%
X38100000Y-129540000D03*
%TO.P,J1,2*%
%TO.N,Net-(J1-Pad2)*%
X38100000Y-127000000D03*
D11*
%TO.P,J1,1*%
%TO.N,Net-(J1-Pad1)*%
X38100000Y-124460000D03*
%TD*%
D13*
%TO.P,D4,2*%
%TO.N,Net-(D4-Pad2)*%
X61540000Y-93000000D03*
D14*
%TO.P,D4,1*%
%TO.N,GND*%
X59000000Y-93000000D03*
%TD*%
D13*
%TO.P,D3,2*%
%TO.N,Net-(D3-Pad2)*%
X54540000Y-93000000D03*
D14*
%TO.P,D3,1*%
%TO.N,GND*%
X52000000Y-93000000D03*
%TD*%
D13*
%TO.P,D2,2*%
%TO.N,Net-(D2-Pad2)*%
X47540000Y-93000000D03*
D14*
%TO.P,D2,1*%
%TO.N,GND*%
X45000000Y-93000000D03*
%TD*%
D13*
%TO.P,D1,2*%
%TO.N,Net-(D1-Pad2)*%
X40540000Y-93000000D03*
D14*
%TO.P,D1,1*%
%TO.N,GND*%
X38000000Y-93000000D03*
%TD*%
D15*
%TO.N,GND*%
X46000000Y-115500000D03*
X49500000Y-103000000D03*
X36500000Y-82000000D03*
X49000000Y-83500000D03*
X45000000Y-138500000D03*
X52000000Y-104500000D03*
X54500000Y-127500000D03*
%TO.N,VCC*%
X56500000Y-107500000D03*
X52500000Y-86500000D03*
X46500000Y-86500000D03*
X39000000Y-86500000D03*
X49500000Y-129000000D03*
X55500000Y-129000000D03*
%TO.N,/ANA_OUT*%
X56000000Y-90500000D03*
%TO.N,/ANA_CHAN2*%
X58500000Y-91000000D03*
%TO.N,/ANA_CHAN1*%
X60000000Y-90725000D03*
%TO.N,/ANA_CHAN0*%
X59000000Y-90000000D03*
%TO.N,/LED_DATA_IN*%
X62500000Y-99500000D03*
X54500000Y-99500000D03*
X42000000Y-90500000D03*
%TO.N,/POT1*%
X57000000Y-85500000D03*
%TD*%
D16*
%TO.N,Net-(D1-Pad2)*%
X40800000Y-93260000D02*
X40540000Y-93000000D01*
X40800000Y-97000000D02*
X40800000Y-93260000D01*
%TO.N,GND*%
X43440000Y-119380000D02*
X43440000Y-116840000D01*
X43440000Y-116840000D02*
X43440000Y-114300000D01*
X43440000Y-111760000D02*
X43440000Y-114300000D01*
X43440000Y-111760000D02*
X43440000Y-109220000D01*
X43440000Y-109220000D02*
X43440000Y-106680000D01*
X43440000Y-106680000D02*
X43440000Y-104140000D01*
X43440000Y-104140000D02*
X43440000Y-101600000D01*
X47445000Y-83525000D02*
X48975000Y-83525000D01*
X48975000Y-83525000D02*
X49000000Y-83500000D01*
X60000000Y-103140000D02*
X53360000Y-103140000D01*
X53360000Y-103140000D02*
X52000000Y-104500000D01*
X51635000Y-130365000D02*
X51635000Y-131525000D01*
X54500000Y-127500000D02*
X51635000Y-130365000D01*
X42365000Y-89450000D02*
X43500000Y-90585000D01*
X42365000Y-88475000D02*
X42365000Y-89450000D01*
%TO.N,Net-(D2-Pad2)*%
X47800000Y-93260000D02*
X47540000Y-93000000D01*
X47800000Y-97000000D02*
X47800000Y-93260000D01*
%TO.N,Net-(D3-Pad2)*%
X54800000Y-93260000D02*
X54540000Y-93000000D01*
X54800000Y-97000000D02*
X54800000Y-93260000D01*
%TO.N,Net-(D4-Pad2)*%
X61800000Y-93260000D02*
X61540000Y-93000000D01*
X61800000Y-97000000D02*
X61800000Y-93260000D01*
D17*
%TO.N,Net-(J1-Pad8)*%
X38100000Y-142240000D02*
X40640000Y-142240000D01*
%TO.N,Net-(J1-Pad7)*%
X38100000Y-139700000D02*
X40640000Y-139700000D01*
%TO.N,Net-(J1-Pad6)*%
X38100000Y-137160000D02*
X40640000Y-137160000D01*
%TO.N,Net-(J1-Pad5)*%
X38100000Y-134620000D02*
X40640000Y-134620000D01*
%TO.N,Net-(J1-Pad4)*%
X38100000Y-132080000D02*
X40640000Y-132080000D01*
%TO.N,Net-(J1-Pad3)*%
X38100000Y-129540000D02*
X40640000Y-129540000D01*
%TO.N,Net-(J1-Pad2)*%
X38100000Y-127000000D02*
X40640000Y-127000000D01*
%TO.N,Net-(J1-Pad1)*%
X38100000Y-124460000D02*
X40640000Y-124460000D01*
D16*
%TO.N,VCC*%
X57015000Y-131525000D02*
X55445000Y-131525000D01*
X62540000Y-126000000D02*
X57015000Y-131525000D01*
X55470000Y-107500000D02*
X55445000Y-107525000D01*
X56500000Y-107500000D02*
X55470000Y-107500000D01*
X52500000Y-88420000D02*
X52555000Y-88475000D01*
X52500000Y-86500000D02*
X52500000Y-88420000D01*
X46500000Y-88150000D02*
X46175000Y-88475000D01*
X46500000Y-86500000D02*
X46500000Y-88150000D01*
X39000000Y-88030000D02*
X38555000Y-88475000D01*
X39000000Y-86500000D02*
X39000000Y-88030000D01*
X47825000Y-131525000D02*
X47825000Y-130675000D01*
X47825000Y-130675000D02*
X49500000Y-129000000D01*
X55500000Y-131470000D02*
X55445000Y-131525000D01*
X55500000Y-129000000D02*
X55500000Y-131470000D01*
D17*
%TO.N,/ANA_OUT*%
X55720010Y-84150010D02*
X55095000Y-83525000D01*
X55720010Y-90220010D02*
X55720010Y-84150010D01*
X56000000Y-90500000D02*
X55720010Y-90220010D01*
%TO.N,/ANA_CHAN2*%
X61445000Y-90353002D02*
X61445000Y-88475000D01*
X60348001Y-91450001D02*
X61445000Y-90353002D01*
X58950001Y-91450001D02*
X60348001Y-91450001D01*
X58500000Y-91000000D02*
X58950001Y-91450001D01*
%TO.N,/ANA_CHAN1*%
X60000000Y-88650000D02*
X60175000Y-88475000D01*
X60000000Y-90725000D02*
X60000000Y-88650000D01*
%TO.N,/ANA_CHAN0*%
X59000000Y-88570000D02*
X58905000Y-88475000D01*
X59000000Y-90000000D02*
X59000000Y-88570000D01*
%TO.N,/LED_DATA_OUT*%
X64500000Y-108800000D02*
X62540000Y-110760000D01*
X63500000Y-101000000D02*
X64500000Y-102000000D01*
X54186810Y-101000000D02*
X63500000Y-101000000D01*
X50074989Y-96888179D02*
X54186810Y-101000000D01*
X50074989Y-91074989D02*
X50074989Y-96888179D01*
X48795001Y-89795001D02*
X50074989Y-91074989D01*
X48765001Y-89795001D02*
X48795001Y-89795001D01*
X64500000Y-102000000D02*
X64500000Y-108800000D01*
X47445000Y-88475000D02*
X48765001Y-89795001D01*
%TO.N,/LED_LATCH*%
X43635000Y-89450000D02*
X44685000Y-90500000D01*
X43635000Y-88475000D02*
X43635000Y-89450000D01*
X61364999Y-107044999D02*
X62540000Y-108220000D01*
X61364999Y-102765997D02*
X61364999Y-107044999D01*
X60564001Y-101964999D02*
X61364999Y-102765997D01*
X53878989Y-101964999D02*
X60564001Y-101964999D01*
X49174971Y-97260981D02*
X53878989Y-101964999D01*
X49174971Y-92174971D02*
X49174971Y-97260981D01*
X47500000Y-90500000D02*
X49174971Y-92174971D01*
X44685000Y-90500000D02*
X47500000Y-90500000D01*
%TO.N,/LED_CLOCK*%
X45455000Y-90000000D02*
X48333590Y-90000000D01*
X44905000Y-88475000D02*
X44905000Y-89450000D01*
X44905000Y-89450000D02*
X45455000Y-90000000D01*
X49624980Y-97074580D02*
X54050400Y-101500000D01*
X48333590Y-90000000D02*
X49624979Y-91291389D01*
X49624979Y-91291389D02*
X49624980Y-97074580D01*
X62639002Y-101500000D02*
X64000000Y-102860998D01*
X54050400Y-101500000D02*
X62639002Y-101500000D01*
X64000000Y-104220000D02*
X62540000Y-105680000D01*
X64000000Y-102860998D02*
X64000000Y-104220000D01*
%TO.N,/LED_DATA_IN*%
X62500000Y-99500000D02*
X54500000Y-99500000D01*
X41095000Y-89595000D02*
X41095000Y-88475000D01*
X42000000Y-90500000D02*
X41095000Y-89595000D01*
%TO.N,/IN_DATA_IN*%
X47425000Y-105680000D02*
X60000000Y-105680000D01*
X46555000Y-106550000D02*
X47425000Y-105680000D01*
X46555000Y-107525000D02*
X46555000Y-106550000D01*
%TO.N,/IN_CLOCK_ENABLE*%
X59150001Y-109069999D02*
X60000000Y-108220000D01*
X54744999Y-109069999D02*
X59150001Y-109069999D01*
X54175000Y-108500000D02*
X54744999Y-109069999D01*
X54175000Y-107525000D02*
X54175000Y-108500000D01*
%TO.N,/IN_CLOCK*%
X54175000Y-111500000D02*
X54915000Y-110760000D01*
X54915000Y-110760000D02*
X60000000Y-110760000D01*
X54175000Y-112475000D02*
X54175000Y-111500000D01*
%TO.N,/IN_LOAD*%
X59175000Y-112475000D02*
X60000000Y-113300000D01*
X55445000Y-112475000D02*
X59175000Y-112475000D01*
%TO.N,/IN_DATA_OUT*%
X61175001Y-114664999D02*
X60000000Y-115840000D01*
X61175001Y-107675001D02*
X61175001Y-114664999D01*
X60544999Y-107044999D02*
X61175001Y-107675001D01*
X59544999Y-107044999D02*
X60544999Y-107044999D01*
X58724990Y-106224990D02*
X59544999Y-107044999D01*
X48150010Y-106224990D02*
X58724990Y-106224990D01*
X47825000Y-106550000D02*
X48150010Y-106224990D01*
X47825000Y-107525000D02*
X47825000Y-106550000D01*
%TO.N,/OUT_DATA_OUT*%
X58797919Y-118380000D02*
X46555000Y-130622919D01*
X46555000Y-130622919D02*
X46555000Y-131525000D01*
X60000000Y-118380000D02*
X58797919Y-118380000D01*
%TO.N,/OUT_LATCH*%
X50365000Y-130550000D02*
X50365000Y-131525000D01*
X56279999Y-124635001D02*
X50365000Y-130550000D01*
X60564001Y-124635001D02*
X56279999Y-124635001D01*
X61175001Y-124024001D02*
X60564001Y-124635001D01*
X61175001Y-122095001D02*
X61175001Y-124024001D01*
X60000000Y-120920000D02*
X61175001Y-122095001D01*
%TO.N,/OUT_CLOCK*%
X49095000Y-130550000D02*
X49095000Y-131525000D01*
X56185000Y-123460000D02*
X49095000Y-130550000D01*
X60000000Y-123460000D02*
X56185000Y-123460000D01*
%TO.N,/OUT_DATA_IN*%
X52905000Y-130550000D02*
X52905000Y-131525000D01*
X57455000Y-126000000D02*
X52905000Y-130550000D01*
X60000000Y-126000000D02*
X57455000Y-126000000D01*
%TO.N,Net-(J3-Pad8)*%
X38100000Y-119380000D02*
X40640000Y-119380000D01*
X49095000Y-115538190D02*
X49095000Y-112475000D01*
X44053180Y-120580010D02*
X49095000Y-115538190D01*
X39300010Y-120580010D02*
X44053180Y-120580010D01*
X38100000Y-119380000D02*
X39300010Y-120580010D01*
%TO.N,Net-(J3-Pad7)*%
X38100000Y-116840000D02*
X40640000Y-116840000D01*
X50365000Y-114904600D02*
X50365000Y-112475000D01*
X44239581Y-121030019D02*
X50365000Y-114904600D01*
X38011018Y-121030020D02*
X44239581Y-121030019D01*
X36924999Y-119944001D02*
X38011018Y-121030020D01*
X36924999Y-118015001D02*
X36924999Y-119944001D01*
X38100000Y-116840000D02*
X36924999Y-118015001D01*
%TO.N,Net-(J3-Pad6)*%
X38100000Y-114300000D02*
X40640000Y-114300000D01*
X51635000Y-114271010D02*
X51635000Y-112475000D01*
X37824619Y-121480029D02*
X44425982Y-121480028D01*
X36474989Y-115925011D02*
X36474990Y-120130402D01*
X44425982Y-121480028D02*
X51635000Y-114271010D01*
X36474990Y-120130402D02*
X37824619Y-121480029D01*
X38100000Y-114300000D02*
X36474989Y-115925011D01*
%TO.N,Net-(J3-Pad5)*%
X38100000Y-111760000D02*
X40640000Y-111760000D01*
X52905000Y-113637420D02*
X52905000Y-112475000D01*
X44612383Y-121930037D02*
X52905000Y-113637420D01*
X36024982Y-120316803D02*
X37638220Y-121930038D01*
X37638220Y-121930038D02*
X44612383Y-121930037D01*
X36024982Y-113835018D02*
X36024982Y-120316803D01*
X38100000Y-111760000D02*
X36024982Y-113835018D01*
%TO.N,Net-(J3-Pad4)*%
X38100000Y-109220000D02*
X40640000Y-109220000D01*
X53530010Y-108150010D02*
X52905000Y-107525000D01*
X53530010Y-113648820D02*
X53530010Y-108150010D01*
X37451821Y-122380047D02*
X44798784Y-122380046D01*
X35574972Y-120503198D02*
X37451821Y-122380047D01*
X35574972Y-111745028D02*
X35574972Y-120503198D01*
X44798784Y-122380046D02*
X53530010Y-113648820D01*
X38100000Y-109220000D02*
X35574972Y-111745028D01*
%TO.N,Net-(J3-Pad3)*%
X38100000Y-106680000D02*
X40640000Y-106680000D01*
X49036768Y-110500000D02*
X51635000Y-107901768D01*
X46000000Y-110500000D02*
X49036768Y-110500000D01*
X44390010Y-100736820D02*
X44390010Y-108890010D01*
X44390010Y-108890010D02*
X46000000Y-110500000D01*
X42826820Y-100399990D02*
X44053180Y-100399990D01*
X51635000Y-107901768D02*
X51635000Y-107525000D01*
X42180000Y-101046810D02*
X42826820Y-100399990D01*
X44053180Y-100399990D02*
X44390010Y-100736820D01*
X42180000Y-105140000D02*
X42180000Y-101046810D01*
X40640000Y-106680000D02*
X42180000Y-105140000D01*
%TO.N,Net-(J3-Pad2)*%
X38100000Y-104140000D02*
X40640000Y-104140000D01*
X41265000Y-104140000D02*
X41729990Y-103675010D01*
X41729991Y-100860409D02*
X42640420Y-99949980D01*
X40640000Y-104140000D02*
X41265000Y-104140000D01*
X41729990Y-103675010D02*
X41729991Y-100860409D01*
X44239581Y-99949981D02*
X45000000Y-100710400D01*
X42640420Y-99949980D02*
X44239581Y-99949981D01*
X45000000Y-100710400D02*
X45000000Y-108863590D01*
X45000000Y-108863590D02*
X46186400Y-110049990D01*
X50365000Y-108500000D02*
X50365000Y-107525000D01*
X48815010Y-110049990D02*
X50365000Y-108500000D01*
X46186400Y-110049990D02*
X48815010Y-110049990D01*
%TO.N,Net-(J3-Pad1)*%
X38100000Y-101600000D02*
X40640000Y-101600000D01*
X46208242Y-108825010D02*
X48769990Y-108825010D01*
X49095000Y-108500000D02*
X49095000Y-107525000D01*
X45929990Y-108546758D02*
X46208242Y-108825010D01*
X45929990Y-101003980D02*
X45929990Y-108546758D01*
X44425982Y-99499972D02*
X45929990Y-101003980D01*
X48769990Y-108825010D02*
X49095000Y-108500000D01*
X41865029Y-99499971D02*
X44425982Y-99499972D01*
X40640000Y-100725000D02*
X41865029Y-99499971D01*
X40640000Y-101600000D02*
X40640000Y-100725000D01*
%TO.N,Net-(R1-Pad2)*%
X43440000Y-124460000D02*
X46000000Y-127020000D01*
X54175000Y-132500000D02*
X54175000Y-131525000D01*
X45929990Y-132546758D02*
X46208242Y-132825010D01*
X45929990Y-130503242D02*
X45929990Y-132546758D01*
X46208242Y-132825010D02*
X53849990Y-132825010D01*
X46000000Y-130433232D02*
X45929990Y-130503242D01*
X53849990Y-132825010D02*
X54175000Y-132500000D01*
X46000000Y-127020000D02*
X46000000Y-130433232D01*
%TO.N,Net-(R2-Pad2)*%
X43440000Y-127000000D02*
X45500000Y-129060000D01*
X45479981Y-132733159D02*
X46021842Y-133275020D01*
X45479980Y-130316842D02*
X45479981Y-132733159D01*
X45500000Y-129060000D02*
X45500000Y-130296822D01*
X45500000Y-130296822D02*
X45479980Y-130316842D01*
X55445000Y-135500000D02*
X55445000Y-136475000D01*
X53220020Y-133275020D02*
X55445000Y-135500000D01*
X46021842Y-133275020D02*
X53220020Y-133275020D01*
%TO.N,Net-(R3-Pad2)*%
X43440000Y-129540000D02*
X44390010Y-130490010D01*
X44390010Y-132279598D02*
X45835442Y-133725030D01*
X44390010Y-130490010D02*
X44390010Y-132279598D01*
X45835442Y-133725030D02*
X52725030Y-133725030D01*
X54175000Y-135175000D02*
X54175000Y-136475000D01*
X52725030Y-133725030D02*
X54175000Y-135175000D01*
%TO.N,Net-(R4-Pad2)*%
X43440000Y-132080000D02*
X45535040Y-134175040D01*
X52905000Y-135500000D02*
X52905000Y-136475000D01*
X51580040Y-134175040D02*
X52905000Y-135500000D01*
X45535040Y-134175040D02*
X51580040Y-134175040D01*
%TO.N,Net-(R5-Pad2)*%
X45343590Y-134620000D02*
X45348640Y-134625050D01*
X43440000Y-134620000D02*
X45343590Y-134620000D01*
X51635000Y-135500000D02*
X51635000Y-136475000D01*
X50760050Y-134625050D02*
X51635000Y-135500000D01*
X45348640Y-134625050D02*
X50760050Y-134625050D01*
%TO.N,Net-(R6-Pad2)*%
X45425010Y-135174990D02*
X50039990Y-135174990D01*
X50365000Y-135500000D02*
X50365000Y-136475000D01*
X50039990Y-135174990D02*
X50365000Y-135500000D01*
X43440000Y-137160000D02*
X45425010Y-135174990D01*
%TO.N,Net-(R7-Pad2)*%
X49095000Y-138398190D02*
X49095000Y-136475000D01*
X44053180Y-143440010D02*
X49095000Y-138398190D01*
X42826820Y-143440010D02*
X44053180Y-143440010D01*
X42489990Y-143103180D02*
X42826820Y-143440010D01*
X42489990Y-140650010D02*
X42489990Y-143103180D01*
X43440000Y-139700000D02*
X42489990Y-140650010D01*
%TO.N,Net-(R8-Pad2)*%
X47825000Y-137855000D02*
X47825000Y-136475000D01*
X43440000Y-142240000D02*
X47825000Y-137855000D01*
D16*
%TO.N,Net-(R17-Pad2)*%
X39825000Y-89450000D02*
X39825000Y-88475000D01*
X39374990Y-89900010D02*
X39825000Y-89450000D01*
X38489988Y-89900010D02*
X39374990Y-89900010D01*
X36649999Y-91739999D02*
X38489988Y-89900010D01*
X36649999Y-95649999D02*
X36649999Y-91739999D01*
X38000000Y-97000000D02*
X36649999Y-95649999D01*
%TO.N,Net-(R18-Pad2)*%
X35949989Y-96939955D02*
X35949989Y-86130011D01*
X35949989Y-86130011D02*
X38555000Y-83525000D01*
X37335044Y-98325010D02*
X35949989Y-96939955D01*
X43674990Y-98325010D02*
X37335044Y-98325010D01*
X45000000Y-97000000D02*
X43674990Y-98325010D01*
%TO.N,Net-(R19-Pad2)*%
X50649999Y-89391997D02*
X46908001Y-85649999D01*
X46908001Y-85649999D02*
X40850001Y-85649999D01*
X52000000Y-97000000D02*
X50649999Y-95649999D01*
X50649999Y-95649999D02*
X50649999Y-89391997D01*
X39825000Y-84624998D02*
X39825000Y-83525000D01*
X40850001Y-85649999D02*
X39825000Y-84624998D01*
%TO.N,Net-(R20-Pad2)*%
X57649999Y-94111997D02*
X53438012Y-89900010D01*
X57649999Y-95649999D02*
X57649999Y-94111997D01*
X59000000Y-97000000D02*
X57649999Y-95649999D01*
X52156466Y-89900010D02*
X52900010Y-89900010D01*
X51350009Y-89093553D02*
X52156466Y-89900010D01*
X48857992Y-82099990D02*
X51350009Y-84592007D01*
X41095000Y-82550000D02*
X41545010Y-82099990D01*
X51350009Y-84592007D02*
X51350009Y-89093553D01*
X41545010Y-82099990D02*
X48857992Y-82099990D01*
X41095000Y-83525000D02*
X41095000Y-82550000D01*
X52900010Y-89900010D02*
X52147974Y-89900010D01*
X53438012Y-89900010D02*
X52900010Y-89900010D01*
D17*
%TO.N,/POT1*%
X56365000Y-88475000D02*
X56365000Y-86135000D01*
X56365000Y-86135000D02*
X57000000Y-85500000D01*
%TO.N,/POT2*%
X54469990Y-87849990D02*
X55095000Y-88475000D01*
X54469990Y-82343012D02*
X54469990Y-87849990D01*
X56274999Y-80538003D02*
X54469990Y-82343012D01*
X56274999Y-60225001D02*
X56274999Y-80538003D01*
X57500000Y-59000000D02*
X56274999Y-60225001D01*
%TO.N,/POT3*%
X53825000Y-87325000D02*
X53825000Y-88475000D01*
X53825000Y-86751998D02*
X53825000Y-87325000D01*
X51929990Y-84856988D02*
X53825000Y-86751998D01*
X51929990Y-84358802D02*
X51929990Y-84856988D01*
X48796189Y-81225001D02*
X51929990Y-84358802D01*
X43725001Y-81225001D02*
X48796189Y-81225001D01*
X42500000Y-80000000D02*
X43725001Y-81225001D01*
%TO.N,/POT4*%
X58260010Y-87849990D02*
X57635000Y-88475000D01*
X58260010Y-80760010D02*
X58260010Y-87849990D01*
X57500000Y-80000000D02*
X58260010Y-80760010D01*
%TD*%
D18*
%TO.N,GND*%
G36*
X45620000Y-136189250D02*
G01*
X45778750Y-136348000D01*
X46428000Y-136348000D01*
X46428000Y-136328000D01*
X46682000Y-136328000D01*
X46682000Y-136348000D01*
X46702000Y-136348000D01*
X46702000Y-136602000D01*
X46682000Y-136602000D01*
X46682000Y-136622000D01*
X46428000Y-136622000D01*
X46428000Y-136602000D01*
X45778750Y-136602000D01*
X45620000Y-136760750D01*
X45616928Y-137450000D01*
X45629188Y-137574482D01*
X45665498Y-137694180D01*
X45724463Y-137804494D01*
X45803815Y-137901185D01*
X45900506Y-137980537D01*
X46010820Y-138039502D01*
X46130518Y-138075812D01*
X46255000Y-138088072D01*
X46269250Y-138085000D01*
X46427998Y-137926252D01*
X46427998Y-138085000D01*
X46520197Y-138085000D01*
X44703072Y-139902126D01*
X44703072Y-139075000D01*
X44686008Y-138901746D01*
X44635472Y-138735150D01*
X44553405Y-138581614D01*
X44442962Y-138447038D01*
X44422201Y-138430000D01*
X44442962Y-138412962D01*
X44553405Y-138278386D01*
X44635472Y-138124850D01*
X44686008Y-137958254D01*
X44703072Y-137785000D01*
X44703072Y-136971729D01*
X45619403Y-136055398D01*
X45620000Y-136189250D01*
G37*
X45620000Y-136189250D02*
X45778750Y-136348000D01*
X46428000Y-136348000D01*
X46428000Y-136328000D01*
X46682000Y-136328000D01*
X46682000Y-136348000D01*
X46702000Y-136348000D01*
X46702000Y-136602000D01*
X46682000Y-136602000D01*
X46682000Y-136622000D01*
X46428000Y-136622000D01*
X46428000Y-136602000D01*
X45778750Y-136602000D01*
X45620000Y-136760750D01*
X45616928Y-137450000D01*
X45629188Y-137574482D01*
X45665498Y-137694180D01*
X45724463Y-137804494D01*
X45803815Y-137901185D01*
X45900506Y-137980537D01*
X46010820Y-138039502D01*
X46130518Y-138075812D01*
X46255000Y-138088072D01*
X46269250Y-138085000D01*
X46427998Y-137926252D01*
X46427998Y-138085000D01*
X46520197Y-138085000D01*
X44703072Y-139902126D01*
X44703072Y-139075000D01*
X44686008Y-138901746D01*
X44635472Y-138735150D01*
X44553405Y-138581614D01*
X44442962Y-138447038D01*
X44422201Y-138430000D01*
X44442962Y-138412962D01*
X44553405Y-138278386D01*
X44635472Y-138124850D01*
X44686008Y-137958254D01*
X44703072Y-137785000D01*
X44703072Y-136971729D01*
X45619403Y-136055398D01*
X45620000Y-136189250D01*
G36*
X51762000Y-131398000D02*
G01*
X51782000Y-131398000D01*
X51782000Y-131652000D01*
X51762000Y-131652000D01*
X51762000Y-131672000D01*
X51508000Y-131672000D01*
X51508000Y-131652000D01*
X51488000Y-131652000D01*
X51488000Y-131398000D01*
X51508000Y-131398000D01*
X51508000Y-131378000D01*
X51762000Y-131378000D01*
X51762000Y-131398000D01*
G37*
X51762000Y-131398000D02*
X51782000Y-131398000D01*
X51782000Y-131652000D01*
X51762000Y-131652000D01*
X51762000Y-131672000D01*
X51508000Y-131672000D01*
X51508000Y-131652000D01*
X51488000Y-131652000D01*
X51488000Y-131398000D01*
X51508000Y-131398000D01*
X51508000Y-131378000D01*
X51762000Y-131378000D01*
X51762000Y-131398000D01*
G36*
X56914999Y-125459999D02*
G01*
X56891201Y-125488997D01*
X52394003Y-129986196D01*
X52364999Y-130009999D01*
X52351581Y-130026350D01*
X52319064Y-130043730D01*
X52289494Y-130019463D01*
X52179180Y-129960498D01*
X52064186Y-129925615D01*
X56594801Y-125395001D01*
X56994199Y-125395001D01*
X56914999Y-125459999D01*
G37*
X56914999Y-125459999D02*
X56891201Y-125488997D01*
X52394003Y-129986196D01*
X52364999Y-130009999D01*
X52351581Y-130026350D01*
X52319064Y-130043730D01*
X52289494Y-130019463D01*
X52179180Y-129960498D01*
X52064186Y-129925615D01*
X56594801Y-125395001D01*
X56994199Y-125395001D01*
X56914999Y-125459999D01*
G36*
X43567000Y-101473000D02*
G01*
X43587000Y-101473000D01*
X43587000Y-101727000D01*
X43567000Y-101727000D01*
X43567000Y-104013000D01*
X43587000Y-104013000D01*
X43587000Y-104267000D01*
X43567000Y-104267000D01*
X43567000Y-106553000D01*
X43587000Y-106553000D01*
X43587000Y-106807000D01*
X43567000Y-106807000D01*
X43567000Y-109093000D01*
X43587000Y-109093000D01*
X43587000Y-109347000D01*
X43567000Y-109347000D01*
X43567000Y-111633000D01*
X44541250Y-111633000D01*
X44700000Y-111474250D01*
X44703072Y-110885000D01*
X44690812Y-110760518D01*
X44654502Y-110640820D01*
X44595537Y-110530506D01*
X44562295Y-110490000D01*
X44595537Y-110449494D01*
X44654502Y-110339180D01*
X44680075Y-110254877D01*
X45436201Y-111011003D01*
X45459999Y-111040001D01*
X45575724Y-111134974D01*
X45695789Y-111199151D01*
X45665498Y-111255820D01*
X45629188Y-111375518D01*
X45616928Y-111500000D01*
X45620000Y-112189250D01*
X45778750Y-112348000D01*
X46428000Y-112348000D01*
X46428000Y-112328000D01*
X46682000Y-112328000D01*
X46682000Y-112348000D01*
X46702000Y-112348000D01*
X46702000Y-112602000D01*
X46682000Y-112602000D01*
X46682000Y-113926250D01*
X46840750Y-114085000D01*
X46855000Y-114088072D01*
X46979482Y-114075812D01*
X47099180Y-114039502D01*
X47209494Y-113980537D01*
X47239064Y-113956270D01*
X47373418Y-114028084D01*
X47521255Y-114072929D01*
X47675000Y-114088072D01*
X47975000Y-114088072D01*
X48128745Y-114072929D01*
X48276582Y-114028084D01*
X48335001Y-113996858D01*
X48335000Y-115223388D01*
X44701236Y-118857153D01*
X44703072Y-118505000D01*
X44690812Y-118380518D01*
X44654502Y-118260820D01*
X44595537Y-118150506D01*
X44562295Y-118110000D01*
X44595537Y-118069494D01*
X44654502Y-117959180D01*
X44690812Y-117839482D01*
X44703072Y-117715000D01*
X44700000Y-117125750D01*
X44541250Y-116967000D01*
X43567000Y-116967000D01*
X43567000Y-119253000D01*
X43587000Y-119253000D01*
X43587000Y-119507000D01*
X43567000Y-119507000D01*
X43567000Y-119527000D01*
X43313000Y-119527000D01*
X43313000Y-119507000D01*
X42338750Y-119507000D01*
X42180000Y-119665750D01*
X42179196Y-119820010D01*
X41903072Y-119820010D01*
X41903072Y-118755000D01*
X41886008Y-118581746D01*
X41835472Y-118415150D01*
X41753405Y-118261614D01*
X41642962Y-118127038D01*
X41622201Y-118110000D01*
X41642962Y-118092962D01*
X41753405Y-117958386D01*
X41835472Y-117804850D01*
X41862727Y-117715000D01*
X42176928Y-117715000D01*
X42189188Y-117839482D01*
X42225498Y-117959180D01*
X42284463Y-118069494D01*
X42317705Y-118110000D01*
X42284463Y-118150506D01*
X42225498Y-118260820D01*
X42189188Y-118380518D01*
X42176928Y-118505000D01*
X42180000Y-119094250D01*
X42338750Y-119253000D01*
X43313000Y-119253000D01*
X43313000Y-116967000D01*
X42338750Y-116967000D01*
X42180000Y-117125750D01*
X42176928Y-117715000D01*
X41862727Y-117715000D01*
X41886008Y-117638254D01*
X41903072Y-117465000D01*
X41903072Y-116215000D01*
X41886008Y-116041746D01*
X41835472Y-115875150D01*
X41753405Y-115721614D01*
X41642962Y-115587038D01*
X41622201Y-115570000D01*
X41642962Y-115552962D01*
X41753405Y-115418386D01*
X41835472Y-115264850D01*
X41862727Y-115175000D01*
X42176928Y-115175000D01*
X42189188Y-115299482D01*
X42225498Y-115419180D01*
X42284463Y-115529494D01*
X42317705Y-115570000D01*
X42284463Y-115610506D01*
X42225498Y-115720820D01*
X42189188Y-115840518D01*
X42176928Y-115965000D01*
X42180000Y-116554250D01*
X42338750Y-116713000D01*
X43313000Y-116713000D01*
X43313000Y-114427000D01*
X43567000Y-114427000D01*
X43567000Y-116713000D01*
X44541250Y-116713000D01*
X44700000Y-116554250D01*
X44703072Y-115965000D01*
X44690812Y-115840518D01*
X44654502Y-115720820D01*
X44595537Y-115610506D01*
X44562295Y-115570000D01*
X44595537Y-115529494D01*
X44654502Y-115419180D01*
X44690812Y-115299482D01*
X44703072Y-115175000D01*
X44700000Y-114585750D01*
X44541250Y-114427000D01*
X43567000Y-114427000D01*
X43313000Y-114427000D01*
X42338750Y-114427000D01*
X42180000Y-114585750D01*
X42176928Y-115175000D01*
X41862727Y-115175000D01*
X41886008Y-115098254D01*
X41903072Y-114925000D01*
X41903072Y-113675000D01*
X41886008Y-113501746D01*
X41835472Y-113335150D01*
X41753405Y-113181614D01*
X41642962Y-113047038D01*
X41622201Y-113030000D01*
X41642962Y-113012962D01*
X41753405Y-112878386D01*
X41835472Y-112724850D01*
X41862727Y-112635000D01*
X42176928Y-112635000D01*
X42189188Y-112759482D01*
X42225498Y-112879180D01*
X42284463Y-112989494D01*
X42317705Y-113030000D01*
X42284463Y-113070506D01*
X42225498Y-113180820D01*
X42189188Y-113300518D01*
X42176928Y-113425000D01*
X42180000Y-114014250D01*
X42338750Y-114173000D01*
X43313000Y-114173000D01*
X43313000Y-111887000D01*
X43567000Y-111887000D01*
X43567000Y-114173000D01*
X44541250Y-114173000D01*
X44700000Y-114014250D01*
X44702941Y-113450000D01*
X45616928Y-113450000D01*
X45629188Y-113574482D01*
X45665498Y-113694180D01*
X45724463Y-113804494D01*
X45803815Y-113901185D01*
X45900506Y-113980537D01*
X46010820Y-114039502D01*
X46130518Y-114075812D01*
X46255000Y-114088072D01*
X46269250Y-114085000D01*
X46428000Y-113926250D01*
X46428000Y-112602000D01*
X45778750Y-112602000D01*
X45620000Y-112760750D01*
X45616928Y-113450000D01*
X44702941Y-113450000D01*
X44703072Y-113425000D01*
X44690812Y-113300518D01*
X44654502Y-113180820D01*
X44595537Y-113070506D01*
X44562295Y-113030000D01*
X44595537Y-112989494D01*
X44654502Y-112879180D01*
X44690812Y-112759482D01*
X44703072Y-112635000D01*
X44700000Y-112045750D01*
X44541250Y-111887000D01*
X43567000Y-111887000D01*
X43313000Y-111887000D01*
X42338750Y-111887000D01*
X42180000Y-112045750D01*
X42176928Y-112635000D01*
X41862727Y-112635000D01*
X41886008Y-112558254D01*
X41903072Y-112385000D01*
X41903072Y-111135000D01*
X41886008Y-110961746D01*
X41835472Y-110795150D01*
X41753405Y-110641614D01*
X41642962Y-110507038D01*
X41622201Y-110490000D01*
X41642962Y-110472962D01*
X41753405Y-110338386D01*
X41835472Y-110184850D01*
X41862727Y-110095000D01*
X42176928Y-110095000D01*
X42189188Y-110219482D01*
X42225498Y-110339180D01*
X42284463Y-110449494D01*
X42317705Y-110490000D01*
X42284463Y-110530506D01*
X42225498Y-110640820D01*
X42189188Y-110760518D01*
X42176928Y-110885000D01*
X42180000Y-111474250D01*
X42338750Y-111633000D01*
X43313000Y-111633000D01*
X43313000Y-109347000D01*
X42338750Y-109347000D01*
X42180000Y-109505750D01*
X42176928Y-110095000D01*
X41862727Y-110095000D01*
X41886008Y-110018254D01*
X41903072Y-109845000D01*
X41903072Y-108595000D01*
X41886008Y-108421746D01*
X41835472Y-108255150D01*
X41753405Y-108101614D01*
X41642962Y-107967038D01*
X41622201Y-107950000D01*
X41642962Y-107932962D01*
X41753405Y-107798386D01*
X41835472Y-107644850D01*
X41862727Y-107555000D01*
X42176928Y-107555000D01*
X42189188Y-107679482D01*
X42225498Y-107799180D01*
X42284463Y-107909494D01*
X42317705Y-107950000D01*
X42284463Y-107990506D01*
X42225498Y-108100820D01*
X42189188Y-108220518D01*
X42176928Y-108345000D01*
X42180000Y-108934250D01*
X42338750Y-109093000D01*
X43313000Y-109093000D01*
X43313000Y-106807000D01*
X42338750Y-106807000D01*
X42180000Y-106965750D01*
X42176928Y-107555000D01*
X41862727Y-107555000D01*
X41886008Y-107478254D01*
X41903072Y-107305000D01*
X41903072Y-106491729D01*
X42179069Y-106215732D01*
X42180000Y-106394250D01*
X42338750Y-106553000D01*
X43313000Y-106553000D01*
X43313000Y-104267000D01*
X43293000Y-104267000D01*
X43293000Y-104013000D01*
X43313000Y-104013000D01*
X43313000Y-101727000D01*
X43293000Y-101727000D01*
X43293000Y-101473000D01*
X43313000Y-101473000D01*
X43313000Y-101453000D01*
X43567000Y-101453000D01*
X43567000Y-101473000D01*
G37*
X43567000Y-101473000D02*
X43587000Y-101473000D01*
X43587000Y-101727000D01*
X43567000Y-101727000D01*
X43567000Y-104013000D01*
X43587000Y-104013000D01*
X43587000Y-104267000D01*
X43567000Y-104267000D01*
X43567000Y-106553000D01*
X43587000Y-106553000D01*
X43587000Y-106807000D01*
X43567000Y-106807000D01*
X43567000Y-109093000D01*
X43587000Y-109093000D01*
X43587000Y-109347000D01*
X43567000Y-109347000D01*
X43567000Y-111633000D01*
X44541250Y-111633000D01*
X44700000Y-111474250D01*
X44703072Y-110885000D01*
X44690812Y-110760518D01*
X44654502Y-110640820D01*
X44595537Y-110530506D01*
X44562295Y-110490000D01*
X44595537Y-110449494D01*
X44654502Y-110339180D01*
X44680075Y-110254877D01*
X45436201Y-111011003D01*
X45459999Y-111040001D01*
X45575724Y-111134974D01*
X45695789Y-111199151D01*
X45665498Y-111255820D01*
X45629188Y-111375518D01*
X45616928Y-111500000D01*
X45620000Y-112189250D01*
X45778750Y-112348000D01*
X46428000Y-112348000D01*
X46428000Y-112328000D01*
X46682000Y-112328000D01*
X46682000Y-112348000D01*
X46702000Y-112348000D01*
X46702000Y-112602000D01*
X46682000Y-112602000D01*
X46682000Y-113926250D01*
X46840750Y-114085000D01*
X46855000Y-114088072D01*
X46979482Y-114075812D01*
X47099180Y-114039502D01*
X47209494Y-113980537D01*
X47239064Y-113956270D01*
X47373418Y-114028084D01*
X47521255Y-114072929D01*
X47675000Y-114088072D01*
X47975000Y-114088072D01*
X48128745Y-114072929D01*
X48276582Y-114028084D01*
X48335001Y-113996858D01*
X48335000Y-115223388D01*
X44701236Y-118857153D01*
X44703072Y-118505000D01*
X44690812Y-118380518D01*
X44654502Y-118260820D01*
X44595537Y-118150506D01*
X44562295Y-118110000D01*
X44595537Y-118069494D01*
X44654502Y-117959180D01*
X44690812Y-117839482D01*
X44703072Y-117715000D01*
X44700000Y-117125750D01*
X44541250Y-116967000D01*
X43567000Y-116967000D01*
X43567000Y-119253000D01*
X43587000Y-119253000D01*
X43587000Y-119507000D01*
X43567000Y-119507000D01*
X43567000Y-119527000D01*
X43313000Y-119527000D01*
X43313000Y-119507000D01*
X42338750Y-119507000D01*
X42180000Y-119665750D01*
X42179196Y-119820010D01*
X41903072Y-119820010D01*
X41903072Y-118755000D01*
X41886008Y-118581746D01*
X41835472Y-118415150D01*
X41753405Y-118261614D01*
X41642962Y-118127038D01*
X41622201Y-118110000D01*
X41642962Y-118092962D01*
X41753405Y-117958386D01*
X41835472Y-117804850D01*
X41862727Y-117715000D01*
X42176928Y-117715000D01*
X42189188Y-117839482D01*
X42225498Y-117959180D01*
X42284463Y-118069494D01*
X42317705Y-118110000D01*
X42284463Y-118150506D01*
X42225498Y-118260820D01*
X42189188Y-118380518D01*
X42176928Y-118505000D01*
X42180000Y-119094250D01*
X42338750Y-119253000D01*
X43313000Y-119253000D01*
X43313000Y-116967000D01*
X42338750Y-116967000D01*
X42180000Y-117125750D01*
X42176928Y-117715000D01*
X41862727Y-117715000D01*
X41886008Y-117638254D01*
X41903072Y-117465000D01*
X41903072Y-116215000D01*
X41886008Y-116041746D01*
X41835472Y-115875150D01*
X41753405Y-115721614D01*
X41642962Y-115587038D01*
X41622201Y-115570000D01*
X41642962Y-115552962D01*
X41753405Y-115418386D01*
X41835472Y-115264850D01*
X41862727Y-115175000D01*
X42176928Y-115175000D01*
X42189188Y-115299482D01*
X42225498Y-115419180D01*
X42284463Y-115529494D01*
X42317705Y-115570000D01*
X42284463Y-115610506D01*
X42225498Y-115720820D01*
X42189188Y-115840518D01*
X42176928Y-115965000D01*
X42180000Y-116554250D01*
X42338750Y-116713000D01*
X43313000Y-116713000D01*
X43313000Y-114427000D01*
X43567000Y-114427000D01*
X43567000Y-116713000D01*
X44541250Y-116713000D01*
X44700000Y-116554250D01*
X44703072Y-115965000D01*
X44690812Y-115840518D01*
X44654502Y-115720820D01*
X44595537Y-115610506D01*
X44562295Y-115570000D01*
X44595537Y-115529494D01*
X44654502Y-115419180D01*
X44690812Y-115299482D01*
X44703072Y-115175000D01*
X44700000Y-114585750D01*
X44541250Y-114427000D01*
X43567000Y-114427000D01*
X43313000Y-114427000D01*
X42338750Y-114427000D01*
X42180000Y-114585750D01*
X42176928Y-115175000D01*
X41862727Y-115175000D01*
X41886008Y-115098254D01*
X41903072Y-114925000D01*
X41903072Y-113675000D01*
X41886008Y-113501746D01*
X41835472Y-113335150D01*
X41753405Y-113181614D01*
X41642962Y-113047038D01*
X41622201Y-113030000D01*
X41642962Y-113012962D01*
X41753405Y-112878386D01*
X41835472Y-112724850D01*
X41862727Y-112635000D01*
X42176928Y-112635000D01*
X42189188Y-112759482D01*
X42225498Y-112879180D01*
X42284463Y-112989494D01*
X42317705Y-113030000D01*
X42284463Y-113070506D01*
X42225498Y-113180820D01*
X42189188Y-113300518D01*
X42176928Y-113425000D01*
X42180000Y-114014250D01*
X42338750Y-114173000D01*
X43313000Y-114173000D01*
X43313000Y-111887000D01*
X43567000Y-111887000D01*
X43567000Y-114173000D01*
X44541250Y-114173000D01*
X44700000Y-114014250D01*
X44702941Y-113450000D01*
X45616928Y-113450000D01*
X45629188Y-113574482D01*
X45665498Y-113694180D01*
X45724463Y-113804494D01*
X45803815Y-113901185D01*
X45900506Y-113980537D01*
X46010820Y-114039502D01*
X46130518Y-114075812D01*
X46255000Y-114088072D01*
X46269250Y-114085000D01*
X46428000Y-113926250D01*
X46428000Y-112602000D01*
X45778750Y-112602000D01*
X45620000Y-112760750D01*
X45616928Y-113450000D01*
X44702941Y-113450000D01*
X44703072Y-113425000D01*
X44690812Y-113300518D01*
X44654502Y-113180820D01*
X44595537Y-113070506D01*
X44562295Y-113030000D01*
X44595537Y-112989494D01*
X44654502Y-112879180D01*
X44690812Y-112759482D01*
X44703072Y-112635000D01*
X44700000Y-112045750D01*
X44541250Y-111887000D01*
X43567000Y-111887000D01*
X43313000Y-111887000D01*
X42338750Y-111887000D01*
X42180000Y-112045750D01*
X42176928Y-112635000D01*
X41862727Y-112635000D01*
X41886008Y-112558254D01*
X41903072Y-112385000D01*
X41903072Y-111135000D01*
X41886008Y-110961746D01*
X41835472Y-110795150D01*
X41753405Y-110641614D01*
X41642962Y-110507038D01*
X41622201Y-110490000D01*
X41642962Y-110472962D01*
X41753405Y-110338386D01*
X41835472Y-110184850D01*
X41862727Y-110095000D01*
X42176928Y-110095000D01*
X42189188Y-110219482D01*
X42225498Y-110339180D01*
X42284463Y-110449494D01*
X42317705Y-110490000D01*
X42284463Y-110530506D01*
X42225498Y-110640820D01*
X42189188Y-110760518D01*
X42176928Y-110885000D01*
X42180000Y-111474250D01*
X42338750Y-111633000D01*
X43313000Y-111633000D01*
X43313000Y-109347000D01*
X42338750Y-109347000D01*
X42180000Y-109505750D01*
X42176928Y-110095000D01*
X41862727Y-110095000D01*
X41886008Y-110018254D01*
X41903072Y-109845000D01*
X41903072Y-108595000D01*
X41886008Y-108421746D01*
X41835472Y-108255150D01*
X41753405Y-108101614D01*
X41642962Y-107967038D01*
X41622201Y-107950000D01*
X41642962Y-107932962D01*
X41753405Y-107798386D01*
X41835472Y-107644850D01*
X41862727Y-107555000D01*
X42176928Y-107555000D01*
X42189188Y-107679482D01*
X42225498Y-107799180D01*
X42284463Y-107909494D01*
X42317705Y-107950000D01*
X42284463Y-107990506D01*
X42225498Y-108100820D01*
X42189188Y-108220518D01*
X42176928Y-108345000D01*
X42180000Y-108934250D01*
X42338750Y-109093000D01*
X43313000Y-109093000D01*
X43313000Y-106807000D01*
X42338750Y-106807000D01*
X42180000Y-106965750D01*
X42176928Y-107555000D01*
X41862727Y-107555000D01*
X41886008Y-107478254D01*
X41903072Y-107305000D01*
X41903072Y-106491729D01*
X42179069Y-106215732D01*
X42180000Y-106394250D01*
X42338750Y-106553000D01*
X43313000Y-106553000D01*
X43313000Y-104267000D01*
X43293000Y-104267000D01*
X43293000Y-104013000D01*
X43313000Y-104013000D01*
X43313000Y-101727000D01*
X43293000Y-101727000D01*
X43293000Y-101473000D01*
X43313000Y-101473000D01*
X43313000Y-101453000D01*
X43567000Y-101453000D01*
X43567000Y-101473000D01*
G36*
X43081582Y-89973651D02*
G01*
X43095000Y-89990001D01*
X43123998Y-90013799D01*
X44121200Y-91011002D01*
X44144999Y-91040001D01*
X44260724Y-91134974D01*
X44392753Y-91205546D01*
X44536014Y-91249003D01*
X44647667Y-91260000D01*
X44647676Y-91260000D01*
X44684999Y-91263676D01*
X44722322Y-91260000D01*
X47185199Y-91260000D01*
X47390199Y-91465000D01*
X47388816Y-91465000D01*
X47092257Y-91523989D01*
X46812905Y-91639701D01*
X46561495Y-91807688D01*
X46495056Y-91874127D01*
X46489502Y-91855820D01*
X46430537Y-91745506D01*
X46351185Y-91648815D01*
X46254494Y-91569463D01*
X46144180Y-91510498D01*
X46024482Y-91474188D01*
X45900000Y-91461928D01*
X45285750Y-91465000D01*
X45127000Y-91623750D01*
X45127000Y-92873000D01*
X45147000Y-92873000D01*
X45147000Y-93127000D01*
X45127000Y-93127000D01*
X45127000Y-94376250D01*
X45285750Y-94535000D01*
X45900000Y-94538072D01*
X46024482Y-94525812D01*
X46144180Y-94489502D01*
X46254494Y-94430537D01*
X46351185Y-94351185D01*
X46430537Y-94254494D01*
X46489502Y-94144180D01*
X46495056Y-94125873D01*
X46561495Y-94192312D01*
X46812905Y-94360299D01*
X46915001Y-94402589D01*
X46915000Y-95650229D01*
X46797038Y-95747038D01*
X46686595Y-95881614D01*
X46604528Y-96035150D01*
X46553992Y-96201746D01*
X46536928Y-96375000D01*
X46536928Y-97625000D01*
X46553992Y-97798254D01*
X46604528Y-97964850D01*
X46686595Y-98118386D01*
X46797038Y-98252962D01*
X46931614Y-98363405D01*
X47085150Y-98445472D01*
X47251746Y-98496008D01*
X47425000Y-98513072D01*
X48175000Y-98513072D01*
X48348254Y-98496008D01*
X48514850Y-98445472D01*
X48668386Y-98363405D01*
X48802962Y-98252962D01*
X48913405Y-98118386D01*
X48928791Y-98089602D01*
X53315189Y-102476001D01*
X53338988Y-102505000D01*
X53367986Y-102528798D01*
X53454712Y-102599973D01*
X53557660Y-102655000D01*
X53586742Y-102670545D01*
X53730003Y-102714002D01*
X53841656Y-102724999D01*
X53841665Y-102724999D01*
X53878988Y-102728675D01*
X53916311Y-102724999D01*
X58576150Y-102724999D01*
X58558524Y-102783110D01*
X58679845Y-103013000D01*
X59873000Y-103013000D01*
X59873000Y-102993000D01*
X60127000Y-102993000D01*
X60127000Y-103013000D01*
X60147000Y-103013000D01*
X60147000Y-103267000D01*
X60127000Y-103267000D01*
X60127000Y-103287000D01*
X59873000Y-103287000D01*
X59873000Y-103267000D01*
X58679845Y-103267000D01*
X58558524Y-103496890D01*
X58603175Y-103644099D01*
X58728359Y-103906920D01*
X58902412Y-104140269D01*
X59118645Y-104335178D01*
X59235534Y-104404805D01*
X59053368Y-104526525D01*
X58846525Y-104733368D01*
X58721822Y-104920000D01*
X47462323Y-104920000D01*
X47425000Y-104916324D01*
X47387677Y-104920000D01*
X47387667Y-104920000D01*
X47276014Y-104930997D01*
X47132753Y-104974454D01*
X47000724Y-105045026D01*
X46884999Y-105139999D01*
X46861201Y-105168997D01*
X46689990Y-105340208D01*
X46689990Y-101041313D01*
X46693667Y-101003980D01*
X46678993Y-100854994D01*
X46635536Y-100711733D01*
X46564964Y-100579704D01*
X46539745Y-100548975D01*
X46469991Y-100463979D01*
X46440994Y-100440182D01*
X44989781Y-98988970D01*
X44965983Y-98959972D01*
X44936983Y-98936172D01*
X44850258Y-98864998D01*
X44718228Y-98794426D01*
X44618424Y-98764152D01*
X44574968Y-98750970D01*
X44507275Y-98744303D01*
X44738506Y-98513072D01*
X45375000Y-98513072D01*
X45548254Y-98496008D01*
X45714850Y-98445472D01*
X45868386Y-98363405D01*
X46002962Y-98252962D01*
X46113405Y-98118386D01*
X46195472Y-97964850D01*
X46246008Y-97798254D01*
X46263072Y-97625000D01*
X46263072Y-96375000D01*
X46246008Y-96201746D01*
X46195472Y-96035150D01*
X46113405Y-95881614D01*
X46002962Y-95747038D01*
X45868386Y-95636595D01*
X45714850Y-95554528D01*
X45548254Y-95503992D01*
X45375000Y-95486928D01*
X44625000Y-95486928D01*
X44451746Y-95503992D01*
X44285150Y-95554528D01*
X44131614Y-95636595D01*
X43997038Y-95747038D01*
X43886595Y-95881614D01*
X43804528Y-96035150D01*
X43753992Y-96201746D01*
X43736928Y-96375000D01*
X43736928Y-97011493D01*
X43308412Y-97440010D01*
X42063072Y-97440010D01*
X42063072Y-96375000D01*
X42046008Y-96201746D01*
X41995472Y-96035150D01*
X41913405Y-95881614D01*
X41802962Y-95747038D01*
X41685000Y-95650230D01*
X41685000Y-94025817D01*
X41732312Y-93978505D01*
X41784767Y-93900000D01*
X43461928Y-93900000D01*
X43474188Y-94024482D01*
X43510498Y-94144180D01*
X43569463Y-94254494D01*
X43648815Y-94351185D01*
X43745506Y-94430537D01*
X43855820Y-94489502D01*
X43975518Y-94525812D01*
X44100000Y-94538072D01*
X44714250Y-94535000D01*
X44873000Y-94376250D01*
X44873000Y-93127000D01*
X43623750Y-93127000D01*
X43465000Y-93285750D01*
X43461928Y-93900000D01*
X41784767Y-93900000D01*
X41900299Y-93727095D01*
X42016011Y-93447743D01*
X42075000Y-93151184D01*
X42075000Y-92848816D01*
X42016011Y-92552257D01*
X41900299Y-92272905D01*
X41784768Y-92100000D01*
X43461928Y-92100000D01*
X43465000Y-92714250D01*
X43623750Y-92873000D01*
X44873000Y-92873000D01*
X44873000Y-91623750D01*
X44714250Y-91465000D01*
X44100000Y-91461928D01*
X43975518Y-91474188D01*
X43855820Y-91510498D01*
X43745506Y-91569463D01*
X43648815Y-91648815D01*
X43569463Y-91745506D01*
X43510498Y-91855820D01*
X43474188Y-91975518D01*
X43461928Y-92100000D01*
X41784768Y-92100000D01*
X41732312Y-92021495D01*
X41518505Y-91807688D01*
X41267095Y-91639701D01*
X40987743Y-91523989D01*
X40691184Y-91465000D01*
X40388816Y-91465000D01*
X40092257Y-91523989D01*
X39812905Y-91639701D01*
X39561495Y-91807688D01*
X39495056Y-91874127D01*
X39489502Y-91855820D01*
X39430537Y-91745506D01*
X39351185Y-91648815D01*
X39254494Y-91569463D01*
X39144180Y-91510498D01*
X39024482Y-91474188D01*
X38900000Y-91461928D01*
X38285750Y-91465000D01*
X38127002Y-91623748D01*
X38127002Y-91514574D01*
X38856567Y-90785010D01*
X39331521Y-90785010D01*
X39374990Y-90789291D01*
X39418459Y-90785010D01*
X39418467Y-90785010D01*
X39548480Y-90772205D01*
X39715303Y-90721599D01*
X39869049Y-90639421D01*
X40003807Y-90528827D01*
X40031524Y-90495054D01*
X40420045Y-90106533D01*
X40453817Y-90078817D01*
X40481354Y-90045264D01*
X40484034Y-90048529D01*
X40554999Y-90135001D01*
X40584002Y-90158803D01*
X40965000Y-90539801D01*
X40965000Y-90601939D01*
X41004774Y-90801898D01*
X41082795Y-90990256D01*
X41196063Y-91159774D01*
X41340226Y-91303937D01*
X41509744Y-91417205D01*
X41698102Y-91495226D01*
X41898061Y-91535000D01*
X42101939Y-91535000D01*
X42301898Y-91495226D01*
X42490256Y-91417205D01*
X42659774Y-91303937D01*
X42803937Y-91159774D01*
X42917205Y-90990256D01*
X42995226Y-90801898D01*
X43035000Y-90601939D01*
X43035000Y-90398061D01*
X42995226Y-90198102D01*
X42925842Y-90030596D01*
X43019494Y-89980537D01*
X43049064Y-89956270D01*
X43081582Y-89973651D01*
G37*
X43081582Y-89973651D02*
X43095000Y-89990001D01*
X43123998Y-90013799D01*
X44121200Y-91011002D01*
X44144999Y-91040001D01*
X44260724Y-91134974D01*
X44392753Y-91205546D01*
X44536014Y-91249003D01*
X44647667Y-91260000D01*
X44647676Y-91260000D01*
X44684999Y-91263676D01*
X44722322Y-91260000D01*
X47185199Y-91260000D01*
X47390199Y-91465000D01*
X47388816Y-91465000D01*
X47092257Y-91523989D01*
X46812905Y-91639701D01*
X46561495Y-91807688D01*
X46495056Y-91874127D01*
X46489502Y-91855820D01*
X46430537Y-91745506D01*
X46351185Y-91648815D01*
X46254494Y-91569463D01*
X46144180Y-91510498D01*
X46024482Y-91474188D01*
X45900000Y-91461928D01*
X45285750Y-91465000D01*
X45127000Y-91623750D01*
X45127000Y-92873000D01*
X45147000Y-92873000D01*
X45147000Y-93127000D01*
X45127000Y-93127000D01*
X45127000Y-94376250D01*
X45285750Y-94535000D01*
X45900000Y-94538072D01*
X46024482Y-94525812D01*
X46144180Y-94489502D01*
X46254494Y-94430537D01*
X46351185Y-94351185D01*
X46430537Y-94254494D01*
X46489502Y-94144180D01*
X46495056Y-94125873D01*
X46561495Y-94192312D01*
X46812905Y-94360299D01*
X46915001Y-94402589D01*
X46915000Y-95650229D01*
X46797038Y-95747038D01*
X46686595Y-95881614D01*
X46604528Y-96035150D01*
X46553992Y-96201746D01*
X46536928Y-96375000D01*
X46536928Y-97625000D01*
X46553992Y-97798254D01*
X46604528Y-97964850D01*
X46686595Y-98118386D01*
X46797038Y-98252962D01*
X46931614Y-98363405D01*
X47085150Y-98445472D01*
X47251746Y-98496008D01*
X47425000Y-98513072D01*
X48175000Y-98513072D01*
X48348254Y-98496008D01*
X48514850Y-98445472D01*
X48668386Y-98363405D01*
X48802962Y-98252962D01*
X48913405Y-98118386D01*
X48928791Y-98089602D01*
X53315189Y-102476001D01*
X53338988Y-102505000D01*
X53367986Y-102528798D01*
X53454712Y-102599973D01*
X53557660Y-102655000D01*
X53586742Y-102670545D01*
X53730003Y-102714002D01*
X53841656Y-102724999D01*
X53841665Y-102724999D01*
X53878988Y-102728675D01*
X53916311Y-102724999D01*
X58576150Y-102724999D01*
X58558524Y-102783110D01*
X58679845Y-103013000D01*
X59873000Y-103013000D01*
X59873000Y-102993000D01*
X60127000Y-102993000D01*
X60127000Y-103013000D01*
X60147000Y-103013000D01*
X60147000Y-103267000D01*
X60127000Y-103267000D01*
X60127000Y-103287000D01*
X59873000Y-103287000D01*
X59873000Y-103267000D01*
X58679845Y-103267000D01*
X58558524Y-103496890D01*
X58603175Y-103644099D01*
X58728359Y-103906920D01*
X58902412Y-104140269D01*
X59118645Y-104335178D01*
X59235534Y-104404805D01*
X59053368Y-104526525D01*
X58846525Y-104733368D01*
X58721822Y-104920000D01*
X47462323Y-104920000D01*
X47425000Y-104916324D01*
X47387677Y-104920000D01*
X47387667Y-104920000D01*
X47276014Y-104930997D01*
X47132753Y-104974454D01*
X47000724Y-105045026D01*
X46884999Y-105139999D01*
X46861201Y-105168997D01*
X46689990Y-105340208D01*
X46689990Y-101041313D01*
X46693667Y-101003980D01*
X46678993Y-100854994D01*
X46635536Y-100711733D01*
X46564964Y-100579704D01*
X46539745Y-100548975D01*
X46469991Y-100463979D01*
X46440994Y-100440182D01*
X44989781Y-98988970D01*
X44965983Y-98959972D01*
X44936983Y-98936172D01*
X44850258Y-98864998D01*
X44718228Y-98794426D01*
X44618424Y-98764152D01*
X44574968Y-98750970D01*
X44507275Y-98744303D01*
X44738506Y-98513072D01*
X45375000Y-98513072D01*
X45548254Y-98496008D01*
X45714850Y-98445472D01*
X45868386Y-98363405D01*
X46002962Y-98252962D01*
X46113405Y-98118386D01*
X46195472Y-97964850D01*
X46246008Y-97798254D01*
X46263072Y-97625000D01*
X46263072Y-96375000D01*
X46246008Y-96201746D01*
X46195472Y-96035150D01*
X46113405Y-95881614D01*
X46002962Y-95747038D01*
X45868386Y-95636595D01*
X45714850Y-95554528D01*
X45548254Y-95503992D01*
X45375000Y-95486928D01*
X44625000Y-95486928D01*
X44451746Y-95503992D01*
X44285150Y-95554528D01*
X44131614Y-95636595D01*
X43997038Y-95747038D01*
X43886595Y-95881614D01*
X43804528Y-96035150D01*
X43753992Y-96201746D01*
X43736928Y-96375000D01*
X43736928Y-97011493D01*
X43308412Y-97440010D01*
X42063072Y-97440010D01*
X42063072Y-96375000D01*
X42046008Y-96201746D01*
X41995472Y-96035150D01*
X41913405Y-95881614D01*
X41802962Y-95747038D01*
X41685000Y-95650230D01*
X41685000Y-94025817D01*
X41732312Y-93978505D01*
X41784767Y-93900000D01*
X43461928Y-93900000D01*
X43474188Y-94024482D01*
X43510498Y-94144180D01*
X43569463Y-94254494D01*
X43648815Y-94351185D01*
X43745506Y-94430537D01*
X43855820Y-94489502D01*
X43975518Y-94525812D01*
X44100000Y-94538072D01*
X44714250Y-94535000D01*
X44873000Y-94376250D01*
X44873000Y-93127000D01*
X43623750Y-93127000D01*
X43465000Y-93285750D01*
X43461928Y-93900000D01*
X41784767Y-93900000D01*
X41900299Y-93727095D01*
X42016011Y-93447743D01*
X42075000Y-93151184D01*
X42075000Y-92848816D01*
X42016011Y-92552257D01*
X41900299Y-92272905D01*
X41784768Y-92100000D01*
X43461928Y-92100000D01*
X43465000Y-92714250D01*
X43623750Y-92873000D01*
X44873000Y-92873000D01*
X44873000Y-91623750D01*
X44714250Y-91465000D01*
X44100000Y-91461928D01*
X43975518Y-91474188D01*
X43855820Y-91510498D01*
X43745506Y-91569463D01*
X43648815Y-91648815D01*
X43569463Y-91745506D01*
X43510498Y-91855820D01*
X43474188Y-91975518D01*
X43461928Y-92100000D01*
X41784768Y-92100000D01*
X41732312Y-92021495D01*
X41518505Y-91807688D01*
X41267095Y-91639701D01*
X40987743Y-91523989D01*
X40691184Y-91465000D01*
X40388816Y-91465000D01*
X40092257Y-91523989D01*
X39812905Y-91639701D01*
X39561495Y-91807688D01*
X39495056Y-91874127D01*
X39489502Y-91855820D01*
X39430537Y-91745506D01*
X39351185Y-91648815D01*
X39254494Y-91569463D01*
X39144180Y-91510498D01*
X39024482Y-91474188D01*
X38900000Y-91461928D01*
X38285750Y-91465000D01*
X38127002Y-91623748D01*
X38127002Y-91514574D01*
X38856567Y-90785010D01*
X39331521Y-90785010D01*
X39374990Y-90789291D01*
X39418459Y-90785010D01*
X39418467Y-90785010D01*
X39548480Y-90772205D01*
X39715303Y-90721599D01*
X39869049Y-90639421D01*
X40003807Y-90528827D01*
X40031524Y-90495054D01*
X40420045Y-90106533D01*
X40453817Y-90078817D01*
X40481354Y-90045264D01*
X40484034Y-90048529D01*
X40554999Y-90135001D01*
X40584002Y-90158803D01*
X40965000Y-90539801D01*
X40965000Y-90601939D01*
X41004774Y-90801898D01*
X41082795Y-90990256D01*
X41196063Y-91159774D01*
X41340226Y-91303937D01*
X41509744Y-91417205D01*
X41698102Y-91495226D01*
X41898061Y-91535000D01*
X42101939Y-91535000D01*
X42301898Y-91495226D01*
X42490256Y-91417205D01*
X42659774Y-91303937D01*
X42803937Y-91159774D01*
X42917205Y-90990256D01*
X42995226Y-90801898D01*
X43035000Y-90601939D01*
X43035000Y-90398061D01*
X42995226Y-90198102D01*
X42925842Y-90030596D01*
X43019494Y-89980537D01*
X43049064Y-89956270D01*
X43081582Y-89973651D01*
G36*
X64340000Y-51005093D02*
G01*
X64235107Y-50751859D01*
X63946738Y-50320285D01*
X63579715Y-49953262D01*
X63148141Y-49664893D01*
X62668601Y-49466261D01*
X62159525Y-49365000D01*
X61640475Y-49365000D01*
X61131399Y-49466261D01*
X60651859Y-49664893D01*
X60220285Y-49953262D01*
X59853262Y-50320285D01*
X59564893Y-50751859D01*
X59366261Y-51231399D01*
X59265000Y-51740475D01*
X59265000Y-52259525D01*
X59366261Y-52768601D01*
X59564893Y-53248141D01*
X59853262Y-53679715D01*
X60220285Y-54046738D01*
X60651859Y-54335107D01*
X61131399Y-54533739D01*
X61640475Y-54635000D01*
X62159525Y-54635000D01*
X62668601Y-54533739D01*
X63148141Y-54335107D01*
X63579715Y-54046738D01*
X63946738Y-53679715D01*
X64235107Y-53248141D01*
X64340000Y-52994907D01*
X64340000Y-72005093D01*
X64235107Y-71751859D01*
X63946738Y-71320285D01*
X63579715Y-70953262D01*
X63148141Y-70664893D01*
X62668601Y-70466261D01*
X62159525Y-70365000D01*
X61640475Y-70365000D01*
X61131399Y-70466261D01*
X60651859Y-70664893D01*
X60220285Y-70953262D01*
X59853262Y-71320285D01*
X59564893Y-71751859D01*
X59366261Y-72231399D01*
X59265000Y-72740475D01*
X59265000Y-73259525D01*
X59366261Y-73768601D01*
X59564893Y-74248141D01*
X59853262Y-74679715D01*
X60220285Y-75046738D01*
X60651859Y-75335107D01*
X61131399Y-75533739D01*
X61640475Y-75635000D01*
X62159525Y-75635000D01*
X62668601Y-75533739D01*
X63148141Y-75335107D01*
X63579715Y-75046738D01*
X63946738Y-74679715D01*
X64235107Y-74248141D01*
X64340000Y-73994907D01*
X64340001Y-100765199D01*
X64063804Y-100489002D01*
X64040001Y-100459999D01*
X63924276Y-100365026D01*
X63792247Y-100294454D01*
X63648986Y-100250997D01*
X63537333Y-100240000D01*
X63537322Y-100240000D01*
X63500000Y-100236324D01*
X63462678Y-100240000D01*
X63223711Y-100240000D01*
X63303937Y-100159774D01*
X63417205Y-99990256D01*
X63495226Y-99801898D01*
X63535000Y-99601939D01*
X63535000Y-99398061D01*
X63495226Y-99198102D01*
X63417205Y-99009744D01*
X63303937Y-98840226D01*
X63159774Y-98696063D01*
X62990256Y-98582795D01*
X62801898Y-98504774D01*
X62601939Y-98465000D01*
X62450474Y-98465000D01*
X62514850Y-98445472D01*
X62668386Y-98363405D01*
X62802962Y-98252962D01*
X62913405Y-98118386D01*
X62995472Y-97964850D01*
X63046008Y-97798254D01*
X63063072Y-97625000D01*
X63063072Y-96375000D01*
X63046008Y-96201746D01*
X62995472Y-96035150D01*
X62913405Y-95881614D01*
X62802962Y-95747038D01*
X62685000Y-95650230D01*
X62685000Y-94025817D01*
X62732312Y-93978505D01*
X62900299Y-93727095D01*
X63016011Y-93447743D01*
X63075000Y-93151184D01*
X63075000Y-92848816D01*
X63016011Y-92552257D01*
X62900299Y-92272905D01*
X62732312Y-92021495D01*
X62518505Y-91807688D01*
X62267095Y-91639701D01*
X61987743Y-91523989D01*
X61691184Y-91465000D01*
X61407803Y-91465000D01*
X61956004Y-90916800D01*
X61985001Y-90893003D01*
X62079974Y-90777278D01*
X62150546Y-90645249D01*
X62194003Y-90501988D01*
X62205000Y-90390335D01*
X62205000Y-90390325D01*
X62208676Y-90353002D01*
X62205000Y-90315679D01*
X62205000Y-89792976D01*
X62250258Y-89737829D01*
X62323084Y-89601582D01*
X62367929Y-89453745D01*
X62383072Y-89300000D01*
X62383072Y-87650000D01*
X62367929Y-87496255D01*
X62323084Y-87348418D01*
X62250258Y-87212171D01*
X62152251Y-87092749D01*
X62032829Y-86994742D01*
X61896582Y-86921916D01*
X61748745Y-86877071D01*
X61595000Y-86861928D01*
X61295000Y-86861928D01*
X61141255Y-86877071D01*
X60993418Y-86921916D01*
X60857171Y-86994742D01*
X60810000Y-87033454D01*
X60762829Y-86994742D01*
X60626582Y-86921916D01*
X60478745Y-86877071D01*
X60325000Y-86861928D01*
X60025000Y-86861928D01*
X59871255Y-86877071D01*
X59723418Y-86921916D01*
X59587171Y-86994742D01*
X59540000Y-87033454D01*
X59492829Y-86994742D01*
X59356582Y-86921916D01*
X59208745Y-86877071D01*
X59055000Y-86861928D01*
X59020010Y-86861928D01*
X59020010Y-85135000D01*
X59032002Y-85135000D01*
X59032002Y-84976252D01*
X59190750Y-85135000D01*
X59205000Y-85138072D01*
X59329482Y-85125812D01*
X59449180Y-85089502D01*
X59540000Y-85040957D01*
X59630820Y-85089502D01*
X59750518Y-85125812D01*
X59875000Y-85138072D01*
X59889250Y-85135000D01*
X60048000Y-84976250D01*
X60048000Y-83652000D01*
X60302000Y-83652000D01*
X60302000Y-84976250D01*
X60460750Y-85135000D01*
X60475000Y-85138072D01*
X60599482Y-85125812D01*
X60719180Y-85089502D01*
X60810000Y-85040957D01*
X60900820Y-85089502D01*
X61020518Y-85125812D01*
X61145000Y-85138072D01*
X61159250Y-85135000D01*
X61318000Y-84976250D01*
X61318000Y-83652000D01*
X61572000Y-83652000D01*
X61572000Y-84976250D01*
X61730750Y-85135000D01*
X61745000Y-85138072D01*
X61869482Y-85125812D01*
X61989180Y-85089502D01*
X62099494Y-85030537D01*
X62196185Y-84951185D01*
X62275537Y-84854494D01*
X62334502Y-84744180D01*
X62370812Y-84624482D01*
X62383072Y-84500000D01*
X62380000Y-83810750D01*
X62221250Y-83652000D01*
X61572000Y-83652000D01*
X61318000Y-83652000D01*
X60302000Y-83652000D01*
X60048000Y-83652000D01*
X59032000Y-83652000D01*
X59032000Y-83672000D01*
X59020010Y-83672000D01*
X59020010Y-83378000D01*
X59032000Y-83378000D01*
X59032000Y-83398000D01*
X60048000Y-83398000D01*
X60048000Y-82073750D01*
X60302000Y-82073750D01*
X60302000Y-83398000D01*
X61318000Y-83398000D01*
X61318000Y-82073750D01*
X61572000Y-82073750D01*
X61572000Y-83398000D01*
X62221250Y-83398000D01*
X62380000Y-83239250D01*
X62383072Y-82550000D01*
X62370812Y-82425518D01*
X62334502Y-82305820D01*
X62275537Y-82195506D01*
X62196185Y-82098815D01*
X62099494Y-82019463D01*
X61989180Y-81960498D01*
X61869482Y-81924188D01*
X61745000Y-81911928D01*
X61730750Y-81915000D01*
X61572000Y-82073750D01*
X61318000Y-82073750D01*
X61159250Y-81915000D01*
X61145000Y-81911928D01*
X61020518Y-81924188D01*
X60900820Y-81960498D01*
X60810000Y-82009043D01*
X60719180Y-81960498D01*
X60599482Y-81924188D01*
X60475000Y-81911928D01*
X60460750Y-81915000D01*
X60302000Y-82073750D01*
X60048000Y-82073750D01*
X59889250Y-81915000D01*
X59875000Y-81911928D01*
X59750518Y-81924188D01*
X59630820Y-81960498D01*
X59540000Y-82009043D01*
X59449180Y-81960498D01*
X59329482Y-81924188D01*
X59205000Y-81911928D01*
X59190750Y-81915000D01*
X59032002Y-82073748D01*
X59032002Y-81915000D01*
X59020010Y-81915000D01*
X59020010Y-81190827D01*
X59021495Y-81192312D01*
X59272905Y-81360299D01*
X59552257Y-81476011D01*
X59848816Y-81535000D01*
X60151184Y-81535000D01*
X60447743Y-81476011D01*
X60727095Y-81360299D01*
X60978505Y-81192312D01*
X61192312Y-80978505D01*
X61360299Y-80727095D01*
X61476011Y-80447743D01*
X61535000Y-80151184D01*
X61535000Y-79848816D01*
X61476011Y-79552257D01*
X61360299Y-79272905D01*
X61192312Y-79021495D01*
X60978505Y-78807688D01*
X60727095Y-78639701D01*
X60447743Y-78523989D01*
X60151184Y-78465000D01*
X59848816Y-78465000D01*
X59552257Y-78523989D01*
X59272905Y-78639701D01*
X59021495Y-78807688D01*
X58807688Y-79021495D01*
X58750000Y-79107831D01*
X58692312Y-79021495D01*
X58478505Y-78807688D01*
X58227095Y-78639701D01*
X57947743Y-78523989D01*
X57651184Y-78465000D01*
X57348816Y-78465000D01*
X57052257Y-78523989D01*
X57034999Y-78531138D01*
X57034999Y-60539802D01*
X57091070Y-60483731D01*
X57348816Y-60535000D01*
X57651184Y-60535000D01*
X57947743Y-60476011D01*
X58227095Y-60360299D01*
X58478505Y-60192312D01*
X58692312Y-59978505D01*
X58750000Y-59892169D01*
X58807688Y-59978505D01*
X59021495Y-60192312D01*
X59272905Y-60360299D01*
X59552257Y-60476011D01*
X59848816Y-60535000D01*
X60151184Y-60535000D01*
X60447743Y-60476011D01*
X60727095Y-60360299D01*
X60978505Y-60192312D01*
X61192312Y-59978505D01*
X61360299Y-59727095D01*
X61476011Y-59447743D01*
X61535000Y-59151184D01*
X61535000Y-58848816D01*
X61476011Y-58552257D01*
X61360299Y-58272905D01*
X61192312Y-58021495D01*
X60978505Y-57807688D01*
X60727095Y-57639701D01*
X60447743Y-57523989D01*
X60151184Y-57465000D01*
X59848816Y-57465000D01*
X59552257Y-57523989D01*
X59272905Y-57639701D01*
X59021495Y-57807688D01*
X58807688Y-58021495D01*
X58750000Y-58107831D01*
X58692312Y-58021495D01*
X58478505Y-57807688D01*
X58227095Y-57639701D01*
X57947743Y-57523989D01*
X57651184Y-57465000D01*
X57348816Y-57465000D01*
X57052257Y-57523989D01*
X56772905Y-57639701D01*
X56521495Y-57807688D01*
X56307688Y-58021495D01*
X56212262Y-58164310D01*
X56064080Y-58115525D01*
X55179605Y-59000000D01*
X55193748Y-59014143D01*
X55014143Y-59193748D01*
X55000000Y-59179605D01*
X54115525Y-60064080D01*
X54199208Y-60318261D01*
X54471775Y-60449158D01*
X54764642Y-60524365D01*
X55066553Y-60540991D01*
X55365907Y-60498397D01*
X55514999Y-60446046D01*
X55515000Y-71944737D01*
X55435107Y-71751859D01*
X55146738Y-71320285D01*
X54779715Y-70953262D01*
X54348141Y-70664893D01*
X53868601Y-70466261D01*
X53359525Y-70365000D01*
X52840475Y-70365000D01*
X52331399Y-70466261D01*
X51851859Y-70664893D01*
X51420285Y-70953262D01*
X51053262Y-71320285D01*
X50764893Y-71751859D01*
X50566261Y-72231399D01*
X50465000Y-72740475D01*
X50465000Y-73259525D01*
X50566261Y-73768601D01*
X50764893Y-74248141D01*
X51053262Y-74679715D01*
X51420285Y-75046738D01*
X51851859Y-75335107D01*
X52331399Y-75533739D01*
X52840475Y-75635000D01*
X53359525Y-75635000D01*
X53868601Y-75533739D01*
X54348141Y-75335107D01*
X54779715Y-75046738D01*
X55146738Y-74679715D01*
X55435107Y-74248141D01*
X55515000Y-74055263D01*
X55515000Y-78547446D01*
X55235358Y-78475635D01*
X54933447Y-78459009D01*
X54634093Y-78501603D01*
X54348801Y-78601778D01*
X54199208Y-78681739D01*
X54115525Y-78935920D01*
X55000000Y-79820395D01*
X55014143Y-79806253D01*
X55193748Y-79985858D01*
X55179605Y-80000000D01*
X55193748Y-80014143D01*
X55014143Y-80193748D01*
X55000000Y-80179605D01*
X54115525Y-81064080D01*
X54199208Y-81318261D01*
X54348327Y-81389874D01*
X53958993Y-81779208D01*
X53929989Y-81803011D01*
X53883240Y-81859975D01*
X53840603Y-81911928D01*
X53675000Y-81911928D01*
X53521255Y-81927071D01*
X53373418Y-81971916D01*
X53237171Y-82044742D01*
X53190000Y-82083454D01*
X53142829Y-82044742D01*
X53006582Y-81971916D01*
X52858745Y-81927071D01*
X52705000Y-81911928D01*
X52405000Y-81911928D01*
X52251255Y-81927071D01*
X52103418Y-81971916D01*
X51967171Y-82044742D01*
X51847749Y-82142749D01*
X51749742Y-82262171D01*
X51676916Y-82398418D01*
X51632071Y-82546255D01*
X51616928Y-82700000D01*
X51616928Y-82970938D01*
X49359993Y-80714004D01*
X49336190Y-80685000D01*
X49220465Y-80590027D01*
X49088436Y-80519455D01*
X48945175Y-80475998D01*
X48833522Y-80465001D01*
X48833511Y-80465001D01*
X48796189Y-80461325D01*
X48758867Y-80465001D01*
X46468862Y-80465001D01*
X46476011Y-80447743D01*
X46535000Y-80151184D01*
X46535000Y-80066553D01*
X53459009Y-80066553D01*
X53501603Y-80365907D01*
X53601778Y-80651199D01*
X53681739Y-80800792D01*
X53935920Y-80884475D01*
X54820395Y-80000000D01*
X53935920Y-79115525D01*
X53681739Y-79199208D01*
X53550842Y-79471775D01*
X53475635Y-79764642D01*
X53459009Y-80066553D01*
X46535000Y-80066553D01*
X46535000Y-79848816D01*
X46476011Y-79552257D01*
X46360299Y-79272905D01*
X46192312Y-79021495D01*
X45978505Y-78807688D01*
X45727095Y-78639701D01*
X45447743Y-78523989D01*
X45151184Y-78465000D01*
X44848816Y-78465000D01*
X44552257Y-78523989D01*
X44272905Y-78639701D01*
X44021495Y-78807688D01*
X43807688Y-79021495D01*
X43750000Y-79107831D01*
X43692312Y-79021495D01*
X43478505Y-78807688D01*
X43227095Y-78639701D01*
X42947743Y-78523989D01*
X42651184Y-78465000D01*
X42348816Y-78465000D01*
X42052257Y-78523989D01*
X41772905Y-78639701D01*
X41521495Y-78807688D01*
X41307688Y-79021495D01*
X41212262Y-79164310D01*
X41064080Y-79115525D01*
X40179605Y-80000000D01*
X41064080Y-80884475D01*
X41212262Y-80835690D01*
X41307688Y-80978505D01*
X41521495Y-81192312D01*
X41549723Y-81211173D01*
X41545009Y-81210709D01*
X41501543Y-81214990D01*
X41501533Y-81214990D01*
X41371520Y-81227795D01*
X41204697Y-81278401D01*
X41050951Y-81360579D01*
X40916193Y-81471173D01*
X40888476Y-81504946D01*
X40499952Y-81893470D01*
X40466184Y-81921183D01*
X40438471Y-81954951D01*
X40438468Y-81954954D01*
X40379431Y-82026890D01*
X40276582Y-81971916D01*
X40128745Y-81927071D01*
X39975000Y-81911928D01*
X39675000Y-81911928D01*
X39521255Y-81927071D01*
X39373418Y-81971916D01*
X39237171Y-82044742D01*
X39190000Y-82083454D01*
X39142829Y-82044742D01*
X39006582Y-81971916D01*
X38858745Y-81927071D01*
X38705000Y-81911928D01*
X38405000Y-81911928D01*
X38251255Y-81927071D01*
X38103418Y-81971916D01*
X37967171Y-82044742D01*
X37847749Y-82142749D01*
X37749742Y-82262171D01*
X37676916Y-82398418D01*
X37632071Y-82546255D01*
X37616928Y-82700000D01*
X37616928Y-83211493D01*
X35660000Y-85168422D01*
X35660000Y-81064080D01*
X39115525Y-81064080D01*
X39199208Y-81318261D01*
X39471775Y-81449158D01*
X39764642Y-81524365D01*
X40066553Y-81540991D01*
X40365907Y-81498397D01*
X40651199Y-81398222D01*
X40800792Y-81318261D01*
X40884475Y-81064080D01*
X40000000Y-80179605D01*
X39115525Y-81064080D01*
X35660000Y-81064080D01*
X35660000Y-80066553D01*
X38459009Y-80066553D01*
X38501603Y-80365907D01*
X38601778Y-80651199D01*
X38681739Y-80800792D01*
X38935920Y-80884475D01*
X39820395Y-80000000D01*
X38935920Y-79115525D01*
X38681739Y-79199208D01*
X38550842Y-79471775D01*
X38475635Y-79764642D01*
X38459009Y-80066553D01*
X35660000Y-80066553D01*
X35660000Y-78935920D01*
X39115525Y-78935920D01*
X40000000Y-79820395D01*
X40884475Y-78935920D01*
X40800792Y-78681739D01*
X40528225Y-78550842D01*
X40235358Y-78475635D01*
X39933447Y-78459009D01*
X39634093Y-78501603D01*
X39348801Y-78601778D01*
X39199208Y-78681739D01*
X39115525Y-78935920D01*
X35660000Y-78935920D01*
X35660000Y-73994907D01*
X35764893Y-74248141D01*
X36053262Y-74679715D01*
X36420285Y-75046738D01*
X36851859Y-75335107D01*
X37331399Y-75533739D01*
X37840475Y-75635000D01*
X38359525Y-75635000D01*
X38868601Y-75533739D01*
X39348141Y-75335107D01*
X39779715Y-75046738D01*
X40146738Y-74679715D01*
X40435107Y-74248141D01*
X40633739Y-73768601D01*
X40735000Y-73259525D01*
X40735000Y-72740475D01*
X44265000Y-72740475D01*
X44265000Y-73259525D01*
X44366261Y-73768601D01*
X44564893Y-74248141D01*
X44853262Y-74679715D01*
X45220285Y-75046738D01*
X45651859Y-75335107D01*
X46131399Y-75533739D01*
X46640475Y-75635000D01*
X47159525Y-75635000D01*
X47668601Y-75533739D01*
X48148141Y-75335107D01*
X48579715Y-75046738D01*
X48946738Y-74679715D01*
X49235107Y-74248141D01*
X49433739Y-73768601D01*
X49535000Y-73259525D01*
X49535000Y-72740475D01*
X49433739Y-72231399D01*
X49235107Y-71751859D01*
X48946738Y-71320285D01*
X48579715Y-70953262D01*
X48148141Y-70664893D01*
X47668601Y-70466261D01*
X47159525Y-70365000D01*
X46640475Y-70365000D01*
X46131399Y-70466261D01*
X45651859Y-70664893D01*
X45220285Y-70953262D01*
X44853262Y-71320285D01*
X44564893Y-71751859D01*
X44366261Y-72231399D01*
X44265000Y-72740475D01*
X40735000Y-72740475D01*
X40633739Y-72231399D01*
X40435107Y-71751859D01*
X40146738Y-71320285D01*
X39779715Y-70953262D01*
X39348141Y-70664893D01*
X38868601Y-70466261D01*
X38359525Y-70365000D01*
X37840475Y-70365000D01*
X37331399Y-70466261D01*
X36851859Y-70664893D01*
X36420285Y-70953262D01*
X36053262Y-71320285D01*
X35764893Y-71751859D01*
X35660000Y-72005093D01*
X35660000Y-62779872D01*
X47765000Y-62779872D01*
X47765000Y-63220128D01*
X47850890Y-63651925D01*
X48019369Y-64058669D01*
X48263962Y-64424729D01*
X48575271Y-64736038D01*
X48941331Y-64980631D01*
X49348075Y-65149110D01*
X49779872Y-65235000D01*
X50220128Y-65235000D01*
X50651925Y-65149110D01*
X51058669Y-64980631D01*
X51424729Y-64736038D01*
X51736038Y-64424729D01*
X51980631Y-64058669D01*
X52149110Y-63651925D01*
X52235000Y-63220128D01*
X52235000Y-62779872D01*
X52149110Y-62348075D01*
X51980631Y-61941331D01*
X51736038Y-61575271D01*
X51424729Y-61263962D01*
X51058669Y-61019369D01*
X50651925Y-60850890D01*
X50220128Y-60765000D01*
X49779872Y-60765000D01*
X49348075Y-60850890D01*
X48941331Y-61019369D01*
X48575271Y-61263962D01*
X48263962Y-61575271D01*
X48019369Y-61941331D01*
X47850890Y-62348075D01*
X47765000Y-62779872D01*
X35660000Y-62779872D01*
X35660000Y-60064080D01*
X39115525Y-60064080D01*
X39199208Y-60318261D01*
X39471775Y-60449158D01*
X39764642Y-60524365D01*
X40066553Y-60540991D01*
X40365907Y-60498397D01*
X40651199Y-60398222D01*
X40800792Y-60318261D01*
X40884475Y-60064080D01*
X40000000Y-59179605D01*
X39115525Y-60064080D01*
X35660000Y-60064080D01*
X35660000Y-59066553D01*
X38459009Y-59066553D01*
X38501603Y-59365907D01*
X38601778Y-59651199D01*
X38681739Y-59800792D01*
X38935920Y-59884475D01*
X39820395Y-59000000D01*
X40179605Y-59000000D01*
X41064080Y-59884475D01*
X41212262Y-59835690D01*
X41307688Y-59978505D01*
X41521495Y-60192312D01*
X41772905Y-60360299D01*
X42052257Y-60476011D01*
X42348816Y-60535000D01*
X42651184Y-60535000D01*
X42947743Y-60476011D01*
X43227095Y-60360299D01*
X43478505Y-60192312D01*
X43692312Y-59978505D01*
X43750000Y-59892169D01*
X43807688Y-59978505D01*
X44021495Y-60192312D01*
X44272905Y-60360299D01*
X44552257Y-60476011D01*
X44848816Y-60535000D01*
X45151184Y-60535000D01*
X45447743Y-60476011D01*
X45727095Y-60360299D01*
X45978505Y-60192312D01*
X46192312Y-59978505D01*
X46360299Y-59727095D01*
X46476011Y-59447743D01*
X46535000Y-59151184D01*
X46535000Y-59066553D01*
X53459009Y-59066553D01*
X53501603Y-59365907D01*
X53601778Y-59651199D01*
X53681739Y-59800792D01*
X53935920Y-59884475D01*
X54820395Y-59000000D01*
X53935920Y-58115525D01*
X53681739Y-58199208D01*
X53550842Y-58471775D01*
X53475635Y-58764642D01*
X53459009Y-59066553D01*
X46535000Y-59066553D01*
X46535000Y-58848816D01*
X46476011Y-58552257D01*
X46360299Y-58272905D01*
X46192312Y-58021495D01*
X46106737Y-57935920D01*
X54115525Y-57935920D01*
X55000000Y-58820395D01*
X55884475Y-57935920D01*
X55800792Y-57681739D01*
X55528225Y-57550842D01*
X55235358Y-57475635D01*
X54933447Y-57459009D01*
X54634093Y-57501603D01*
X54348801Y-57601778D01*
X54199208Y-57681739D01*
X54115525Y-57935920D01*
X46106737Y-57935920D01*
X45978505Y-57807688D01*
X45727095Y-57639701D01*
X45447743Y-57523989D01*
X45151184Y-57465000D01*
X44848816Y-57465000D01*
X44552257Y-57523989D01*
X44272905Y-57639701D01*
X44021495Y-57807688D01*
X43807688Y-58021495D01*
X43750000Y-58107831D01*
X43692312Y-58021495D01*
X43478505Y-57807688D01*
X43227095Y-57639701D01*
X42947743Y-57523989D01*
X42651184Y-57465000D01*
X42348816Y-57465000D01*
X42052257Y-57523989D01*
X41772905Y-57639701D01*
X41521495Y-57807688D01*
X41307688Y-58021495D01*
X41212262Y-58164310D01*
X41064080Y-58115525D01*
X40179605Y-59000000D01*
X39820395Y-59000000D01*
X38935920Y-58115525D01*
X38681739Y-58199208D01*
X38550842Y-58471775D01*
X38475635Y-58764642D01*
X38459009Y-59066553D01*
X35660000Y-59066553D01*
X35660000Y-57935920D01*
X39115525Y-57935920D01*
X40000000Y-58820395D01*
X40884475Y-57935920D01*
X40800792Y-57681739D01*
X40528225Y-57550842D01*
X40235358Y-57475635D01*
X39933447Y-57459009D01*
X39634093Y-57501603D01*
X39348801Y-57601778D01*
X39199208Y-57681739D01*
X39115525Y-57935920D01*
X35660000Y-57935920D01*
X35660000Y-52994907D01*
X35764893Y-53248141D01*
X36053262Y-53679715D01*
X36420285Y-54046738D01*
X36851859Y-54335107D01*
X37331399Y-54533739D01*
X37840475Y-54635000D01*
X38359525Y-54635000D01*
X38868601Y-54533739D01*
X39348141Y-54335107D01*
X39779715Y-54046738D01*
X40146738Y-53679715D01*
X40435107Y-53248141D01*
X40633739Y-52768601D01*
X40735000Y-52259525D01*
X40735000Y-51740475D01*
X44265000Y-51740475D01*
X44265000Y-52259525D01*
X44366261Y-52768601D01*
X44564893Y-53248141D01*
X44853262Y-53679715D01*
X45220285Y-54046738D01*
X45651859Y-54335107D01*
X46131399Y-54533739D01*
X46640475Y-54635000D01*
X47159525Y-54635000D01*
X47668601Y-54533739D01*
X48148141Y-54335107D01*
X48579715Y-54046738D01*
X48946738Y-53679715D01*
X49235107Y-53248141D01*
X49433739Y-52768601D01*
X49535000Y-52259525D01*
X49535000Y-51740475D01*
X50465000Y-51740475D01*
X50465000Y-52259525D01*
X50566261Y-52768601D01*
X50764893Y-53248141D01*
X51053262Y-53679715D01*
X51420285Y-54046738D01*
X51851859Y-54335107D01*
X52331399Y-54533739D01*
X52840475Y-54635000D01*
X53359525Y-54635000D01*
X53868601Y-54533739D01*
X54348141Y-54335107D01*
X54779715Y-54046738D01*
X55146738Y-53679715D01*
X55435107Y-53248141D01*
X55633739Y-52768601D01*
X55735000Y-52259525D01*
X55735000Y-51740475D01*
X55633739Y-51231399D01*
X55435107Y-50751859D01*
X55146738Y-50320285D01*
X54779715Y-49953262D01*
X54348141Y-49664893D01*
X53868601Y-49466261D01*
X53359525Y-49365000D01*
X52840475Y-49365000D01*
X52331399Y-49466261D01*
X51851859Y-49664893D01*
X51420285Y-49953262D01*
X51053262Y-50320285D01*
X50764893Y-50751859D01*
X50566261Y-51231399D01*
X50465000Y-51740475D01*
X49535000Y-51740475D01*
X49433739Y-51231399D01*
X49235107Y-50751859D01*
X48946738Y-50320285D01*
X48579715Y-49953262D01*
X48148141Y-49664893D01*
X47668601Y-49466261D01*
X47159525Y-49365000D01*
X46640475Y-49365000D01*
X46131399Y-49466261D01*
X45651859Y-49664893D01*
X45220285Y-49953262D01*
X44853262Y-50320285D01*
X44564893Y-50751859D01*
X44366261Y-51231399D01*
X44265000Y-51740475D01*
X40735000Y-51740475D01*
X40633739Y-51231399D01*
X40435107Y-50751859D01*
X40146738Y-50320285D01*
X39779715Y-49953262D01*
X39348141Y-49664893D01*
X38868601Y-49466261D01*
X38359525Y-49365000D01*
X37840475Y-49365000D01*
X37331399Y-49466261D01*
X36851859Y-49664893D01*
X36420285Y-49953262D01*
X36053262Y-50320285D01*
X35764893Y-50751859D01*
X35660000Y-51005093D01*
X35660000Y-45660000D01*
X64340000Y-45660000D01*
X64340000Y-51005093D01*
G37*
X64340000Y-51005093D02*
X64235107Y-50751859D01*
X63946738Y-50320285D01*
X63579715Y-49953262D01*
X63148141Y-49664893D01*
X62668601Y-49466261D01*
X62159525Y-49365000D01*
X61640475Y-49365000D01*
X61131399Y-49466261D01*
X60651859Y-49664893D01*
X60220285Y-49953262D01*
X59853262Y-50320285D01*
X59564893Y-50751859D01*
X59366261Y-51231399D01*
X59265000Y-51740475D01*
X59265000Y-52259525D01*
X59366261Y-52768601D01*
X59564893Y-53248141D01*
X59853262Y-53679715D01*
X60220285Y-54046738D01*
X60651859Y-54335107D01*
X61131399Y-54533739D01*
X61640475Y-54635000D01*
X62159525Y-54635000D01*
X62668601Y-54533739D01*
X63148141Y-54335107D01*
X63579715Y-54046738D01*
X63946738Y-53679715D01*
X64235107Y-53248141D01*
X64340000Y-52994907D01*
X64340000Y-72005093D01*
X64235107Y-71751859D01*
X63946738Y-71320285D01*
X63579715Y-70953262D01*
X63148141Y-70664893D01*
X62668601Y-70466261D01*
X62159525Y-70365000D01*
X61640475Y-70365000D01*
X61131399Y-70466261D01*
X60651859Y-70664893D01*
X60220285Y-70953262D01*
X59853262Y-71320285D01*
X59564893Y-71751859D01*
X59366261Y-72231399D01*
X59265000Y-72740475D01*
X59265000Y-73259525D01*
X59366261Y-73768601D01*
X59564893Y-74248141D01*
X59853262Y-74679715D01*
X60220285Y-75046738D01*
X60651859Y-75335107D01*
X61131399Y-75533739D01*
X61640475Y-75635000D01*
X62159525Y-75635000D01*
X62668601Y-75533739D01*
X63148141Y-75335107D01*
X63579715Y-75046738D01*
X63946738Y-74679715D01*
X64235107Y-74248141D01*
X64340000Y-73994907D01*
X64340001Y-100765199D01*
X64063804Y-100489002D01*
X64040001Y-100459999D01*
X63924276Y-100365026D01*
X63792247Y-100294454D01*
X63648986Y-100250997D01*
X63537333Y-100240000D01*
X63537322Y-100240000D01*
X63500000Y-100236324D01*
X63462678Y-100240000D01*
X63223711Y-100240000D01*
X63303937Y-100159774D01*
X63417205Y-99990256D01*
X63495226Y-99801898D01*
X63535000Y-99601939D01*
X63535000Y-99398061D01*
X63495226Y-99198102D01*
X63417205Y-99009744D01*
X63303937Y-98840226D01*
X63159774Y-98696063D01*
X62990256Y-98582795D01*
X62801898Y-98504774D01*
X62601939Y-98465000D01*
X62450474Y-98465000D01*
X62514850Y-98445472D01*
X62668386Y-98363405D01*
X62802962Y-98252962D01*
X62913405Y-98118386D01*
X62995472Y-97964850D01*
X63046008Y-97798254D01*
X63063072Y-97625000D01*
X63063072Y-96375000D01*
X63046008Y-96201746D01*
X62995472Y-96035150D01*
X62913405Y-95881614D01*
X62802962Y-95747038D01*
X62685000Y-95650230D01*
X62685000Y-94025817D01*
X62732312Y-93978505D01*
X62900299Y-93727095D01*
X63016011Y-93447743D01*
X63075000Y-93151184D01*
X63075000Y-92848816D01*
X63016011Y-92552257D01*
X62900299Y-92272905D01*
X62732312Y-92021495D01*
X62518505Y-91807688D01*
X62267095Y-91639701D01*
X61987743Y-91523989D01*
X61691184Y-91465000D01*
X61407803Y-91465000D01*
X61956004Y-90916800D01*
X61985001Y-90893003D01*
X62079974Y-90777278D01*
X62150546Y-90645249D01*
X62194003Y-90501988D01*
X62205000Y-90390335D01*
X62205000Y-90390325D01*
X62208676Y-90353002D01*
X62205000Y-90315679D01*
X62205000Y-89792976D01*
X62250258Y-89737829D01*
X62323084Y-89601582D01*
X62367929Y-89453745D01*
X62383072Y-89300000D01*
X62383072Y-87650000D01*
X62367929Y-87496255D01*
X62323084Y-87348418D01*
X62250258Y-87212171D01*
X62152251Y-87092749D01*
X62032829Y-86994742D01*
X61896582Y-86921916D01*
X61748745Y-86877071D01*
X61595000Y-86861928D01*
X61295000Y-86861928D01*
X61141255Y-86877071D01*
X60993418Y-86921916D01*
X60857171Y-86994742D01*
X60810000Y-87033454D01*
X60762829Y-86994742D01*
X60626582Y-86921916D01*
X60478745Y-86877071D01*
X60325000Y-86861928D01*
X60025000Y-86861928D01*
X59871255Y-86877071D01*
X59723418Y-86921916D01*
X59587171Y-86994742D01*
X59540000Y-87033454D01*
X59492829Y-86994742D01*
X59356582Y-86921916D01*
X59208745Y-86877071D01*
X59055000Y-86861928D01*
X59020010Y-86861928D01*
X59020010Y-85135000D01*
X59032002Y-85135000D01*
X59032002Y-84976252D01*
X59190750Y-85135000D01*
X59205000Y-85138072D01*
X59329482Y-85125812D01*
X59449180Y-85089502D01*
X59540000Y-85040957D01*
X59630820Y-85089502D01*
X59750518Y-85125812D01*
X59875000Y-85138072D01*
X59889250Y-85135000D01*
X60048000Y-84976250D01*
X60048000Y-83652000D01*
X60302000Y-83652000D01*
X60302000Y-84976250D01*
X60460750Y-85135000D01*
X60475000Y-85138072D01*
X60599482Y-85125812D01*
X60719180Y-85089502D01*
X60810000Y-85040957D01*
X60900820Y-85089502D01*
X61020518Y-85125812D01*
X61145000Y-85138072D01*
X61159250Y-85135000D01*
X61318000Y-84976250D01*
X61318000Y-83652000D01*
X61572000Y-83652000D01*
X61572000Y-84976250D01*
X61730750Y-85135000D01*
X61745000Y-85138072D01*
X61869482Y-85125812D01*
X61989180Y-85089502D01*
X62099494Y-85030537D01*
X62196185Y-84951185D01*
X62275537Y-84854494D01*
X62334502Y-84744180D01*
X62370812Y-84624482D01*
X62383072Y-84500000D01*
X62380000Y-83810750D01*
X62221250Y-83652000D01*
X61572000Y-83652000D01*
X61318000Y-83652000D01*
X60302000Y-83652000D01*
X60048000Y-83652000D01*
X59032000Y-83652000D01*
X59032000Y-83672000D01*
X59020010Y-83672000D01*
X59020010Y-83378000D01*
X59032000Y-83378000D01*
X59032000Y-83398000D01*
X60048000Y-83398000D01*
X60048000Y-82073750D01*
X60302000Y-82073750D01*
X60302000Y-83398000D01*
X61318000Y-83398000D01*
X61318000Y-82073750D01*
X61572000Y-82073750D01*
X61572000Y-83398000D01*
X62221250Y-83398000D01*
X62380000Y-83239250D01*
X62383072Y-82550000D01*
X62370812Y-82425518D01*
X62334502Y-82305820D01*
X62275537Y-82195506D01*
X62196185Y-82098815D01*
X62099494Y-82019463D01*
X61989180Y-81960498D01*
X61869482Y-81924188D01*
X61745000Y-81911928D01*
X61730750Y-81915000D01*
X61572000Y-82073750D01*
X61318000Y-82073750D01*
X61159250Y-81915000D01*
X61145000Y-81911928D01*
X61020518Y-81924188D01*
X60900820Y-81960498D01*
X60810000Y-82009043D01*
X60719180Y-81960498D01*
X60599482Y-81924188D01*
X60475000Y-81911928D01*
X60460750Y-81915000D01*
X60302000Y-82073750D01*
X60048000Y-82073750D01*
X59889250Y-81915000D01*
X59875000Y-81911928D01*
X59750518Y-81924188D01*
X59630820Y-81960498D01*
X59540000Y-82009043D01*
X59449180Y-81960498D01*
X59329482Y-81924188D01*
X59205000Y-81911928D01*
X59190750Y-81915000D01*
X59032002Y-82073748D01*
X59032002Y-81915000D01*
X59020010Y-81915000D01*
X59020010Y-81190827D01*
X59021495Y-81192312D01*
X59272905Y-81360299D01*
X59552257Y-81476011D01*
X59848816Y-81535000D01*
X60151184Y-81535000D01*
X60447743Y-81476011D01*
X60727095Y-81360299D01*
X60978505Y-81192312D01*
X61192312Y-80978505D01*
X61360299Y-80727095D01*
X61476011Y-80447743D01*
X61535000Y-80151184D01*
X61535000Y-79848816D01*
X61476011Y-79552257D01*
X61360299Y-79272905D01*
X61192312Y-79021495D01*
X60978505Y-78807688D01*
X60727095Y-78639701D01*
X60447743Y-78523989D01*
X60151184Y-78465000D01*
X59848816Y-78465000D01*
X59552257Y-78523989D01*
X59272905Y-78639701D01*
X59021495Y-78807688D01*
X58807688Y-79021495D01*
X58750000Y-79107831D01*
X58692312Y-79021495D01*
X58478505Y-78807688D01*
X58227095Y-78639701D01*
X57947743Y-78523989D01*
X57651184Y-78465000D01*
X57348816Y-78465000D01*
X57052257Y-78523989D01*
X57034999Y-78531138D01*
X57034999Y-60539802D01*
X57091070Y-60483731D01*
X57348816Y-60535000D01*
X57651184Y-60535000D01*
X57947743Y-60476011D01*
X58227095Y-60360299D01*
X58478505Y-60192312D01*
X58692312Y-59978505D01*
X58750000Y-59892169D01*
X58807688Y-59978505D01*
X59021495Y-60192312D01*
X59272905Y-60360299D01*
X59552257Y-60476011D01*
X59848816Y-60535000D01*
X60151184Y-60535000D01*
X60447743Y-60476011D01*
X60727095Y-60360299D01*
X60978505Y-60192312D01*
X61192312Y-59978505D01*
X61360299Y-59727095D01*
X61476011Y-59447743D01*
X61535000Y-59151184D01*
X61535000Y-58848816D01*
X61476011Y-58552257D01*
X61360299Y-58272905D01*
X61192312Y-58021495D01*
X60978505Y-57807688D01*
X60727095Y-57639701D01*
X60447743Y-57523989D01*
X60151184Y-57465000D01*
X59848816Y-57465000D01*
X59552257Y-57523989D01*
X59272905Y-57639701D01*
X59021495Y-57807688D01*
X58807688Y-58021495D01*
X58750000Y-58107831D01*
X58692312Y-58021495D01*
X58478505Y-57807688D01*
X58227095Y-57639701D01*
X57947743Y-57523989D01*
X57651184Y-57465000D01*
X57348816Y-57465000D01*
X57052257Y-57523989D01*
X56772905Y-57639701D01*
X56521495Y-57807688D01*
X56307688Y-58021495D01*
X56212262Y-58164310D01*
X56064080Y-58115525D01*
X55179605Y-59000000D01*
X55193748Y-59014143D01*
X55014143Y-59193748D01*
X55000000Y-59179605D01*
X54115525Y-60064080D01*
X54199208Y-60318261D01*
X54471775Y-60449158D01*
X54764642Y-60524365D01*
X55066553Y-60540991D01*
X55365907Y-60498397D01*
X55514999Y-60446046D01*
X55515000Y-71944737D01*
X55435107Y-71751859D01*
X55146738Y-71320285D01*
X54779715Y-70953262D01*
X54348141Y-70664893D01*
X53868601Y-70466261D01*
X53359525Y-70365000D01*
X52840475Y-70365000D01*
X52331399Y-70466261D01*
X51851859Y-70664893D01*
X51420285Y-70953262D01*
X51053262Y-71320285D01*
X50764893Y-71751859D01*
X50566261Y-72231399D01*
X50465000Y-72740475D01*
X50465000Y-73259525D01*
X50566261Y-73768601D01*
X50764893Y-74248141D01*
X51053262Y-74679715D01*
X51420285Y-75046738D01*
X51851859Y-75335107D01*
X52331399Y-75533739D01*
X52840475Y-75635000D01*
X53359525Y-75635000D01*
X53868601Y-75533739D01*
X54348141Y-75335107D01*
X54779715Y-75046738D01*
X55146738Y-74679715D01*
X55435107Y-74248141D01*
X55515000Y-74055263D01*
X55515000Y-78547446D01*
X55235358Y-78475635D01*
X54933447Y-78459009D01*
X54634093Y-78501603D01*
X54348801Y-78601778D01*
X54199208Y-78681739D01*
X54115525Y-78935920D01*
X55000000Y-79820395D01*
X55014143Y-79806253D01*
X55193748Y-79985858D01*
X55179605Y-80000000D01*
X55193748Y-80014143D01*
X55014143Y-80193748D01*
X55000000Y-80179605D01*
X54115525Y-81064080D01*
X54199208Y-81318261D01*
X54348327Y-81389874D01*
X53958993Y-81779208D01*
X53929989Y-81803011D01*
X53883240Y-81859975D01*
X53840603Y-81911928D01*
X53675000Y-81911928D01*
X53521255Y-81927071D01*
X53373418Y-81971916D01*
X53237171Y-82044742D01*
X53190000Y-82083454D01*
X53142829Y-82044742D01*
X53006582Y-81971916D01*
X52858745Y-81927071D01*
X52705000Y-81911928D01*
X52405000Y-81911928D01*
X52251255Y-81927071D01*
X52103418Y-81971916D01*
X51967171Y-82044742D01*
X51847749Y-82142749D01*
X51749742Y-82262171D01*
X51676916Y-82398418D01*
X51632071Y-82546255D01*
X51616928Y-82700000D01*
X51616928Y-82970938D01*
X49359993Y-80714004D01*
X49336190Y-80685000D01*
X49220465Y-80590027D01*
X49088436Y-80519455D01*
X48945175Y-80475998D01*
X48833522Y-80465001D01*
X48833511Y-80465001D01*
X48796189Y-80461325D01*
X48758867Y-80465001D01*
X46468862Y-80465001D01*
X46476011Y-80447743D01*
X46535000Y-80151184D01*
X46535000Y-80066553D01*
X53459009Y-80066553D01*
X53501603Y-80365907D01*
X53601778Y-80651199D01*
X53681739Y-80800792D01*
X53935920Y-80884475D01*
X54820395Y-80000000D01*
X53935920Y-79115525D01*
X53681739Y-79199208D01*
X53550842Y-79471775D01*
X53475635Y-79764642D01*
X53459009Y-80066553D01*
X46535000Y-80066553D01*
X46535000Y-79848816D01*
X46476011Y-79552257D01*
X46360299Y-79272905D01*
X46192312Y-79021495D01*
X45978505Y-78807688D01*
X45727095Y-78639701D01*
X45447743Y-78523989D01*
X45151184Y-78465000D01*
X44848816Y-78465000D01*
X44552257Y-78523989D01*
X44272905Y-78639701D01*
X44021495Y-78807688D01*
X43807688Y-79021495D01*
X43750000Y-79107831D01*
X43692312Y-79021495D01*
X43478505Y-78807688D01*
X43227095Y-78639701D01*
X42947743Y-78523989D01*
X42651184Y-78465000D01*
X42348816Y-78465000D01*
X42052257Y-78523989D01*
X41772905Y-78639701D01*
X41521495Y-78807688D01*
X41307688Y-79021495D01*
X41212262Y-79164310D01*
X41064080Y-79115525D01*
X40179605Y-80000000D01*
X41064080Y-80884475D01*
X41212262Y-80835690D01*
X41307688Y-80978505D01*
X41521495Y-81192312D01*
X41549723Y-81211173D01*
X41545009Y-81210709D01*
X41501543Y-81214990D01*
X41501533Y-81214990D01*
X41371520Y-81227795D01*
X41204697Y-81278401D01*
X41050951Y-81360579D01*
X40916193Y-81471173D01*
X40888476Y-81504946D01*
X40499952Y-81893470D01*
X40466184Y-81921183D01*
X40438471Y-81954951D01*
X40438468Y-81954954D01*
X40379431Y-82026890D01*
X40276582Y-81971916D01*
X40128745Y-81927071D01*
X39975000Y-81911928D01*
X39675000Y-81911928D01*
X39521255Y-81927071D01*
X39373418Y-81971916D01*
X39237171Y-82044742D01*
X39190000Y-82083454D01*
X39142829Y-82044742D01*
X39006582Y-81971916D01*
X38858745Y-81927071D01*
X38705000Y-81911928D01*
X38405000Y-81911928D01*
X38251255Y-81927071D01*
X38103418Y-81971916D01*
X37967171Y-82044742D01*
X37847749Y-82142749D01*
X37749742Y-82262171D01*
X37676916Y-82398418D01*
X37632071Y-82546255D01*
X37616928Y-82700000D01*
X37616928Y-83211493D01*
X35660000Y-85168422D01*
X35660000Y-81064080D01*
X39115525Y-81064080D01*
X39199208Y-81318261D01*
X39471775Y-81449158D01*
X39764642Y-81524365D01*
X40066553Y-81540991D01*
X40365907Y-81498397D01*
X40651199Y-81398222D01*
X40800792Y-81318261D01*
X40884475Y-81064080D01*
X40000000Y-80179605D01*
X39115525Y-81064080D01*
X35660000Y-81064080D01*
X35660000Y-80066553D01*
X38459009Y-80066553D01*
X38501603Y-80365907D01*
X38601778Y-80651199D01*
X38681739Y-80800792D01*
X38935920Y-80884475D01*
X39820395Y-80000000D01*
X38935920Y-79115525D01*
X38681739Y-79199208D01*
X38550842Y-79471775D01*
X38475635Y-79764642D01*
X38459009Y-80066553D01*
X35660000Y-80066553D01*
X35660000Y-78935920D01*
X39115525Y-78935920D01*
X40000000Y-79820395D01*
X40884475Y-78935920D01*
X40800792Y-78681739D01*
X40528225Y-78550842D01*
X40235358Y-78475635D01*
X39933447Y-78459009D01*
X39634093Y-78501603D01*
X39348801Y-78601778D01*
X39199208Y-78681739D01*
X39115525Y-78935920D01*
X35660000Y-78935920D01*
X35660000Y-73994907D01*
X35764893Y-74248141D01*
X36053262Y-74679715D01*
X36420285Y-75046738D01*
X36851859Y-75335107D01*
X37331399Y-75533739D01*
X37840475Y-75635000D01*
X38359525Y-75635000D01*
X38868601Y-75533739D01*
X39348141Y-75335107D01*
X39779715Y-75046738D01*
X40146738Y-74679715D01*
X40435107Y-74248141D01*
X40633739Y-73768601D01*
X40735000Y-73259525D01*
X40735000Y-72740475D01*
X44265000Y-72740475D01*
X44265000Y-73259525D01*
X44366261Y-73768601D01*
X44564893Y-74248141D01*
X44853262Y-74679715D01*
X45220285Y-75046738D01*
X45651859Y-75335107D01*
X46131399Y-75533739D01*
X46640475Y-75635000D01*
X47159525Y-75635000D01*
X47668601Y-75533739D01*
X48148141Y-75335107D01*
X48579715Y-75046738D01*
X48946738Y-74679715D01*
X49235107Y-74248141D01*
X49433739Y-73768601D01*
X49535000Y-73259525D01*
X49535000Y-72740475D01*
X49433739Y-72231399D01*
X49235107Y-71751859D01*
X48946738Y-71320285D01*
X48579715Y-70953262D01*
X48148141Y-70664893D01*
X47668601Y-70466261D01*
X47159525Y-70365000D01*
X46640475Y-70365000D01*
X46131399Y-70466261D01*
X45651859Y-70664893D01*
X45220285Y-70953262D01*
X44853262Y-71320285D01*
X44564893Y-71751859D01*
X44366261Y-72231399D01*
X44265000Y-72740475D01*
X40735000Y-72740475D01*
X40633739Y-72231399D01*
X40435107Y-71751859D01*
X40146738Y-71320285D01*
X39779715Y-70953262D01*
X39348141Y-70664893D01*
X38868601Y-70466261D01*
X38359525Y-70365000D01*
X37840475Y-70365000D01*
X37331399Y-70466261D01*
X36851859Y-70664893D01*
X36420285Y-70953262D01*
X36053262Y-71320285D01*
X35764893Y-71751859D01*
X35660000Y-72005093D01*
X35660000Y-62779872D01*
X47765000Y-62779872D01*
X47765000Y-63220128D01*
X47850890Y-63651925D01*
X48019369Y-64058669D01*
X48263962Y-64424729D01*
X48575271Y-64736038D01*
X48941331Y-64980631D01*
X49348075Y-65149110D01*
X49779872Y-65235000D01*
X50220128Y-65235000D01*
X50651925Y-65149110D01*
X51058669Y-64980631D01*
X51424729Y-64736038D01*
X51736038Y-64424729D01*
X51980631Y-64058669D01*
X52149110Y-63651925D01*
X52235000Y-63220128D01*
X52235000Y-62779872D01*
X52149110Y-62348075D01*
X51980631Y-61941331D01*
X51736038Y-61575271D01*
X51424729Y-61263962D01*
X51058669Y-61019369D01*
X50651925Y-60850890D01*
X50220128Y-60765000D01*
X49779872Y-60765000D01*
X49348075Y-60850890D01*
X48941331Y-61019369D01*
X48575271Y-61263962D01*
X48263962Y-61575271D01*
X48019369Y-61941331D01*
X47850890Y-62348075D01*
X47765000Y-62779872D01*
X35660000Y-62779872D01*
X35660000Y-60064080D01*
X39115525Y-60064080D01*
X39199208Y-60318261D01*
X39471775Y-60449158D01*
X39764642Y-60524365D01*
X40066553Y-60540991D01*
X40365907Y-60498397D01*
X40651199Y-60398222D01*
X40800792Y-60318261D01*
X40884475Y-60064080D01*
X40000000Y-59179605D01*
X39115525Y-60064080D01*
X35660000Y-60064080D01*
X35660000Y-59066553D01*
X38459009Y-59066553D01*
X38501603Y-59365907D01*
X38601778Y-59651199D01*
X38681739Y-59800792D01*
X38935920Y-59884475D01*
X39820395Y-59000000D01*
X40179605Y-59000000D01*
X41064080Y-59884475D01*
X41212262Y-59835690D01*
X41307688Y-59978505D01*
X41521495Y-60192312D01*
X41772905Y-60360299D01*
X42052257Y-60476011D01*
X42348816Y-60535000D01*
X42651184Y-60535000D01*
X42947743Y-60476011D01*
X43227095Y-60360299D01*
X43478505Y-60192312D01*
X43692312Y-59978505D01*
X43750000Y-59892169D01*
X43807688Y-59978505D01*
X44021495Y-60192312D01*
X44272905Y-60360299D01*
X44552257Y-60476011D01*
X44848816Y-60535000D01*
X45151184Y-60535000D01*
X45447743Y-60476011D01*
X45727095Y-60360299D01*
X45978505Y-60192312D01*
X46192312Y-59978505D01*
X46360299Y-59727095D01*
X46476011Y-59447743D01*
X46535000Y-59151184D01*
X46535000Y-59066553D01*
X53459009Y-59066553D01*
X53501603Y-59365907D01*
X53601778Y-59651199D01*
X53681739Y-59800792D01*
X53935920Y-59884475D01*
X54820395Y-59000000D01*
X53935920Y-58115525D01*
X53681739Y-58199208D01*
X53550842Y-58471775D01*
X53475635Y-58764642D01*
X53459009Y-59066553D01*
X46535000Y-59066553D01*
X46535000Y-58848816D01*
X46476011Y-58552257D01*
X46360299Y-58272905D01*
X46192312Y-58021495D01*
X46106737Y-57935920D01*
X54115525Y-57935920D01*
X55000000Y-58820395D01*
X55884475Y-57935920D01*
X55800792Y-57681739D01*
X55528225Y-57550842D01*
X55235358Y-57475635D01*
X54933447Y-57459009D01*
X54634093Y-57501603D01*
X54348801Y-57601778D01*
X54199208Y-57681739D01*
X54115525Y-57935920D01*
X46106737Y-57935920D01*
X45978505Y-57807688D01*
X45727095Y-57639701D01*
X45447743Y-57523989D01*
X45151184Y-57465000D01*
X44848816Y-57465000D01*
X44552257Y-57523989D01*
X44272905Y-57639701D01*
X44021495Y-57807688D01*
X43807688Y-58021495D01*
X43750000Y-58107831D01*
X43692312Y-58021495D01*
X43478505Y-57807688D01*
X43227095Y-57639701D01*
X42947743Y-57523989D01*
X42651184Y-57465000D01*
X42348816Y-57465000D01*
X42052257Y-57523989D01*
X41772905Y-57639701D01*
X41521495Y-57807688D01*
X41307688Y-58021495D01*
X41212262Y-58164310D01*
X41064080Y-58115525D01*
X40179605Y-59000000D01*
X39820395Y-59000000D01*
X38935920Y-58115525D01*
X38681739Y-58199208D01*
X38550842Y-58471775D01*
X38475635Y-58764642D01*
X38459009Y-59066553D01*
X35660000Y-59066553D01*
X35660000Y-57935920D01*
X39115525Y-57935920D01*
X40000000Y-58820395D01*
X40884475Y-57935920D01*
X40800792Y-57681739D01*
X40528225Y-57550842D01*
X40235358Y-57475635D01*
X39933447Y-57459009D01*
X39634093Y-57501603D01*
X39348801Y-57601778D01*
X39199208Y-57681739D01*
X39115525Y-57935920D01*
X35660000Y-57935920D01*
X35660000Y-52994907D01*
X35764893Y-53248141D01*
X36053262Y-53679715D01*
X36420285Y-54046738D01*
X36851859Y-54335107D01*
X37331399Y-54533739D01*
X37840475Y-54635000D01*
X38359525Y-54635000D01*
X38868601Y-54533739D01*
X39348141Y-54335107D01*
X39779715Y-54046738D01*
X40146738Y-53679715D01*
X40435107Y-53248141D01*
X40633739Y-52768601D01*
X40735000Y-52259525D01*
X40735000Y-51740475D01*
X44265000Y-51740475D01*
X44265000Y-52259525D01*
X44366261Y-52768601D01*
X44564893Y-53248141D01*
X44853262Y-53679715D01*
X45220285Y-54046738D01*
X45651859Y-54335107D01*
X46131399Y-54533739D01*
X46640475Y-54635000D01*
X47159525Y-54635000D01*
X47668601Y-54533739D01*
X48148141Y-54335107D01*
X48579715Y-54046738D01*
X48946738Y-53679715D01*
X49235107Y-53248141D01*
X49433739Y-52768601D01*
X49535000Y-52259525D01*
X49535000Y-51740475D01*
X50465000Y-51740475D01*
X50465000Y-52259525D01*
X50566261Y-52768601D01*
X50764893Y-53248141D01*
X51053262Y-53679715D01*
X51420285Y-54046738D01*
X51851859Y-54335107D01*
X52331399Y-54533739D01*
X52840475Y-54635000D01*
X53359525Y-54635000D01*
X53868601Y-54533739D01*
X54348141Y-54335107D01*
X54779715Y-54046738D01*
X55146738Y-53679715D01*
X55435107Y-53248141D01*
X55633739Y-52768601D01*
X55735000Y-52259525D01*
X55735000Y-51740475D01*
X55633739Y-51231399D01*
X55435107Y-50751859D01*
X55146738Y-50320285D01*
X54779715Y-49953262D01*
X54348141Y-49664893D01*
X53868601Y-49466261D01*
X53359525Y-49365000D01*
X52840475Y-49365000D01*
X52331399Y-49466261D01*
X51851859Y-49664893D01*
X51420285Y-49953262D01*
X51053262Y-50320285D01*
X50764893Y-50751859D01*
X50566261Y-51231399D01*
X50465000Y-51740475D01*
X49535000Y-51740475D01*
X49433739Y-51231399D01*
X49235107Y-50751859D01*
X48946738Y-50320285D01*
X48579715Y-49953262D01*
X48148141Y-49664893D01*
X47668601Y-49466261D01*
X47159525Y-49365000D01*
X46640475Y-49365000D01*
X46131399Y-49466261D01*
X45651859Y-49664893D01*
X45220285Y-49953262D01*
X44853262Y-50320285D01*
X44564893Y-50751859D01*
X44366261Y-51231399D01*
X44265000Y-51740475D01*
X40735000Y-51740475D01*
X40633739Y-51231399D01*
X40435107Y-50751859D01*
X40146738Y-50320285D01*
X39779715Y-49953262D01*
X39348141Y-49664893D01*
X38868601Y-49466261D01*
X38359525Y-49365000D01*
X37840475Y-49365000D01*
X37331399Y-49466261D01*
X36851859Y-49664893D01*
X36420285Y-49953262D01*
X36053262Y-50320285D01*
X35764893Y-50751859D01*
X35660000Y-51005093D01*
X35660000Y-45660000D01*
X64340000Y-45660000D01*
X64340000Y-51005093D01*
G36*
X51653915Y-90639421D02*
G01*
X51807661Y-90721599D01*
X51974484Y-90772205D01*
X52104497Y-90785010D01*
X52112999Y-90785010D01*
X52156465Y-90789291D01*
X52199931Y-90785010D01*
X53071434Y-90785010D01*
X53892963Y-91606540D01*
X53812905Y-91639701D01*
X53561495Y-91807688D01*
X53495056Y-91874127D01*
X53489502Y-91855820D01*
X53430537Y-91745506D01*
X53351185Y-91648815D01*
X53254494Y-91569463D01*
X53144180Y-91510498D01*
X53024482Y-91474188D01*
X52900000Y-91461928D01*
X52285750Y-91465000D01*
X52127000Y-91623750D01*
X52127000Y-92873000D01*
X52147000Y-92873000D01*
X52147000Y-93127000D01*
X52127000Y-93127000D01*
X52127000Y-94376250D01*
X52285750Y-94535000D01*
X52900000Y-94538072D01*
X53024482Y-94525812D01*
X53144180Y-94489502D01*
X53254494Y-94430537D01*
X53351185Y-94351185D01*
X53430537Y-94254494D01*
X53489502Y-94144180D01*
X53495056Y-94125873D01*
X53561495Y-94192312D01*
X53812905Y-94360299D01*
X53915001Y-94402589D01*
X53915000Y-95650229D01*
X53797038Y-95747038D01*
X53686595Y-95881614D01*
X53604528Y-96035150D01*
X53553992Y-96201746D01*
X53536928Y-96375000D01*
X53536928Y-97625000D01*
X53553992Y-97798254D01*
X53604528Y-97964850D01*
X53686595Y-98118386D01*
X53797038Y-98252962D01*
X53931614Y-98363405D01*
X54085150Y-98445472D01*
X54247954Y-98494858D01*
X54198102Y-98504774D01*
X54009744Y-98582795D01*
X53840226Y-98696063D01*
X53696063Y-98840226D01*
X53582795Y-99009744D01*
X53504774Y-99198102D01*
X53497298Y-99235686D01*
X52708891Y-98447280D01*
X52714850Y-98445472D01*
X52868386Y-98363405D01*
X53002962Y-98252962D01*
X53113405Y-98118386D01*
X53195472Y-97964850D01*
X53246008Y-97798254D01*
X53263072Y-97625000D01*
X53263072Y-96375000D01*
X53246008Y-96201746D01*
X53195472Y-96035150D01*
X53113405Y-95881614D01*
X53002962Y-95747038D01*
X52868386Y-95636595D01*
X52714850Y-95554528D01*
X52548254Y-95503992D01*
X52375000Y-95486928D01*
X51738506Y-95486928D01*
X51534999Y-95283421D01*
X51534999Y-94535896D01*
X51714250Y-94535000D01*
X51873000Y-94376250D01*
X51873000Y-93127000D01*
X51853000Y-93127000D01*
X51853000Y-92873000D01*
X51873000Y-92873000D01*
X51873000Y-91623750D01*
X51714250Y-91465000D01*
X51534999Y-91464104D01*
X51534999Y-90541828D01*
X51653915Y-90639421D01*
G37*
X51653915Y-90639421D02*
X51807661Y-90721599D01*
X51974484Y-90772205D01*
X52104497Y-90785010D01*
X52112999Y-90785010D01*
X52156465Y-90789291D01*
X52199931Y-90785010D01*
X53071434Y-90785010D01*
X53892963Y-91606540D01*
X53812905Y-91639701D01*
X53561495Y-91807688D01*
X53495056Y-91874127D01*
X53489502Y-91855820D01*
X53430537Y-91745506D01*
X53351185Y-91648815D01*
X53254494Y-91569463D01*
X53144180Y-91510498D01*
X53024482Y-91474188D01*
X52900000Y-91461928D01*
X52285750Y-91465000D01*
X52127000Y-91623750D01*
X52127000Y-92873000D01*
X52147000Y-92873000D01*
X52147000Y-93127000D01*
X52127000Y-93127000D01*
X52127000Y-94376250D01*
X52285750Y-94535000D01*
X52900000Y-94538072D01*
X53024482Y-94525812D01*
X53144180Y-94489502D01*
X53254494Y-94430537D01*
X53351185Y-94351185D01*
X53430537Y-94254494D01*
X53489502Y-94144180D01*
X53495056Y-94125873D01*
X53561495Y-94192312D01*
X53812905Y-94360299D01*
X53915001Y-94402589D01*
X53915000Y-95650229D01*
X53797038Y-95747038D01*
X53686595Y-95881614D01*
X53604528Y-96035150D01*
X53553992Y-96201746D01*
X53536928Y-96375000D01*
X53536928Y-97625000D01*
X53553992Y-97798254D01*
X53604528Y-97964850D01*
X53686595Y-98118386D01*
X53797038Y-98252962D01*
X53931614Y-98363405D01*
X54085150Y-98445472D01*
X54247954Y-98494858D01*
X54198102Y-98504774D01*
X54009744Y-98582795D01*
X53840226Y-98696063D01*
X53696063Y-98840226D01*
X53582795Y-99009744D01*
X53504774Y-99198102D01*
X53497298Y-99235686D01*
X52708891Y-98447280D01*
X52714850Y-98445472D01*
X52868386Y-98363405D01*
X53002962Y-98252962D01*
X53113405Y-98118386D01*
X53195472Y-97964850D01*
X53246008Y-97798254D01*
X53263072Y-97625000D01*
X53263072Y-96375000D01*
X53246008Y-96201746D01*
X53195472Y-96035150D01*
X53113405Y-95881614D01*
X53002962Y-95747038D01*
X52868386Y-95636595D01*
X52714850Y-95554528D01*
X52548254Y-95503992D01*
X52375000Y-95486928D01*
X51738506Y-95486928D01*
X51534999Y-95283421D01*
X51534999Y-94535896D01*
X51714250Y-94535000D01*
X51873000Y-94376250D01*
X51873000Y-93127000D01*
X51853000Y-93127000D01*
X51853000Y-92873000D01*
X51873000Y-92873000D01*
X51873000Y-91623750D01*
X51714250Y-91465000D01*
X51534999Y-91464104D01*
X51534999Y-90541828D01*
X51653915Y-90639421D01*
G36*
X59127000Y-92873000D02*
G01*
X59147000Y-92873000D01*
X59147000Y-93127000D01*
X59127000Y-93127000D01*
X59127000Y-94376250D01*
X59285750Y-94535000D01*
X59900000Y-94538072D01*
X60024482Y-94525812D01*
X60144180Y-94489502D01*
X60254494Y-94430537D01*
X60351185Y-94351185D01*
X60430537Y-94254494D01*
X60489502Y-94144180D01*
X60495056Y-94125873D01*
X60561495Y-94192312D01*
X60812905Y-94360299D01*
X60915001Y-94402589D01*
X60915000Y-95650229D01*
X60797038Y-95747038D01*
X60686595Y-95881614D01*
X60604528Y-96035150D01*
X60553992Y-96201746D01*
X60536928Y-96375000D01*
X60536928Y-97625000D01*
X60553992Y-97798254D01*
X60604528Y-97964850D01*
X60686595Y-98118386D01*
X60797038Y-98252962D01*
X60931614Y-98363405D01*
X61085150Y-98445472D01*
X61251746Y-98496008D01*
X61425000Y-98513072D01*
X62175000Y-98513072D01*
X62179026Y-98512675D01*
X62009744Y-98582795D01*
X61840226Y-98696063D01*
X61796289Y-98740000D01*
X55203711Y-98740000D01*
X55159774Y-98696063D01*
X54990256Y-98582795D01*
X54821931Y-98513072D01*
X55175000Y-98513072D01*
X55348254Y-98496008D01*
X55514850Y-98445472D01*
X55668386Y-98363405D01*
X55802962Y-98252962D01*
X55913405Y-98118386D01*
X55995472Y-97964850D01*
X56046008Y-97798254D01*
X56063072Y-97625000D01*
X56063072Y-96375000D01*
X56046008Y-96201746D01*
X55995472Y-96035150D01*
X55913405Y-95881614D01*
X55802962Y-95747038D01*
X55685000Y-95650230D01*
X55685000Y-94025817D01*
X55732312Y-93978505D01*
X55900299Y-93727095D01*
X55933460Y-93647037D01*
X56765000Y-94478577D01*
X56764999Y-95606529D01*
X56760718Y-95649999D01*
X56764999Y-95693468D01*
X56764999Y-95693475D01*
X56777804Y-95823488D01*
X56828410Y-95990311D01*
X56910588Y-96144057D01*
X57021182Y-96278816D01*
X57054955Y-96306533D01*
X57736928Y-96988507D01*
X57736928Y-97625000D01*
X57753992Y-97798254D01*
X57804528Y-97964850D01*
X57886595Y-98118386D01*
X57997038Y-98252962D01*
X58131614Y-98363405D01*
X58285150Y-98445472D01*
X58451746Y-98496008D01*
X58625000Y-98513072D01*
X59375000Y-98513072D01*
X59548254Y-98496008D01*
X59714850Y-98445472D01*
X59868386Y-98363405D01*
X60002962Y-98252962D01*
X60113405Y-98118386D01*
X60195472Y-97964850D01*
X60246008Y-97798254D01*
X60263072Y-97625000D01*
X60263072Y-96375000D01*
X60246008Y-96201746D01*
X60195472Y-96035150D01*
X60113405Y-95881614D01*
X60002962Y-95747038D01*
X59868386Y-95636595D01*
X59714850Y-95554528D01*
X59548254Y-95503992D01*
X59375000Y-95486928D01*
X58738506Y-95486928D01*
X58534999Y-95283421D01*
X58534999Y-94535896D01*
X58714250Y-94535000D01*
X58873000Y-94376250D01*
X58873000Y-93127000D01*
X58853000Y-93127000D01*
X58853000Y-92873000D01*
X58873000Y-92873000D01*
X58873000Y-92853000D01*
X59127000Y-92853000D01*
X59127000Y-92873000D01*
G37*
X59127000Y-92873000D02*
X59147000Y-92873000D01*
X59147000Y-93127000D01*
X59127000Y-93127000D01*
X59127000Y-94376250D01*
X59285750Y-94535000D01*
X59900000Y-94538072D01*
X60024482Y-94525812D01*
X60144180Y-94489502D01*
X60254494Y-94430537D01*
X60351185Y-94351185D01*
X60430537Y-94254494D01*
X60489502Y-94144180D01*
X60495056Y-94125873D01*
X60561495Y-94192312D01*
X60812905Y-94360299D01*
X60915001Y-94402589D01*
X60915000Y-95650229D01*
X60797038Y-95747038D01*
X60686595Y-95881614D01*
X60604528Y-96035150D01*
X60553992Y-96201746D01*
X60536928Y-96375000D01*
X60536928Y-97625000D01*
X60553992Y-97798254D01*
X60604528Y-97964850D01*
X60686595Y-98118386D01*
X60797038Y-98252962D01*
X60931614Y-98363405D01*
X61085150Y-98445472D01*
X61251746Y-98496008D01*
X61425000Y-98513072D01*
X62175000Y-98513072D01*
X62179026Y-98512675D01*
X62009744Y-98582795D01*
X61840226Y-98696063D01*
X61796289Y-98740000D01*
X55203711Y-98740000D01*
X55159774Y-98696063D01*
X54990256Y-98582795D01*
X54821931Y-98513072D01*
X55175000Y-98513072D01*
X55348254Y-98496008D01*
X55514850Y-98445472D01*
X55668386Y-98363405D01*
X55802962Y-98252962D01*
X55913405Y-98118386D01*
X55995472Y-97964850D01*
X56046008Y-97798254D01*
X56063072Y-97625000D01*
X56063072Y-96375000D01*
X56046008Y-96201746D01*
X55995472Y-96035150D01*
X55913405Y-95881614D01*
X55802962Y-95747038D01*
X55685000Y-95650230D01*
X55685000Y-94025817D01*
X55732312Y-93978505D01*
X55900299Y-93727095D01*
X55933460Y-93647037D01*
X56765000Y-94478577D01*
X56764999Y-95606529D01*
X56760718Y-95649999D01*
X56764999Y-95693468D01*
X56764999Y-95693475D01*
X56777804Y-95823488D01*
X56828410Y-95990311D01*
X56910588Y-96144057D01*
X57021182Y-96278816D01*
X57054955Y-96306533D01*
X57736928Y-96988507D01*
X57736928Y-97625000D01*
X57753992Y-97798254D01*
X57804528Y-97964850D01*
X57886595Y-98118386D01*
X57997038Y-98252962D01*
X58131614Y-98363405D01*
X58285150Y-98445472D01*
X58451746Y-98496008D01*
X58625000Y-98513072D01*
X59375000Y-98513072D01*
X59548254Y-98496008D01*
X59714850Y-98445472D01*
X59868386Y-98363405D01*
X60002962Y-98252962D01*
X60113405Y-98118386D01*
X60195472Y-97964850D01*
X60246008Y-97798254D01*
X60263072Y-97625000D01*
X60263072Y-96375000D01*
X60246008Y-96201746D01*
X60195472Y-96035150D01*
X60113405Y-95881614D01*
X60002962Y-95747038D01*
X59868386Y-95636595D01*
X59714850Y-95554528D01*
X59548254Y-95503992D01*
X59375000Y-95486928D01*
X58738506Y-95486928D01*
X58534999Y-95283421D01*
X58534999Y-94535896D01*
X58714250Y-94535000D01*
X58873000Y-94376250D01*
X58873000Y-93127000D01*
X58853000Y-93127000D01*
X58853000Y-92873000D01*
X58873000Y-92873000D01*
X58873000Y-92853000D01*
X59127000Y-92853000D01*
X59127000Y-92873000D01*
G36*
X38127000Y-92873000D02*
G01*
X38147000Y-92873000D01*
X38147000Y-93127000D01*
X38127000Y-93127000D01*
X38127000Y-94376250D01*
X38285750Y-94535000D01*
X38900000Y-94538072D01*
X39024482Y-94525812D01*
X39144180Y-94489502D01*
X39254494Y-94430537D01*
X39351185Y-94351185D01*
X39430537Y-94254494D01*
X39489502Y-94144180D01*
X39495056Y-94125873D01*
X39561495Y-94192312D01*
X39812905Y-94360299D01*
X39915001Y-94402589D01*
X39915000Y-95650229D01*
X39797038Y-95747038D01*
X39686595Y-95881614D01*
X39604528Y-96035150D01*
X39553992Y-96201746D01*
X39536928Y-96375000D01*
X39536928Y-97440010D01*
X39263072Y-97440010D01*
X39263072Y-96375000D01*
X39246008Y-96201746D01*
X39195472Y-96035150D01*
X39113405Y-95881614D01*
X39002962Y-95747038D01*
X38868386Y-95636595D01*
X38714850Y-95554528D01*
X38548254Y-95503992D01*
X38375000Y-95486928D01*
X37738506Y-95486928D01*
X37534999Y-95283421D01*
X37534999Y-94535896D01*
X37714250Y-94535000D01*
X37873000Y-94376250D01*
X37873000Y-93127000D01*
X37853000Y-93127000D01*
X37853000Y-92873000D01*
X37873000Y-92873000D01*
X37873000Y-92853000D01*
X38127000Y-92853000D01*
X38127000Y-92873000D01*
G37*
X38127000Y-92873000D02*
X38147000Y-92873000D01*
X38147000Y-93127000D01*
X38127000Y-93127000D01*
X38127000Y-94376250D01*
X38285750Y-94535000D01*
X38900000Y-94538072D01*
X39024482Y-94525812D01*
X39144180Y-94489502D01*
X39254494Y-94430537D01*
X39351185Y-94351185D01*
X39430537Y-94254494D01*
X39489502Y-94144180D01*
X39495056Y-94125873D01*
X39561495Y-94192312D01*
X39812905Y-94360299D01*
X39915001Y-94402589D01*
X39915000Y-95650229D01*
X39797038Y-95747038D01*
X39686595Y-95881614D01*
X39604528Y-96035150D01*
X39553992Y-96201746D01*
X39536928Y-96375000D01*
X39536928Y-97440010D01*
X39263072Y-97440010D01*
X39263072Y-96375000D01*
X39246008Y-96201746D01*
X39195472Y-96035150D01*
X39113405Y-95881614D01*
X39002962Y-95747038D01*
X38868386Y-95636595D01*
X38714850Y-95554528D01*
X38548254Y-95503992D01*
X38375000Y-95486928D01*
X37738506Y-95486928D01*
X37534999Y-95283421D01*
X37534999Y-94535896D01*
X37714250Y-94535000D01*
X37873000Y-94376250D01*
X37873000Y-93127000D01*
X37853000Y-93127000D01*
X37853000Y-92873000D01*
X37873000Y-92873000D01*
X37873000Y-92853000D01*
X38127000Y-92853000D01*
X38127000Y-92873000D01*
G36*
X40193471Y-86245048D02*
G01*
X40221184Y-86278816D01*
X40254952Y-86306529D01*
X40254954Y-86306531D01*
X40326453Y-86365209D01*
X40355942Y-86389410D01*
X40509688Y-86471588D01*
X40676511Y-86522194D01*
X40806524Y-86534999D01*
X40806534Y-86534999D01*
X40850000Y-86539280D01*
X40893466Y-86534999D01*
X45465000Y-86534999D01*
X45465000Y-86601939D01*
X45504774Y-86801898D01*
X45582795Y-86990256D01*
X45586281Y-86995473D01*
X45540000Y-87033454D01*
X45492829Y-86994742D01*
X45356582Y-86921916D01*
X45208745Y-86877071D01*
X45055000Y-86861928D01*
X44755000Y-86861928D01*
X44601255Y-86877071D01*
X44453418Y-86921916D01*
X44317171Y-86994742D01*
X44270000Y-87033454D01*
X44222829Y-86994742D01*
X44086582Y-86921916D01*
X43938745Y-86877071D01*
X43785000Y-86861928D01*
X43485000Y-86861928D01*
X43331255Y-86877071D01*
X43183418Y-86921916D01*
X43049064Y-86993730D01*
X43019494Y-86969463D01*
X42909180Y-86910498D01*
X42789482Y-86874188D01*
X42665000Y-86861928D01*
X42650750Y-86865000D01*
X42492000Y-87023750D01*
X42492000Y-88348000D01*
X42512000Y-88348000D01*
X42512000Y-88602000D01*
X42492000Y-88602000D01*
X42492000Y-88622000D01*
X42238000Y-88622000D01*
X42238000Y-88602000D01*
X42218000Y-88602000D01*
X42218000Y-88348000D01*
X42238000Y-88348000D01*
X42238000Y-87023750D01*
X42079250Y-86865000D01*
X42065000Y-86861928D01*
X41940518Y-86874188D01*
X41820820Y-86910498D01*
X41710506Y-86969463D01*
X41680936Y-86993730D01*
X41546582Y-86921916D01*
X41398745Y-86877071D01*
X41245000Y-86861928D01*
X40945000Y-86861928D01*
X40791255Y-86877071D01*
X40643418Y-86921916D01*
X40507171Y-86994742D01*
X40460000Y-87033454D01*
X40412829Y-86994742D01*
X40276582Y-86921916D01*
X40128745Y-86877071D01*
X39975000Y-86861928D01*
X39970361Y-86861928D01*
X39995226Y-86801898D01*
X40035000Y-86601939D01*
X40035000Y-86398061D01*
X39995226Y-86198102D01*
X39917205Y-86009744D01*
X39834721Y-85886298D01*
X40193471Y-86245048D01*
G37*
X40193471Y-86245048D02*
X40221184Y-86278816D01*
X40254952Y-86306529D01*
X40254954Y-86306531D01*
X40326453Y-86365209D01*
X40355942Y-86389410D01*
X40509688Y-86471588D01*
X40676511Y-86522194D01*
X40806524Y-86534999D01*
X40806534Y-86534999D01*
X40850000Y-86539280D01*
X40893466Y-86534999D01*
X45465000Y-86534999D01*
X45465000Y-86601939D01*
X45504774Y-86801898D01*
X45582795Y-86990256D01*
X45586281Y-86995473D01*
X45540000Y-87033454D01*
X45492829Y-86994742D01*
X45356582Y-86921916D01*
X45208745Y-86877071D01*
X45055000Y-86861928D01*
X44755000Y-86861928D01*
X44601255Y-86877071D01*
X44453418Y-86921916D01*
X44317171Y-86994742D01*
X44270000Y-87033454D01*
X44222829Y-86994742D01*
X44086582Y-86921916D01*
X43938745Y-86877071D01*
X43785000Y-86861928D01*
X43485000Y-86861928D01*
X43331255Y-86877071D01*
X43183418Y-86921916D01*
X43049064Y-86993730D01*
X43019494Y-86969463D01*
X42909180Y-86910498D01*
X42789482Y-86874188D01*
X42665000Y-86861928D01*
X42650750Y-86865000D01*
X42492000Y-87023750D01*
X42492000Y-88348000D01*
X42512000Y-88348000D01*
X42512000Y-88602000D01*
X42492000Y-88602000D01*
X42492000Y-88622000D01*
X42238000Y-88622000D01*
X42238000Y-88602000D01*
X42218000Y-88602000D01*
X42218000Y-88348000D01*
X42238000Y-88348000D01*
X42238000Y-87023750D01*
X42079250Y-86865000D01*
X42065000Y-86861928D01*
X41940518Y-86874188D01*
X41820820Y-86910498D01*
X41710506Y-86969463D01*
X41680936Y-86993730D01*
X41546582Y-86921916D01*
X41398745Y-86877071D01*
X41245000Y-86861928D01*
X40945000Y-86861928D01*
X40791255Y-86877071D01*
X40643418Y-86921916D01*
X40507171Y-86994742D01*
X40460000Y-87033454D01*
X40412829Y-86994742D01*
X40276582Y-86921916D01*
X40128745Y-86877071D01*
X39975000Y-86861928D01*
X39970361Y-86861928D01*
X39995226Y-86801898D01*
X40035000Y-86601939D01*
X40035000Y-86398061D01*
X39995226Y-86198102D01*
X39917205Y-86009744D01*
X39834721Y-85886298D01*
X40193471Y-86245048D01*
G36*
X50465009Y-84958586D02*
G01*
X50465010Y-87955429D01*
X47572002Y-85062422D01*
X47572002Y-84976252D01*
X47730750Y-85135000D01*
X47745000Y-85138072D01*
X47869482Y-85125812D01*
X47989180Y-85089502D01*
X48099494Y-85030537D01*
X48196185Y-84951185D01*
X48275537Y-84854494D01*
X48334502Y-84744180D01*
X48370812Y-84624482D01*
X48383072Y-84500000D01*
X48380000Y-83810750D01*
X48221250Y-83652000D01*
X47572000Y-83652000D01*
X47572000Y-83672000D01*
X47318000Y-83672000D01*
X47318000Y-83652000D01*
X47298000Y-83652000D01*
X47298000Y-83398000D01*
X47318000Y-83398000D01*
X47318000Y-83378000D01*
X47572000Y-83378000D01*
X47572000Y-83398000D01*
X48221250Y-83398000D01*
X48380000Y-83239250D01*
X48381133Y-82984990D01*
X48491414Y-82984990D01*
X50465009Y-84958586D01*
G37*
X50465009Y-84958586D02*
X50465010Y-87955429D01*
X47572002Y-85062422D01*
X47572002Y-84976252D01*
X47730750Y-85135000D01*
X47745000Y-85138072D01*
X47869482Y-85125812D01*
X47989180Y-85089502D01*
X48099494Y-85030537D01*
X48196185Y-84951185D01*
X48275537Y-84854494D01*
X48334502Y-84744180D01*
X48370812Y-84624482D01*
X48383072Y-84500000D01*
X48380000Y-83810750D01*
X48221250Y-83652000D01*
X47572000Y-83652000D01*
X47572000Y-83672000D01*
X47318000Y-83672000D01*
X47318000Y-83652000D01*
X47298000Y-83652000D01*
X47298000Y-83398000D01*
X47318000Y-83398000D01*
X47318000Y-83378000D01*
X47572000Y-83378000D01*
X47572000Y-83398000D01*
X48221250Y-83398000D01*
X48380000Y-83239250D01*
X48381133Y-82984990D01*
X48491414Y-82984990D01*
X50465009Y-84958586D01*
%TD*%
M02*
