M48
; DRILL file {KiCad (5.1.6)-1} date 02/15/21 17:49:48
; FORMAT={-:-/ absolute / inch / decimal}
; #@! TF.CreationDate,2021-02-15T17:49:48+00:00
; #@! TF.GenerationSoftware,Kicad,Pcbnew,(5.1.6)-1
; #@! TF.FileFunction,Plated,1,2,PTH
FMAT,2
INCH
T1C0.0157
T2C0.0354
T3C0.0394
%
G90
G05
T1
X1.437Y-3.2283
X1.5354Y-3.4055
X1.6535Y-3.563
X1.7717Y-5.4528
X1.811Y-4.5472
X1.8307Y-3.4055
X1.9291Y-3.2874
X1.9488Y-4.0551
X1.9488Y-5.0787
X2.0472Y-4.1142
X2.0669Y-3.4055
X2.1457Y-3.9173
X2.1457Y-5.0197
X2.185Y-5.0787
X2.2047Y-3.563
X2.2244Y-4.2323
X2.2441Y-3.3661
X2.3031Y-3.5827
X2.3228Y-3.5433
X2.3622Y-3.5719
X2.4606Y-3.9173
T2
X2.3228Y-3.6614
X2.4228Y-3.6614
X1.4961Y-3.6614
X1.5961Y-3.6614
X2.0472Y-3.6614
X2.1472Y-3.6614
X1.7717Y-3.6614
X1.8717Y-3.6614
T3
X2.1654Y-2.3228
X2.2638Y-2.3228
X2.3622Y-2.3228
X2.1654Y-3.1496
X2.2638Y-3.1496
X2.3622Y-3.1496
X1.5748Y-3.1496
X1.6732Y-3.1496
X1.7717Y-3.1496
X1.5Y-4.9
X1.5Y-5.0
X1.5Y-5.1
X1.5Y-5.2
X1.5Y-5.3
X1.5Y-5.4
X1.5Y-5.5
X1.5Y-5.6
X2.3622Y-4.0606
X2.3622Y-4.1606
X2.3622Y-4.2606
X2.3622Y-4.3606
X2.3622Y-4.4606
X2.3622Y-4.5606
X2.3622Y-4.6606
X2.3622Y-4.7606
X2.3622Y-4.8606
X2.3622Y-4.9606
X2.4622Y-4.0606
X2.4622Y-4.1606
X2.4622Y-4.2606
X2.4622Y-4.3606
X2.4622Y-4.4606
X2.4622Y-4.5606
X2.4622Y-4.6606
X2.4622Y-4.7606
X2.4622Y-4.8606
X2.4622Y-4.9606
X1.5Y-4.0
X1.5Y-4.1
X1.5Y-4.2
X1.5Y-4.3
X1.5Y-4.4
X1.5Y-4.5
X1.5Y-4.6
X1.5Y-4.7
X1.5748Y-2.3228
X1.6732Y-2.3228
X1.7717Y-2.3228
T0
M30
